<?xml version="1.0" standalone="no"?>
<!DOCTYPE svg PUBLIC "-//W3C//DTD SVG 1.1//EN" "http://www.w3.org/Graphics/SVG/1.1/DTD/svg11.dtd" >
<svg xmlns="http://www.w3.org/2000/svg" xmlns:xlink="http://www.w3.org/1999/xlink" version="1.1">
<metadata>
Created by FontForge 20180321 at Mon Jan 11 10:56:16 2016
 By Developer
\(c\) Fabian Fohrer &#38; Fabian Huber 2015
</metadata>
<defs>
<font id="Moderat-Bold" horiz-adv-x="611" >
  <font-face 
    font-family="Moderat Bold"
    font-weight="700"
    font-stretch="normal"
    units-per-em="1000"
    panose-1="0 0 8 0 0 0 0 0 0 0"
    ascent="800"
    descent="-200"
    x-height="500"
    cap-height="700"
    bbox="-223 -298 1136 920"
    underline-thickness="50"
    underline-position="-100"
    stemh="125"
    stemv="131"
    unicode-range="U+0020-FB02"
  />
<missing-glyph horiz-adv-x="830" 
d="M666 601c67 -67 104 -156 104 -251s-37 -184 -104 -251s-157 -104 -251 -104c-95 0 -184 37 -251 104s-104 156 -104 251s37 184 104 251s156 104 251 104c94 0 184 -37 251 -104zM646 119c62 62 96 144 96 231c0 88 -34 170 -96 232s-144 96 -231 96
c-88 0 -170 -34 -232 -96s-96 -144 -96 -232c0 -87 34 -169 96 -231s144 -96 232 -96c87 0 169 34 231 96zM290 383v95h-30v27h87v-27h-30v-95h-27zM512 383v95h-30v27h87v-27h-29v-95h-28zM591 291l5 14l26 -9l-4 -13c-14 -43 -41 -79 -77 -106c-37 -27 -80 -41 -126 -41
s-90 14 -127 41c-36 27 -63 63 -76 106l-5 13l27 9l4 -14c12 -37 35 -68 66 -92c32 -23 71 -36 111 -36s78 13 110 36c31 24 54 55 66 92z" />
    <glyph glyph-name="onequarter" unicode="&#x31;&#x2f;&#x34;" horiz-adv-x="876" 
d="M144 255v233h-94v81h57c25 0 41 16 41 42v29h92l1 -385h-97zM754 640h-115l-498 -640h115zM826 160v-79h-65v-81h-85v81h-172v50l142 254h115v-225h65zM618 160h58v95h-9z" />
    <glyph glyph-name="onehalf" unicode="&#x31;&#x2f;&#x32;" horiz-adv-x="922" 
d="M144 255v233h-94v81h57c25 0 41 16 41 42v29h92l1 -385h-97zM754 640h-115l-498 -640h115zM784 147c-37 -23 -73 -37 -76 -58h155v-89h-279v36c0 86 42 120 87 146c50 29 100 45 100 82c0 21 -17 33 -41 33c-35 0 -54 -25 -54 -53h-91c0 67 43 144 147 144
c79 0 134 -45 134 -118c0 -59 -36 -95 -82 -123z" />
    <glyph glyph-name="threequarters" unicode="&#x33;&#x2f;&#x34;" horiz-adv-x="913" 
d="M282 451c18 -4 56 -26 56 -80c0 -66 -57 -119 -140 -119c-85 0 -148 55 -148 128h92c1 -23 25 -43 55 -43c25 0 46 13 46 39c0 25 -20 37 -58 37h-27v74h24c39 0 54 17 54 37s-16 36 -40 36s-40 -17 -43 -34h-91c0 58 53 117 138 117c76 0 125 -47 125 -107
c0 -46 -29 -73 -43 -79v-6zM791 640h-115l-498 -640h115zM863 160v-79h-65v-81h-85v81h-172v50l142 254h115v-225h65zM655 160h58v95h-9z" />
    <glyph glyph-name="uni2153" unicode="&#x31;&#x2f;&#x33;" horiz-adv-x="922" 
d="M144 255v233h-94v81h57c25 0 41 16 41 42v29h92l1 -385h-97zM754 640h-115l-498 -640h115zM816 196c18 -4 56 -26 56 -80c0 -66 -57 -119 -140 -119c-85 0 -148 55 -148 128h92c1 -23 25 -43 55 -43c25 0 46 13 46 39c0 25 -20 37 -58 37h-27v74h24c39 0 54 17 54 37
s-16 36 -40 36s-40 -17 -43 -34h-91c0 58 53 117 138 117c76 0 125 -47 125 -107c0 -46 -29 -73 -43 -79v-6z" />
    <glyph glyph-name="uni2154" unicode="&#x32;&#x2f;&#x33;" horiz-adv-x="989" 
d="M250 402c-37 -23 -73 -37 -76 -58h155v-89h-279v36c0 86 42 120 87 146c50 29 100 45 100 82c0 21 -17 33 -41 33c-35 0 -54 -25 -54 -53h-91c0 67 43 144 147 144c79 0 134 -45 134 -118c0 -59 -36 -95 -82 -123zM821 640h-115l-498 -640h115zM883 196
c18 -4 56 -26 56 -80c0 -66 -57 -119 -140 -119c-85 0 -148 55 -148 128h92c1 -23 25 -43 55 -43c25 0 46 13 46 39c0 25 -20 37 -58 37h-27v74h24c39 0 54 17 54 37s-16 36 -40 36s-40 -17 -43 -34h-91c0 58 53 117 138 117c76 0 125 -47 125 -107c0 -46 -29 -73 -43 -79
v-6z" />
    <glyph glyph-name="arrowleft" unicode="&#x3c;&#x2d;" horiz-adv-x="863" 
d="M803 377v-120h-557l162 -161l-83 -83l-285 285v39l285 285l83 -83l-163 -162h558z" />
    <glyph glyph-name="arrowright" unicode="&#x2d;&#x3e;" horiz-adv-x="863" 
d="M538 622l285 -285v-39l-285 -285l-83 83l162 161h-557v120h558l-163 162z" />
    <glyph glyph-name="smileface" unicode="&#x3a;&#x29;" horiz-adv-x="830" 
d="M666 601c67 -67 104 -156 104 -251s-37 -184 -104 -251s-157 -104 -251 -104c-95 0 -184 37 -251 104s-104 156 -104 251s37 184 104 251s156 104 251 104c94 0 184 -37 251 -104zM646 119c62 62 96 144 96 231c0 88 -34 170 -96 232s-144 96 -231 96
c-88 0 -170 -34 -232 -96s-96 -144 -96 -232c0 -87 34 -169 96 -231s144 -96 232 -96c87 0 169 34 231 96zM290 383v95h-30v27h87v-27h-30v-95h-27zM512 383v95h-30v27h87v-27h-29v-95h-28zM591 291l5 14l26 -9l-4 -13c-14 -43 -41 -79 -77 -106c-37 -27 -80 -41 -126 -41
s-90 14 -127 41c-36 27 -63 63 -76 106l-5 13l27 9l4 -14c12 -37 35 -68 66 -92c32 -23 71 -36 111 -36s78 13 110 36c31 24 54 55 66 92z" />
    <glyph glyph-name="fi" unicode="fi" horiz-adv-x="692" 
d="M558 556c-47 0 -86 39 -86 84c0 48 39 85 86 85c46 0 84 -37 84 -85c0 -45 -38 -84 -84 -84zM622 500v-500h-128v395h-244v-395h-126v395h-84v105h84v39c0 101 83 166 179 166c77 0 119 -42 119 -42l-48 -89s-28 19 -58 19c-36 0 -66 -28 -66 -62v-31h372z" />
    <glyph glyph-name="fl" unicode="fl" horiz-adv-x="694" 
d="M372 705c176 0 252 -105 252 -105v-600h-130v554s-40 35 -117 35c-72 0 -127 -31 -127 -74v-15h144v-105h-144v-395h-126v395h-84v105h84v23c0 104 96 182 248 182z" />
    <glyph glyph-name="f_f" unicode="ff" horiz-adv-x="836" 
d="M624 531v-31h144v-105h-144v-395h-126v395h-104h-144v-395h-126v395h-84v105h84v39c0 101 83 166 179 166c77 0 119 -42 119 -42l-48 -89s-28 19 -58 19c-36 0 -66 -28 -66 -62v-31h164h84v39c0 101 83 166 179 166c77 0 119 -42 119 -42l-48 -89s-28 19 -58 19
c-36 0 -66 -28 -66 -62z" />
    <glyph glyph-name="f_f_i" unicode="ffi" horiz-adv-x="1066" 
d="M932 556c-47 0 -86 39 -86 84c0 48 39 85 86 85c46 0 84 -37 84 -85c0 -45 -38 -84 -84 -84zM996 500v-500h-128v395h-244v-395h-126v395h-104h-144v-395h-126v395h-84v105h84v39c0 101 83 166 179 166c77 0 119 -42 119 -42l-48 -89s-28 19 -58 19
c-36 0 -66 -28 -66 -62v-31h164h84v39c0 101 83 166 179 166c77 0 119 -42 119 -42l-48 -89s-28 19 -58 19c-36 0 -66 -28 -66 -62v-31h372z" />
    <glyph glyph-name="f_f_j" unicode="ffj" horiz-adv-x="1064" 
d="M912 556c-47 0 -86 39 -86 84c0 48 39 85 86 85c46 0 84 -37 84 -85c0 -45 -38 -84 -84 -84zM868 500h106v-539c0 -101 -83 -166 -179 -166c-77 0 -119 42 -119 42l48 89s28 -19 58 -19c36 0 66 28 66 62v426h-224v-395h-126v395h-104h-144v-395h-126v395h-84v105h84v39
c0 101 83 166 179 166c77 0 119 -42 119 -42l-48 -89s-28 19 -58 19c-36 0 -66 -28 -66 -62v-31h164h84v39c0 101 83 166 179 166c77 0 119 -42 119 -42l-48 -89s-28 19 -58 19c-36 0 -66 -28 -66 -62v-31h244z" />
    <glyph glyph-name="f_f_l" unicode="ffl" horiz-adv-x="1058" 
d="M736 705c176 0 252 -105 252 -105v-600h-130v554s-40 35 -117 35c-72 0 -127 -31 -127 -74v-15h144v-105h-144v-395h-126v395h-84h-154v-395h-126v395h-84v105h84v39c0 101 83 166 179 166c77 0 119 -42 119 -42l-48 -89s-28 19 -58 19c-36 0 -66 -28 -66 -62v-31h154h84
v23c0 104 96 182 248 182z" />
    <glyph glyph-name="f_j" unicode="fj" horiz-adv-x="690" 
d="M538 556c-47 0 -86 39 -86 84c0 48 39 85 86 85c46 0 84 -37 84 -85c0 -45 -38 -84 -84 -84zM494 500h106v-539c0 -101 -83 -166 -179 -166c-77 0 -119 42 -119 42l48 89s28 -19 58 -19c36 0 66 28 66 62v426h-224v-395h-126v395h-84v105h84v39c0 101 83 166 179 166
c77 0 119 -42 119 -42l-48 -89s-28 19 -58 19c-36 0 -66 -28 -66 -62v-31h244z" />
    <glyph glyph-name=".notdef" horiz-adv-x="830" 
d="M666 601c67 -67 104 -156 104 -251s-37 -184 -104 -251s-157 -104 -251 -104c-95 0 -184 37 -251 104s-104 156 -104 251s37 184 104 251s156 104 251 104c94 0 184 -37 251 -104zM646 119c62 62 96 144 96 231c0 88 -34 170 -96 232s-144 96 -231 96
c-88 0 -170 -34 -232 -96s-96 -144 -96 -232c0 -87 34 -169 96 -231s144 -96 232 -96c87 0 169 34 231 96zM290 383v95h-30v27h87v-27h-30v-95h-27zM512 383v95h-30v27h87v-27h-29v-95h-28zM591 291l5 14l26 -9l-4 -13c-14 -43 -41 -79 -77 -106c-37 -27 -80 -41 -126 -41
s-90 14 -127 41c-36 27 -63 63 -76 106l-5 13l27 9l4 -14c12 -37 35 -68 66 -92c32 -23 71 -36 111 -36s78 13 110 36c31 24 54 55 66 92z" />
    <glyph glyph-name="space" unicode=" " horiz-adv-x="270" 
 />
    <glyph glyph-name="exclam" unicode="!" horiz-adv-x="280" 
d="M188 200h-95l-20 500h134zM140 155c44 0 80 -35 80 -80c0 -44 -36 -80 -80 -80s-80 36 -80 80c0 45 36 80 80 80z" />
    <glyph glyph-name="quotedbl" unicode="&#x22;" horiz-adv-x="394" 
d="M163 578l-31 -108h-60l-31 108c-6 19 -11 36 -11 52c0 49 39 73 72 73s72 -24 72 -73c0 -16 -5 -33 -11 -52zM333 578l-31 -108h-60l-31 108c-6 19 -11 36 -11 52c0 49 39 73 72 73s72 -24 72 -73c0 -16 -5 -33 -11 -52z" />
    <glyph glyph-name="numbersign" unicode="#" horiz-adv-x="699" 
d="M649 399h-106l-23 -112h86v-111h-108l-35 -176h-121l35 176h-118l-35 -176h-121l35 176h-93v111h115l23 112h-95v111h117l38 190h121l-38 -190h118l38 190h121l-38 -190h84v-111zM399 287l23 112h-118l-23 -112h118z" />
    <glyph glyph-name="dollar" unicode="$" horiz-adv-x="577" 
d="M527 170c0 -105 -87 -160 -183 -172v-88h-110v92c-111 24 -184 105 -184 190h124c0 -28 22 -56 60 -71v164c-95 43 -166 95 -166 186c0 94 75 153 166 169v90h110v-91c103 -21 165 -99 165 -169h-124c0 11 -14 36 -41 52v-156c78 -32 183 -80 183 -196zM190 476
c0 -25 17 -44 44 -60v113c-23 -9 -44 -25 -44 -53zM344 114c35 9 60 30 60 62c0 31 -23 47 -60 63v-125z" />
    <glyph glyph-name="percent" unicode="%" horiz-adv-x="779" 
d="M200 345c-82 0 -150 68 -150 150s68 150 150 150c81 0 150 -68 150 -150s-69 -150 -150 -150zM659 640l-406 -640h-134l406 640h134zM200 450c26 0 45 19 45 45s-19 45 -45 45s-45 -19 -45 -45s19 -45 45 -45zM579 -5c-82 0 -150 68 -150 150s68 150 150 150
c81 0 150 -68 150 -150s-69 -150 -150 -150zM579 100c26 0 45 19 45 45s-19 45 -45 45s-45 -19 -45 -45s19 -45 45 -45z" />
    <glyph glyph-name="ampersand" unicode="&#x26;" horiz-adv-x="668" 
d="M628 0h-145l-50 60c-38 -40 -86 -65 -156 -65c-123 0 -227 78 -227 202c0 87 52 138 118 182c-33 46 -66 100 -66 161c0 92 73 165 183 165c114 0 175 -78 175 -169c0 -85 -54 -143 -122 -188l75 -90l42 72h138l-95 -173zM282 591c-34 0 -62 -25 -62 -59
c0 -30 23 -65 45 -93c45 27 77 54 77 95s-32 57 -60 57zM277 114c37 0 58 18 75 43l-112 132c-33 -23 -58 -48 -58 -87c0 -52 44 -88 95 -88z" />
    <glyph glyph-name="quotesingle" unicode="'" horiz-adv-x="244" 
d="M183 578l-31 -108h-60l-31 108c-6 19 -11 36 -11 52c0 49 39 73 72 73s72 -24 72 -73c0 -16 -5 -33 -11 -52z" />
    <glyph glyph-name="parenleft" unicode="(" horiz-adv-x="363" 
d="M323 -104l-85 -75c-104 113 -178 277 -178 489s74 377 178 490l85 -76c-91 -99 -139 -246 -139 -414s49 -315 139 -414z" />
    <glyph glyph-name="parenright" unicode=")" horiz-adv-x="363" 
d="M30 -104c90 99 139 246 139 414s-48 315 -139 414l85 76c104 -113 178 -278 178 -490s-74 -376 -178 -489z" />
    <glyph glyph-name="asterisk" unicode="*" horiz-adv-x="400" 
d="M360 583l-85 -43l85 -43l-43 -74l-80 53l6 -96h-86l6 96l-80 -53l-43 74l85 43l-85 43l43 74l80 -53l-6 96h86l-6 -96l80 53z" />
    <glyph glyph-name="plus" unicode="+" horiz-adv-x="595" 
d="M545 370v-116h-187v-191h-120v191h-188v116h188v188h120v-188h187z" />
    <glyph glyph-name="comma" unicode="," horiz-adv-x="263" 
d="M132 155c52 0 81 -42 81 -109c0 -134 -115 -187 -115 -187l-31 33c47 42 60 72 66 105c-35 2 -83 22 -83 78c0 49 37 80 82 80z" />
    <glyph glyph-name="hyphen" unicode="-" horiz-adv-x="460" 
d="M50 368h360v-114h-360v114z" />
    <glyph glyph-name="period" unicode="." horiz-adv-x="260" 
d="M130 -5c-44 0 -80 36 -80 80c0 45 36 80 80 80s80 -35 80 -80c0 -44 -36 -80 -80 -80z" />
    <glyph glyph-name="slash" unicode="/" horiz-adv-x="487" 
d="M467 750l-336 -800h-111l336 800h111z" />
    <glyph glyph-name="zero" unicode="0" horiz-adv-x="584" 
d="M293 -5c-159 0 -243 121 -243 326s84 325 242 325s242 -120 242 -326c0 -205 -83 -325 -241 -325zM292 128c87 0 101 109 101 191c0 85 -15 194 -101 194c-85 0 -100 -109 -100 -193c0 -85 15 -192 100 -192z" />
    <glyph glyph-name="one" unicode="1" horiz-adv-x="395" 
d="M187 0v433h-132v106h73c37 0 65 28 65 66v35h126l1 -640h-133z" />
    <glyph glyph-name="two" unicode="2" horiz-adv-x="570" 
d="M332 251c-93 -47 -113 -83 -113 -125h276v-126h-425v51c0 157 79 234 159 282c74 45 132 52 136 114c3 52 -34 75 -75 75c-50 0 -86 -35 -86 -87h-133c0 87 63 211 219 211c116 0 210 -68 210 -188s-94 -170 -168 -207z" />
    <glyph glyph-name="three" unicode="3" horiz-adv-x="549" 
d="M395 340c57 -21 89 -84 89 -148c0 -107 -91 -197 -216 -197c-134 0 -223 105 -223 204h129c4 -39 34 -79 92 -79c47 0 86 26 86 79c0 42 -25 88 -99 88h-43v105h39c71 0 85 46 85 73c0 43 -35 65 -71 65c-24 0 -63 -10 -69 -60h-126c0 107 95 176 200 176
c103 0 192 -68 192 -169c0 -53 -24 -106 -65 -129v-8z" />
    <glyph glyph-name="four" unicode="4" horiz-adv-x="600" 
d="M550 249v-119h-104v-130h-129v130h-282v81l233 430h128h50v-392h104zM188 249h129v224h-10z" />
    <glyph glyph-name="five" unicode="5" horiz-adv-x="563" 
d="M278 430c134 0 220 -94 220 -221c0 -138 -101 -214 -223 -214c-148 0 -220 113 -220 200h130s6 -75 89 -75c70 0 92 52 92 96c0 59 -39 96 -95 96s-82 -36 -82 -36l-121 33l30 332h370v-126h-260l-9 -99c22 9 49 14 79 14z" />
    <glyph glyph-name="six" unicode="6" horiz-adv-x="540" 
d="M266 407c121 0 214 -79 214 -203c0 -132 -104 -209 -215 -209c-110 0 -215 75 -215 210c0 42 10 75 19 104c21 67 142 255 188 332h145zM265 118c41 0 86 24 86 86c0 65 -51 85 -86 85s-86 -20 -86 -85c0 -62 46 -86 86 -86z" />
    <glyph glyph-name="seven" unicode="7" horiz-adv-x="485" 
d="M40 641h405v-95c-113 -118 -193 -309 -193 -546h-133c0 299 98 455 144 513h-223v128z" />
    <glyph glyph-name="eight" unicode="8" horiz-adv-x="582" 
d="M413 346c55 -20 104 -82 104 -155c0 -101 -93 -196 -227 -196c-135 0 -225 95 -225 196c0 77 53 137 104 155v9c-39 21 -70 70 -70 125c0 94 87 166 194 166c103 0 190 -68 190 -161c0 -55 -31 -108 -70 -129v-10zM291 528c-40 0 -69 -24 -69 -60c0 -40 36 -59 69 -59
s68 19 68 59c0 36 -28 60 -68 60zM292 116c60 0 89 45 89 80c0 38 -32 81 -90 81c-59 0 -90 -45 -90 -81c0 -35 30 -80 91 -80z" />
    <glyph glyph-name="nine" unicode="9" horiz-adv-x="520" 
d="M264 234c-121 0 -214 79 -214 203c0 132 104 209 214 209c111 0 216 -78 216 -205c0 -50 -16 -91 -29 -119c-32 -69 -131 -243 -178 -322h-145zM265 523c-41 0 -86 -24 -86 -86c0 -65 51 -85 86 -85s86 20 86 85c0 62 -46 86 -86 86z" />
    <glyph glyph-name="colon" unicode=":" horiz-adv-x="260" 
d="M130 345c-44 0 -80 36 -80 80c0 45 36 80 80 80s80 -35 80 -80c0 -44 -36 -80 -80 -80zM130 -5c-44 0 -80 36 -80 80c0 45 36 80 80 80s80 -35 80 -80c0 -44 -36 -80 -80 -80z" />
    <glyph glyph-name="semicolon" unicode=";" horiz-adv-x="268" 
d="M130 345c-44 0 -80 36 -80 80c0 45 36 80 80 80s80 -35 80 -80c0 -44 -36 -80 -80 -80zM137 155c52 0 81 -42 81 -109c0 -134 -115 -187 -115 -187l-31 33c47 42 60 72 66 105c-35 2 -83 22 -83 78c0 49 37 80 82 80z" />
    <glyph glyph-name="less" unicode="&#x3c;" horiz-adv-x="530" 
d="M470 450l-247 -140v-16l247 -139v-155l-430 272v60l430 273v-155z" />
    <glyph glyph-name="equal" unicode="=" horiz-adv-x="595" 
d="M50 445h495v-116h-495v116zM50 250h495v-115h-495v115z" />
    <glyph glyph-name="greater" unicode="&#x3e;" horiz-adv-x="530" 
d="M60 605l430 -273v-60l-430 -272v155l247 139v16l-247 140v155z" />
    <glyph glyph-name="question" unicode="?" horiz-adv-x="461" 
d="M144 247c0 55 4 113 68 177c48 48 94 66 94 111c0 31 -21 60 -71 60c-54 0 -74 -32 -80 -75h-122c0 89 50 189 198 189c128 0 197 -74 197 -165c0 -96 -76 -138 -119 -185c-46 -50 -43 -98 -43 -138v-21h-122v47zM206 -5c-44 0 -80 36 -80 80c0 45 36 80 80 80
s80 -35 80 -80c0 -44 -36 -80 -80 -80z" />
    <glyph glyph-name="at" unicode="@" horiz-adv-x="980" 
d="M494 705c222 0 436 -165 436 -426c0 -151 -72 -250 -174 -264c-53 -7 -114 8 -150 49c-29 -33 -81 -49 -133 -49c-125 0 -222 91 -222 236c0 148 100 244 216 244c50 0 89 -18 117 -47h14l22 42h68v-310c0 -36 31 -53 60 -47c43 9 57 67 57 134c0 217 -145 324 -309 324
c-177 0 -324 -124 -324 -338c0 -203 133 -337 327 -337c56 0 103 11 162 44l81 -82c-73 -46 -163 -71 -248 -71c-217 0 -444 163 -444 450c0 281 220 448 444 448zM475 130c63 0 97 49 97 121c0 61 -24 129 -98 129c-73 0 -102 -67 -102 -125s29 -125 103 -125z" />
    <glyph glyph-name="A" unicode="A" horiz-adv-x="668" 
d="M422 700l236 -700h-144l-49 153h-262l-49 -153h-144l236 700h176zM243 277h182l-79 243h-24z" />
    <glyph glyph-name="B" unicode="B" horiz-adv-x="617" 
d="M452 371c65 -19 115 -78 115 -169c0 -132 -103 -202 -235 -202h-262v700h241c103 0 221 -57 221 -182c0 -58 -26 -111 -80 -139v-8zM198 582v-159h96c89 0 107 41 107 79c0 49 -32 80 -107 80h-96zM302 118c94 0 131 40 131 93c0 45 -27 95 -121 95h-114v-188h104z" />
    <glyph glyph-name="C" unicode="C" horiz-adv-x="693" 
d="M502 210h151c-40 -134 -152 -215 -287 -215c-183 0 -316 150 -316 355s132 355 315 355c134 0 248 -81 288 -215h-151c-26 56 -73 83 -135 83c-114 0 -179 -93 -179 -223s66 -223 181 -223c62 0 107 27 133 83z" />
    <glyph glyph-name="D" unicode="D" horiz-adv-x="692" 
d="M292 700c184 0 350 -123 350 -350s-166 -350 -350 -350h-222v700h222zM292 132c122 0 213 82 213 221s-91 215 -213 215h-86v-436h86z" />
    <glyph glyph-name="E" unicode="E" 
d="M201 125h340v-125h-471v700h461v-125h-330v-158h300v-125h-300v-167z" />
    <glyph glyph-name="F" unicode="F" horiz-adv-x="551" 
d="M531 573h-327v-156h267v-123h-267v-294h-134v417v283h461v-127z" />
    <glyph glyph-name="G" unicode="G" horiz-adv-x="733" 
d="M393 382h280v-382h-93l-15 59h-13c-34 -36 -86 -64 -177 -64c-187 0 -325 150 -325 356c0 204 135 354 331 354c229 0 287 -205 287 -205h-150s-31 78 -137 78c-116 0 -196 -95 -196 -228s79 -227 203 -227c78 0 131 33 155 80v61h-150v118z" />
    <glyph glyph-name="H" unicode="H" horiz-adv-x="686" 
d="M481 700h135v-700h-135v291h-276v-291h-135v700h135v-282h276v282z" />
    <glyph glyph-name="I" unicode="I" horiz-adv-x="279" 
d="M209 700v-700h-139v700h139z" />
    <glyph glyph-name="J" unicode="J" horiz-adv-x="567" 
d="M185 210c0 -30 24 -86 88 -86c63 0 91 54 91 106v470h133v-460c0 -173 -115 -245 -228 -245c-120 0 -219 82 -219 215h135z" />
    <glyph glyph-name="K" unicode="K" horiz-adv-x="650" 
d="M466 0l-204 295h-58v-295h-134v700h134v-275h56l177 275h153l-218 -340l248 -360h-154z" />
    <glyph glyph-name="L" unicode="L" horiz-adv-x="601" 
d="M210 131h341v-131h-481v700h140v-569z" />
    <glyph glyph-name="M" unicode="M" horiz-adv-x="840" 
d="M770 700v-700h-131v427h-8l-131 -377h-161l-130 377h-8v-427h-131v700h171l171 -496h16l171 496h171z" />
    <glyph glyph-name="N" unicode="N" horiz-adv-x="692" 
d="M491 700h131v-700h-131l-277 452h-13v-452h-131v700h132l277 -440h12v440z" />
    <glyph glyph-name="O" unicode="O" horiz-adv-x="764" 
d="M383 -5c-184 0 -343 150 -343 355s159 355 342 355s342 -150 342 -355s-158 -355 -341 -355zM383 127c121 0 203 93 203 223s-83 223 -204 223c-120 0 -203 -93 -203 -223s83 -223 204 -223z" />
    <glyph glyph-name="P" unicode="P" horiz-adv-x="594" 
d="M337 700c115 0 217 -76 217 -215c0 -138 -102 -225 -217 -225h-140v-260h-127v700h267zM327 383c57 0 95 44 95 102c0 59 -39 92 -95 92h-130v-194h130z" />
    <glyph glyph-name="Q" unicode="Q" horiz-adv-x="784" 
d="M587 -6c55 0 84 27 84 27l58 -87c-30 -23 -75 -54 -152 -54c-95 0 -171 47 -195 115c-180 6 -332 154 -332 355c0 205 159 355 342 355s342 -150 342 -355c0 -155 -90 -278 -213 -329c9 -13 27 -27 66 -27zM189 350c0 -130 83 -223 204 -223s203 93 203 223
s-83 223 -204 223c-120 0 -203 -93 -203 -223z" />
    <glyph glyph-name="R" unicode="R" horiz-adv-x="627" 
d="M577 0h-148l-149 257h-83v-257h-127v700h247c115 0 217 -77 217 -215c0 -96 -54 -169 -126 -204zM197 575v-194h110c57 0 95 44 95 102s-39 92 -95 92h-110z" />
    <glyph glyph-name="S" unicode="S" horiz-adv-x="593" 
d="M543 195c0 -131 -107 -200 -234 -200c-153 0 -259 100 -259 231h130c12 -87 84 -107 128 -107c34 0 102 12 102 77c0 59 -57 83 -114 105c-94 37 -227 82 -227 215c0 118 103 190 228 190c145 0 226 -97 226 -186h-128c-7 39 -50 64 -100 64c-48 0 -88 -24 -88 -68
c0 -43 39 -60 107 -91c73 -33 229 -72 229 -230z" />
    <glyph glyph-name="T" unicode="T" horiz-adv-x="552" 
d="M532 700v-124h-189v-576h-134v576h-189v124h512z" />
    <glyph glyph-name="U" unicode="U" horiz-adv-x="684" 
d="M624 700v-400c0 -215 -127 -305 -281 -305s-283 90 -283 305v400h139v-390c0 -114 48 -183 144 -183s142 69 142 183v390h139z" />
    <glyph glyph-name="V" unicode="V" horiz-adv-x="672" 
d="M500 700h142l-204 -700h-204l-204 700h143l153 -544h21z" />
    <glyph glyph-name="W" unicode="W" horiz-adv-x="963" 
d="M791 700h137l-148 -700h-209l-80 452h-21l-88 -452h-209l-138 700h137l102 -547h21l98 497h177l91 -497h21z" />
    <glyph glyph-name="X" unicode="X" horiz-adv-x="725" 
d="M536 0l-164 273h-14l-165 -273h-163l224 361l-210 339h159l154 -253h14l154 253h156l-210 -339l224 -361h-159z" />
    <glyph glyph-name="Y" unicode="Y" horiz-adv-x="639" 
d="M450 700h159l-220 -349v-351h-139v351l-220 349h158l125 -214h12z" />
    <glyph glyph-name="Z" unicode="Z" 
d="M232 131h329v-131h-511v102l324 468h-304v130h481v-101z" />
    <glyph glyph-name="bracketleft" unicode="[" horiz-adv-x="360" 
d="M60 773h220v-109h-103v-724h103v-109h-220v942z" />
    <glyph glyph-name="backslash" unicode="\" horiz-adv-x="517" 
d="M50 750h111l336 -800h-111z" />
    <glyph glyph-name="bracketright" unicode="]" horiz-adv-x="360" 
d="M290 773v-942h-220v109h103v724h-103v109h220z" />
    <glyph glyph-name="asciicircum" unicode="^" horiz-adv-x="565" 
d="M378 360l-85 148h-20l-86 -148h-137l203 340h60l202 -340h-137z" />
    <glyph glyph-name="underscore" unicode="_" horiz-adv-x="535" 
d="M50 0h435v-114h-435v114z" />
    <glyph glyph-name="grave" unicode="`" horiz-adv-x="347" 
d="M214 690l63 -135h-88l-119 135h144z" />
    <glyph glyph-name="a" unicode="a" horiz-adv-x="569" 
d="M480 168c0 -58 21 -72 59 -72v-96h-30c-58 0 -99 21 -116 64c-30 -41 -80 -69 -158 -69c-113 0 -185 58 -185 148c0 156 213 170 309 175c-2 58 -34 79 -85 79c-71 0 -76 -43 -76 -43h-125c9 89 82 151 204 151c119 0 203 -59 203 -204v-133zM176 147
c0 -76 173 -70 181 63v10c-91 -10 -181 -21 -181 -73z" />
    <glyph glyph-name="b" unicode="b" horiz-adv-x="607" 
d="M324 505c127 0 233 -104 233 -255s-106 -255 -233 -255c-54 0 -96 19 -127 53h-15l-14 -48h-98v710h125v-259c32 36 77 54 129 54zM305 118c61 0 122 44 122 132s-61 132 -122 132c-65 0 -110 -49 -110 -132s45 -132 110 -132z" />
    <glyph glyph-name="c" unicode="c" horiz-adv-x="587" 
d="M544 176c-32 -119 -135 -181 -241 -181c-139 0 -253 107 -253 254c0 149 118 256 258 256c114 0 211 -71 239 -188h-136c-21 41 -58 67 -106 67c-70 0 -126 -56 -126 -134s56 -134 126 -134c45 0 80 23 102 60h137z" />
    <glyph glyph-name="d" unicode="d" horiz-adv-x="607" 
d="M412 710h125v-710h-98l-14 48h-15c-31 -34 -73 -53 -127 -53c-127 0 -233 104 -233 255s106 255 233 255c52 0 97 -18 129 -54v259zM302 118c65 0 110 49 110 132s-45 132 -110 132c-61 0 -122 -44 -122 -132s61 -132 122 -132z" />
    <glyph glyph-name="e" unicode="e" horiz-adv-x="592" 
d="M299 505c128 0 258 -89 242 -293h-365c15 -76 77 -104 131 -104c68 0 97 42 97 42h126c-38 -100 -129 -155 -227 -155c-135 0 -253 103 -253 259c0 155 117 251 249 251zM303 396c-55 0 -99 -31 -119 -83h225c-15 59 -56 83 -106 83z" />
    <glyph glyph-name="f" unicode="f" horiz-adv-x="462" 
d="M374 574c0 0 -28 19 -58 19c-36 0 -66 -28 -66 -62v-31h144v-105h-144v-395h-126v395h-84v105h84v39c0 101 83 166 179 166c77 0 119 -42 119 -42z" />
    <glyph glyph-name="g" unicode="g" horiz-adv-x="575" 
d="M349 119c110 0 165 -75 162 -159c-4 -113 -107 -165 -226 -165c-155 0 -244 89 -221 197l57 46c-32 20 -53 51 -53 88c0 41 26 70 62 89c-34 31 -51 73 -51 120c0 96 74 171 200 171c44 0 83 -9 114 -25c54 25 85 65 85 65l62 -83s-34 -23 -80 -37c19 -26 29 -57 29 -90
c0 -95 -87 -171 -213 -171c-26 0 -50 3 -71 9c-8 -5 -15 -13 -15 -25c0 -36 55 -30 89 -30h70zM284 400c-57 0 -85 -25 -85 -63s27 -66 85 -66c57 0 85 28 85 66c0 37 -28 63 -85 63zM287 -89c65 0 101 21 101 53c0 27 -22 48 -78 48c-28 0 -67 0 -96 1l-34 -36
c-6 -25 19 -66 107 -66z" />
    <glyph glyph-name="h" unicode="h" horiz-adv-x="619" 
d="M358 505c129 0 191 -96 191 -234v-271h-134v241c0 49 8 148 -82 148c-44 0 -129 -23 -129 -154v-235h-134v710h127v-262h17c24 25 70 57 144 57z" />
    <glyph glyph-name="i" unicode="i" horiz-adv-x="290" 
d="M156 556c-47 0 -86 39 -86 84c0 48 39 85 86 85c46 0 84 -37 84 -85c0 -45 -38 -84 -84 -84zM220 500v-500h-128v500h128z" />
    <glyph glyph-name="j" unicode="j" horiz-adv-x="368" 
d="M236 556c-47 0 -86 39 -86 84c0 48 39 85 86 85c46 0 84 -37 84 -85c0 -45 -38 -84 -84 -84zM48 -74c0 0 28 -19 58 -19c36 0 66 28 66 62v531h126v-539c0 -101 -83 -166 -179 -166c-77 0 -119 42 -119 42z" />
    <glyph glyph-name="k" unicode="k" horiz-adv-x="570" 
d="M530 500l-198 -213l198 -287h-143l-138 197l-50 -54l-3 1v-144h-126v710h126v-380h20l161 170h153z" />
    <glyph glyph-name="l" unicode="l" horiz-adv-x="270" 
d="M70 710h130v-710h-130v710z" />
    <glyph glyph-name="m" unicode="m" horiz-adv-x="877" 
d="M628 506c130 1 189 -96 189 -235v-271h-133v241c0 69 7 156 -85 148c-24 -2 -90 -13 -90 -154v-235h-132v241c0 69 7 156 -85 148c-24 -2 -90 -13 -90 -154v-235h-132v500h102l15 -54h16c19 25 59 58 121 59c56 1 104 -25 137 -69h15c25 31 71 69 152 70z" />
    <glyph glyph-name="n" unicode="n" horiz-adv-x="610" 
d="M358 505c129 0 192 -96 192 -234v-271h-133v241c0 17 12 143 -84 148c-47 3 -131 -23 -131 -154v-235h-132v500h102l17 -61h17c21 25 68 66 152 66z" />
    <glyph glyph-name="o" unicode="o" 
d="M304 -5c-136 0 -254 97 -254 254c0 160 124 256 258 256c135 0 253 -97 253 -254c0 -159 -122 -256 -257 -256zM308 111c76 0 122 61 122 139s-46 139 -122 139s-127 -61 -127 -139s51 -139 127 -139z" />
    <glyph glyph-name="p" unicode="p" horiz-adv-x="607" 
d="M324 505c127 0 233 -104 233 -255s-106 -255 -233 -255c-52 0 -97 18 -129 54v-249h-125v700h98l14 -48h15c31 34 73 53 127 53zM305 118c61 0 122 44 122 132s-61 132 -122 132c-65 0 -110 -49 -110 -132s45 -132 110 -132z" />
    <glyph glyph-name="q" unicode="q" horiz-adv-x="627" 
d="M449 500h98v-700h-125v249c-32 -36 -77 -54 -129 -54c-127 0 -233 104 -233 255s106 255 233 255c53 0 95 -19 126 -52h16zM312 118c65 0 110 49 110 132s-45 132 -110 132c-61 0 -122 -44 -122 -132s61 -132 122 -132z" />
    <glyph glyph-name="r" unicode="r" horiz-adv-x="430" 
d="M359 505h31v-128c-10 2 -27 4 -44 4c-70 0 -143 -36 -143 -128v-253h-133v500h102l18 -55h16c22 22 71 60 153 60z" />
    <glyph glyph-name="s" unicode="s" horiz-adv-x="508" 
d="M335 353c-4 17 -20 46 -71 46c-42 0 -60 -21 -60 -42c0 -34 45 -44 75 -50c89 -19 179 -46 179 -152c0 -103 -85 -160 -188 -160c-115 0 -204 70 -210 176h123c3 -30 23 -69 84 -69c51 0 63 27 63 48c0 37 -35 48 -69 56c-59 13 -186 37 -186 151c0 98 94 148 191 148
c112 0 186 -68 192 -152h-123z" />
    <glyph glyph-name="t" unicode="t" horiz-adv-x="498" 
d="M400 126l48 -89s-42 -42 -119 -42c-96 0 -179 65 -179 166v232h-100v98h50c34 0 57 23 57 59v100h121v-150h126v-107h-126v-224c0 -34 28 -60 64 -60c30 0 58 17 58 17z" />
    <glyph glyph-name="u" unicode="u" horiz-adv-x="618" 
d="M413 500h135v-500h-100l-18 56h-13c-20 -25 -64 -61 -146 -61c-133 0 -201 94 -201 234v271h136v-241c0 -62 5 -148 91 -148c44 0 116 23 116 154v235z" />
    <glyph glyph-name="v" unicode="v" horiz-adv-x="618" 
d="M435 500h133l-162 -500h-128h-66l-162 500h133l116 -368h20z" />
    <glyph glyph-name="w" unicode="w" horiz-adv-x="850" 
d="M667 500h128l-119 -500h-176l-68 292h-14l-68 -292h-176l-119 500h128l77 -349h17l69 309h158l70 -309h16z" />
    <glyph glyph-name="x" unicode="x" horiz-adv-x="617" 
d="M418 0l-102 169h-14l-103 -169h-144l165 257l-155 243h141l97 -150h12l96 150h141l-155 -243l165 -257h-144z" />
    <glyph glyph-name="y" unicode="y" horiz-adv-x="621" 
d="M447 500h134l-174 -519c-28 -83 -61 -186 -212 -186c-90 0 -137 36 -152 55l63 89c5 -5 36 -31 78 -31s70 17 81 51l14 41h-67l-172 500h139l126 -364h20z" />
    <glyph glyph-name="z" unicode="z" horiz-adv-x="545" 
d="M234 112h251v-112h-425v66l241 322h-231v112h405v-66z" />
    <glyph glyph-name="braceleft" unicode="{" horiz-adv-x="353" 
d="M237 419c0 -53 -16 -89 -42 -113v-8c26 -24 42 -60 42 -113v-210c0 -33 0 -54 35 -54h11v-90h-49c-69 0 -112 45 -112 118v226c0 54 -18 85 -72 85v82v2c54 0 72 31 72 85v226c0 73 43 118 112 118h49v-90h-11c-35 0 -35 -21 -35 -54v-210z" />
    <glyph glyph-name="bar" unicode="|" horiz-adv-x="263" 
d="M193 770v-910h-123v910h123z" />
    <glyph glyph-name="braceright" unicode="}" horiz-adv-x="353" 
d="M231 429c0 -54 18 -85 72 -85v-82v-2c-54 0 -72 -31 -72 -85v-226c0 -73 -43 -118 -112 -118h-49v90h11c35 0 35 21 35 54v210c0 53 16 89 42 113v8c-26 24 -42 60 -42 113v210c0 33 0 54 -35 54h-11v90h49c69 0 112 -45 112 -118v-226z" />
    <glyph glyph-name="asciitilde" unicode="~" horiz-adv-x="660" 
d="M610 337c0 0 -55 -143 -201 -125c-72 9 -118 51 -167 51c-53 0 -87 -49 -87 -49l-105 40s56 138 201 125c75 -7 117 -50 166 -51c54 -1 88 49 88 49z" />
    <glyph glyph-name="uni00A0" unicode="&#xa0;" horiz-adv-x="250" 
 />
    <glyph glyph-name="exclamdown" unicode="&#xa1;" horiz-adv-x="280" 
d="M140 345c-44 0 -80 35 -80 80c0 44 36 80 80 80s80 -36 80 -80c0 -45 -36 -80 -80 -80zM92 300h95l20 -500h-134z" />
    <glyph glyph-name="cent" unicode="&#xa2;" horiz-adv-x="597" 
d="M355 195c21 10 39 27 52 49h137c-27 -99 -103 -159 -189 -176v-71h-113v73c-110 26 -192 122 -192 247s83 220 192 248v73h113v-69c93 -17 168 -83 192 -184h-136c-13 25 -32 45 -56 56v-246zM179 318c0 -52 25 -95 63 -117v234c-38 -22 -63 -65 -63 -117z" />
    <glyph glyph-name="sterling" unicode="&#xa3;" horiz-adv-x="549" 
d="M256 130v-8h246v-122h-451v121s115 11 115 111c0 11 -1 22 -4 32h-112v105h62c-12 26 -21 55 -21 92c0 134 121 184 209 184c178 0 209 -158 209 -158l-118 -31s-17 70 -86 70c-46 0 -84 -22 -84 -74c0 -31 14 -57 29 -83h173v-105h-126c1 -5 1 -11 1 -17
c0 -71 -28 -104 -42 -117z" />
    <glyph glyph-name="currency" unicode="&#xa4;" horiz-adv-x="627" 
d="M531 250c0 -39 -11 -77 -29 -109l75 -75l-80 -80l-75 75c-32 -18 -69 -28 -107 -28c-40 0 -78 11 -109 29l-76 -76l-80 80l75 75c-18 32 -29 70 -29 109s11 77 29 109l-75 75l80 80l75 -75c32 18 70 28 109 28s76 -10 108 -28l75 75l80 -80l-75 -75
c18 -32 29 -70 29 -109zM220 250c0 -50 41 -94 94 -94s94 44 94 94s-41 94 -94 94s-94 -44 -94 -94z" />
    <glyph glyph-name="yen" unicode="&#xa5;" horiz-adv-x="627" 
d="M587 640l-145 -223h78v-101h-142v-52h142v-101h-142v-163h-130v163h-141v101h141v52h-141v101h77l-144 223h142l127 -197h8l127 197h143z" />
    <glyph glyph-name="brokenbar" unicode="&#xa6;" horiz-adv-x="263" 
d="M70 770h123v-355h-123v355zM70 -140v355h123v-355h-123z" />
    <glyph glyph-name="section" unicode="&#xa7;" horiz-adv-x="530" 
d="M480 261c0 -78 -38 -124 -89 -149c45 -25 71 -83 71 -142c0 -108 -90 -170 -192 -170c-112 0 -202 74 -202 178h129c0 -34 35 -54 68 -54s67 19 67 63c0 58 -59 78 -85 86c-110 36 -197 77 -197 190c0 67 31 121 88 150c-31 19 -71 70 -71 141c0 82 53 136 129 158
c20 6 42 9 66 9h1c109 0 195 -77 198 -178h-129c0 44 -44 54 -68 54c-29 0 -67 -15 -67 -65s37 -69 86 -84c97 -30 197 -61 197 -187zM271 191c43 0 76 23 76 64c0 46 -40 75 -88 75c-43 0 -77 -23 -77 -64c0 -46 41 -75 89 -75z" />
    <glyph glyph-name="dieresis" unicode="&#xa8;" horiz-adv-x="480" 
d="M143 551c-40 0 -73 33 -73 73c0 41 33 72 73 72c39 0 72 -31 72 -72c0 -40 -33 -73 -72 -73zM337 551c-39 0 -72 33 -72 73c0 41 33 72 72 72c40 0 73 -31 73 -72c0 -40 -33 -73 -73 -73z" />
    <glyph glyph-name="copyright" unicode="&#xa9;" horiz-adv-x="810" 
d="M405 -5c-196 0 -355 159 -355 355s159 355 355 355c195 0 355 -159 355 -355s-160 -355 -355 -355zM405 89c139 0 256 110 256 261s-117 261 -256 261c-140 0 -256 -110 -256 -261s116 -261 256 -261zM579 305c-17 -91 -92 -140 -169 -140c-94 0 -180 75 -180 185
s86 185 179 185c78 0 158 -52 172 -145h-104c-8 31 -43 46 -68 46c-38 0 -75 -33 -75 -86c0 -52 35 -86 79 -86c26 0 49 12 62 41h104z" />
    <glyph glyph-name="guillemotleft" unicode="&#xab;" horiz-adv-x="621" 
d="M201 97l-161 202l161 202h140l-163 -202l163 -202h-140zM421 97l-161 202l161 202h140l-163 -202l163 -202h-140z" />
    <glyph glyph-name="logicalnot" unicode="&#xac;" horiz-adv-x="576" 
d="M526 179h-112l-1 123h-363v113h475v-27z" />
    <glyph glyph-name="uni00AD" unicode="&#xad;" horiz-adv-x="460" 
d="M50 368h360v-114h-360v114z" />
    <glyph glyph-name="registered" unicode="&#xae;" horiz-adv-x="810" 
d="M405 -5c-196 0 -355 159 -355 355s159 355 355 355c195 0 355 -159 355 -355s-160 -355 -355 -355zM405 89c139 0 256 110 256 261s-117 261 -256 261c-140 0 -256 -110 -256 -261s116 -261 256 -261zM468 170l-74 132h-18v-132h-89v360h122c82 0 133 -43 133 -113
c0 -76 -60 -98 -60 -98l84 -149h-98zM376 385h31c29 0 42 8 42 30c0 21 -12 32 -43 32h-30v-62z" />
    <glyph glyph-name="macron" unicode="&#xaf;" horiz-adv-x="490" 
d="M70 660h350v-90h-350v90z" />
    <glyph glyph-name="degree" unicode="&#xb0;" horiz-adv-x="346" 
d="M173 402c-68 0 -123 55 -123 123s55 123 123 123c67 0 123 -55 123 -123s-56 -123 -123 -123zM173 490c20 0 35 15 35 35s-15 35 -35 35s-35 -15 -35 -35s15 -35 35 -35z" />
    <glyph glyph-name="plusminus" unicode="&#xb1;" horiz-adv-x="515" 
d="M318 432h147v-116h-147v-127h-120v127h-148v116h148v126h120v-126zM50 0v116h415v-116h-415z" />
    <glyph glyph-name="uni00B2" unicode="&#xb2;" horiz-adv-x="372" 
d="M245 481c-38 -24 -64 -34 -76 -51h150v-89h-269v36c0 56 34 107 87 136c62 34 90 50 90 72c0 15 -13 28 -40 28c-28 0 -45 -15 -45 -43h-91c0 57 38 134 142 134c79 0 129 -43 129 -112c0 -53 -30 -82 -77 -111z" />
    <glyph glyph-name="uni00B3" unicode="&#xb3;" horiz-adv-x="378" 
d="M273 525c18 -4 55 -32 55 -79c0 -56 -52 -109 -135 -109c-85 0 -143 55 -143 128h92c1 -23 19 -43 52 -43c25 0 39 12 39 31s-15 34 -48 34h-24v74h23c31 0 42 12 42 29c0 21 -17 30 -35 30c-20 0 -35 -12 -38 -29h-91c0 58 48 112 133 112c76 0 120 -43 120 -100
c0 -47 -29 -66 -42 -72v-6z" />
    <glyph glyph-name="acute" unicode="&#xb4;" horiz-adv-x="347" 
d="M133 690h144l-119 -135h-88z" />
    <glyph glyph-name="uni00B5" unicode="&#xb5;" horiz-adv-x="618" 
d="M418 500h130v-500h-100l-19 67h-5c-17 -23 -71 -72 -157 -72c-33 0 -54 7 -82 23v-218h-115v700h133v-241c0 -49 -6 -148 84 -148c44 0 131 23 131 154v235z" />
    <glyph glyph-name="paragraph" unicode="&#xb6;" horiz-adv-x="639" 
d="M60 512c0 78 44 138 107 167c31 14 64 21 100 21h312v-72h-80v-828h-73v828h-84v-828h-75v523c-53 0 -104 17 -142 49c-40 30 -65 81 -65 140z" />
    <glyph glyph-name="periodcentered" unicode="&#xb7;" horiz-adv-x="290" 
d="M130 251c-44 0 -80 36 -80 80c0 45 36 80 80 80s80 -35 80 -80c0 -44 -36 -80 -80 -80z" />
    <glyph glyph-name="cedilla" unicode="&#xb8;" horiz-adv-x="360" 
d="M143 5h83l-27 -46c44 10 91 -20 91 -73c0 -48 -39 -91 -108 -91c-83 0 -112 61 -112 61l60 33s16 -28 48 -28c21 0 31 12 31 23s-9 25 -31 25c-19 0 -31 -11 -31 -11l-45 47z" />
    <glyph glyph-name="uni00B9" unicode="&#xb9;" horiz-adv-x="286" 
d="M139 340v214h-94v81h57c25 0 41 16 41 42v23h92l1 -360h-97z" />
    <glyph glyph-name="guillemotright" unicode="&#xbb;" horiz-adv-x="620" 
d="M180 97h-140l163 202l-163 202h140l161 -202zM399 97h-140l163 202l-163 202h140l161 -202z" />
    <glyph glyph-name="questiondown" unicode="&#xbf;" horiz-adv-x="461" 
d="M255 505c44 0 80 -36 80 -80c0 -45 -36 -80 -80 -80s-80 35 -80 80c0 44 36 80 80 80zM317 253c0 -55 -4 -113 -68 -177c-48 -48 -94 -66 -94 -111c0 -31 21 -60 71 -60c54 0 74 32 80 75h122c0 -89 -50 -189 -198 -189c-128 0 -197 74 -197 165c0 96 76 138 119 185
c46 50 43 98 43 138v21h122v-47z" />
    <glyph glyph-name="Agrave" unicode="&#xc0;" horiz-adv-x="668" 
d="M449 755h-106l-142 135h172zM422 700l236 -700h-144l-49 153h-262l-49 -153h-144l236 700h176zM243 277h182l-79 243h-24z" />
    <glyph glyph-name="Aacute" unicode="&#xc1;" horiz-adv-x="668" 
d="M492 890l-142 -135h-106l76 135h172zM422 700l236 -700h-144l-49 153h-262l-49 -153h-144l236 700h176zM243 277h182l-79 243h-24z" />
    <glyph glyph-name="Acircumflex" unicode="&#xc2;" horiz-adv-x="668" 
d="M324 823l-52 -68h-129l131 154h120l131 -154h-129l-52 68h-20zM422 700l236 -700h-144l-49 153h-262l-49 -153h-144l236 700h176zM243 277h182l-79 243h-24z" />
    <glyph glyph-name="Atilde" unicode="&#xc3;" horiz-adv-x="668" 
d="M263 780c-39 4 -59 -45 -59 -45l-76 49s47 123 153 104c54 -10 88 -50 122 -53c39 -3 62 46 62 46l76 -51s-47 -122 -154 -102c-55 10 -88 50 -124 52zM422 700l236 -700h-144l-49 153h-262l-49 -153h-144l236 700h176zM243 277h182l-79 243h-24z" />
    <glyph glyph-name="Adieresis" unicode="&#xc4;" horiz-adv-x="668" 
d="M214 749c-45 0 -83 37 -83 82c0 47 38 83 83 83s82 -36 82 -83c0 -45 -37 -82 -82 -82zM454 749c-45 0 -83 37 -83 82c0 47 38 83 83 83s82 -36 82 -83c0 -45 -37 -82 -82 -82zM422 700l236 -700h-144l-49 153h-262l-49 -153h-144l236 700h176zM243 277h182l-79 243h-24z
" />
    <glyph glyph-name="Aring" unicode="&#xc5;" horiz-adv-x="668" 
d="M433 668l225 -668h-144l-49 153h-262l-49 -153h-144l224 663c-15 20 -23 44 -23 70c0 66 54 120 120 120s122 -54 122 -120c0 -24 -7 -47 -20 -65zM332 765c-18 0 -31 -15 -31 -32s13 -32 31 -32c17 0 31 15 31 32s-14 32 -31 32zM243 277h182l-79 243h-24z" />
    <glyph glyph-name="AE" unicode="&#xc6;" horiz-adv-x="1040" 
d="M610 125h340v-125h-471v153h-223l-97 -153h-149l443 700h151h336v-125h-330v-158h300v-125h-300v-167zM335 277h144v201h-16z" />
    <glyph glyph-name="Ccedilla" unicode="&#xc7;" horiz-adv-x="693" 
d="M369 127c62 0 107 27 133 83h151c-35 -118 -126 -195 -240 -212l-18 -31c46 10 95 -21 95 -77c0 -50 -40 -95 -113 -95c-87 0 -118 64 -118 64l63 34s17 -29 51 -29c22 0 32 13 32 24c0 12 -9 26 -32 26c-20 0 -33 -11 -33 -11l-47 49l31 46c-161 21 -274 163 -274 352
c0 205 132 355 315 355c134 0 248 -81 288 -215h-151c-26 56 -73 83 -135 83c-114 0 -179 -93 -179 -223s66 -223 181 -223z" />
    <glyph glyph-name="Egrave" unicode="&#xc8;" 
d="M326 890l76 -135h-106l-142 135h172zM201 125h340v-125h-471v700h461v-125h-330v-158h300v-125h-300v-167z" />
    <glyph glyph-name="Eacute" unicode="&#xc9;" 
d="M313 890h172l-142 -135h-106zM201 125h340v-125h-471v700h461v-125h-330v-158h300v-125h-300v-167z" />
    <glyph glyph-name="Ecircumflex" unicode="&#xca;" 
d="M295 823l-52 -68h-129l131 154h120l131 -154h-129l-52 68h-20zM201 125h340v-125h-471v700h461v-125h-330v-158h300v-125h-300v-167z" />
    <glyph glyph-name="Edieresis" unicode="&#xcb;" 
d="M177 749c-45 0 -83 37 -83 82c0 47 38 83 83 83s82 -36 82 -83c0 -45 -37 -82 -82 -82zM417 749c-45 0 -83 37 -83 82c0 47 38 83 83 83s82 -36 82 -83c0 -45 -37 -82 -82 -82zM201 125h340v-125h-471v700h461v-125h-330v-158h300v-125h-300v-167z" />
    <glyph glyph-name="Igrave" unicode="&#xcc;" horiz-adv-x="279" 
d="M168 890l76 -135h-106l-142 135h172zM209 700v-700h-139v700h139z" />
    <glyph glyph-name="Iacute" unicode="&#xcd;" horiz-adv-x="279" 
d="M136 890h172l-142 -135h-106zM209 700v-700h-139v700h139z" />
    <glyph glyph-name="Icircumflex" unicode="&#xce;" horiz-adv-x="279" 
d="M129 823l-52 -68h-129l131 154h120l131 -154h-129l-52 68h-20zM70 0v700h139v-700h-139z" />
    <glyph glyph-name="Idieresis" unicode="&#xcf;" horiz-adv-x="279" 
d="M15 749c-45 0 -83 37 -83 82c0 47 38 83 83 83s82 -36 82 -83c0 -45 -37 -82 -82 -82zM255 749c-45 0 -83 37 -83 82c0 47 38 83 83 83s82 -36 82 -83c0 -45 -37 -82 -82 -82zM209 700v-700h-139v700h139z" />
    <glyph glyph-name="Eth" unicode="&#xd0;" horiz-adv-x="762" 
d="M342 700c184 0 350 -123 350 -350s-166 -350 -350 -350h-222v311h-90v106h90v283h222zM342 132c122 0 213 82 213 221s-91 215 -213 215h-86v-151h164v-106h-164v-179h86z" />
    <glyph glyph-name="Ntilde" unicode="&#xd1;" horiz-adv-x="692" 
d="M552 830c0 0 -47 -122 -154 -102c-55 10 -88 50 -124 52c-39 4 -59 -45 -59 -45l-76 49s47 123 153 104c54 -10 88 -50 122 -53c39 -3 62 46 62 46zM491 700h131v-700h-131l-277 452h-13v-452h-131v700h132l277 -440h12v440z" />
    <glyph glyph-name="Ograve" unicode="&#xd2;" horiz-adv-x="764" 
d="M417 890l76 -135h-106l-142 135h172zM383 -5c-184 0 -343 150 -343 355s159 355 342 355s342 -150 342 -355s-158 -355 -341 -355zM383 127c121 0 203 93 203 223s-83 223 -204 223c-120 0 -203 -93 -203 -223s83 -223 204 -223z" />
    <glyph glyph-name="Oacute" unicode="&#xd3;" horiz-adv-x="764" 
d="M409 890h172l-142 -135h-106zM383 -5c-184 0 -343 150 -343 355s159 355 342 355s342 -150 342 -355s-158 -355 -341 -355zM383 127c121 0 203 93 203 223s-83 223 -204 223c-120 0 -203 -93 -203 -223s83 -223 204 -223z" />
    <glyph glyph-name="Ocircumflex" unicode="&#xd4;" horiz-adv-x="764" 
d="M381 823l-52 -68h-129l131 154h120l131 -154h-129l-52 68h-20zM382 705c183 0 342 -150 342 -355s-158 -355 -341 -355c-184 0 -343 150 -343 355s159 355 342 355zM383 127c121 0 203 93 203 223s-83 223 -204 223c-120 0 -203 -93 -203 -223s83 -223 204 -223z" />
    <glyph glyph-name="Otilde" unicode="&#xd5;" horiz-adv-x="764" 
d="M599 830c0 0 -47 -122 -154 -102c-55 10 -88 50 -124 52c-39 4 -59 -45 -59 -45l-76 49s47 123 153 104c54 -10 88 -50 122 -53c39 -3 62 46 62 46zM383 -5c-184 0 -343 150 -343 355s159 355 342 355s342 -150 342 -355s-158 -355 -341 -355zM383 127
c121 0 203 93 203 223s-83 223 -204 223c-120 0 -203 -93 -203 -223s83 -223 204 -223z" />
    <glyph glyph-name="Odieresis" unicode="&#xd6;" horiz-adv-x="764" 
d="M266 749c-45 0 -83 37 -83 82c0 47 38 83 83 83s82 -36 82 -83c0 -45 -37 -82 -82 -82zM506 749c-45 0 -83 37 -83 82c0 47 38 83 83 83s82 -36 82 -83c0 -45 -37 -82 -82 -82zM383 -5c-184 0 -343 150 -343 355s159 355 342 355s342 -150 342 -355s-158 -355 -341 -355z
M383 127c121 0 203 93 203 223s-83 223 -204 223c-120 0 -203 -93 -203 -223s83 -223 204 -223z" />
    <glyph glyph-name="multiply" unicode="&#xd7;" horiz-adv-x="606" 
d="M546 459l-163 -163l163 -163l-80 -80l-163 163l-163 -163l-80 80l163 163l-163 163l80 80l163 -163l163 163z" />
    <glyph glyph-name="Oslash" unicode="&#xd8;" horiz-adv-x="784" 
d="M631 594c57 -62 93 -147 93 -244c0 -205 -158 -355 -341 -355c-52 0 -103 12 -148 34l-41 -58l-89 65l40 57c-64 63 -105 153 -105 257c0 205 159 355 342 355c57 0 113 -15 161 -41l45 64l91 -66zM179 350c0 -57 16 -107 44 -145l244 350c-25 12 -54 18 -85 18
c-120 0 -203 -93 -203 -223zM383 127c121 0 203 93 203 223c0 50 -12 95 -34 131l-240 -342c22 -8 45 -12 71 -12z" />
    <glyph glyph-name="Ugrave" unicode="&#xd9;" horiz-adv-x="684" 
d="M367 890l76 -135h-106l-142 135h172zM624 700v-400c0 -215 -127 -305 -281 -305s-283 90 -283 305v400h139v-390c0 -114 48 -183 144 -183s142 69 142 183v390h139z" />
    <glyph glyph-name="Uacute" unicode="&#xda;" horiz-adv-x="684" 
d="M347 890h172l-142 -135h-106zM624 700v-400c0 -215 -127 -305 -281 -305s-283 90 -283 305v400h139v-390c0 -114 48 -183 144 -183s142 69 142 183v390h139z" />
    <glyph glyph-name="Ucircumflex" unicode="&#xdb;" horiz-adv-x="684" 
d="M331 823l-52 -68h-129l131 154h120l131 -154h-129l-52 68h-20zM485 700h139v-400c0 -215 -127 -305 -281 -305s-283 90 -283 305v400h139v-390c0 -114 48 -183 144 -183s142 69 142 183v390z" />
    <glyph glyph-name="Udieresis" unicode="&#xdc;" horiz-adv-x="684" 
d="M217 749c-45 0 -83 37 -83 82c0 47 38 83 83 83s82 -36 82 -83c0 -45 -37 -82 -82 -82zM457 749c-45 0 -83 37 -83 82c0 47 38 83 83 83s82 -36 82 -83c0 -45 -37 -82 -82 -82zM624 700v-400c0 -215 -127 -305 -281 -305s-283 90 -283 305v400h139v-390
c0 -114 48 -183 144 -183s142 69 142 183v390h139z" />
    <glyph glyph-name="Yacute" unicode="&#xdd;" horiz-adv-x="639" 
d="M498 890l-142 -135h-106l76 135h172zM450 700h159l-220 -349v-351h-139v351l-220 349h158l125 -214h12z" />
    <glyph glyph-name="Thorn" unicode="&#xde;" horiz-adv-x="594" 
d="M337 587c115 0 217 -76 217 -215c0 -138 -102 -225 -217 -225h-140v-147h-127v587v113h127v-113h140zM327 270c57 0 95 44 95 102c0 59 -39 92 -95 92h-130v-194h130z" />
    <glyph glyph-name="germandbls" unicode="&#xdf;" horiz-adv-x="606" 
d="M423 369c69 -15 133 -67 133 -169c0 -122 -91 -205 -201 -205c-61 0 -107 25 -127 42l53 76s24 -13 58 -13c51 0 96 30 96 99c0 73 -51 105 -128 105h-52v116h32c56 0 91 41 91 90c0 50 -37 81 -86 81c-47 0 -95 -29 -95 -91v-500h-127v500c0 113 62 205 219 205
c138 0 213 -72 213 -173c0 -68 -33 -126 -79 -150v-13z" />
    <glyph glyph-name="agrave" unicode="&#xe0;" horiz-adv-x="569" 
d="M347 555h-88l-119 135h144zM480 168c0 -58 21 -72 59 -72v-96h-30c-58 0 -99 21 -116 64c-30 -41 -80 -69 -158 -69c-113 0 -185 58 -185 148c0 156 213 170 309 175c-2 58 -34 79 -85 79c-71 0 -76 -43 -76 -43h-125c9 89 82 151 204 151c119 0 203 -59 203 -204v-133z
M176 147c0 -76 173 -70 181 63v10c-91 -10 -181 -21 -181 -73z" />
    <glyph glyph-name="aacute" unicode="&#xe1;" horiz-adv-x="569" 
d="M429 690l-119 -135h-88l63 135h144zM480 168c0 -58 21 -72 59 -72v-96h-30c-58 0 -99 21 -116 64c-30 -41 -80 -69 -158 -69c-113 0 -185 58 -185 148c0 156 213 170 309 175c-2 58 -34 79 -85 79c-71 0 -76 -43 -76 -43h-125c9 89 82 151 204 151
c119 0 203 -59 203 -204v-133zM176 147c0 -76 173 -70 181 63v10c-91 -10 -181 -21 -181 -73z" />
    <glyph glyph-name="acircumflex" unicode="&#xe2;" horiz-adv-x="569" 
d="M267 624l-48 -68h-117l119 154h109l119 -154h-117l-48 68h-17zM480 168c0 -58 21 -72 59 -72v-96h-30c-58 0 -99 21 -116 64c-30 -41 -80 -69 -158 -69c-113 0 -185 58 -185 148c0 156 213 170 309 175c-2 58 -34 79 -85 79c-71 0 -76 -43 -76 -43h-125
c9 89 82 151 204 151c119 0 203 -59 203 -204v-133zM176 147c0 -76 173 -70 181 63v10c-91 -10 -181 -21 -181 -73z" />
    <glyph glyph-name="atilde" unicode="&#xe3;" horiz-adv-x="569" 
d="M214 584c-36 3 -54 -41 -54 -41l-69 44s43 112 139 95c49 -9 80 -46 111 -48c35 -3 56 41 56 41l69 -46s-42 -111 -140 -93c-50 9 -80 46 -112 48zM480 168c0 -58 21 -72 59 -72v-96h-30c-58 0 -99 21 -116 64c-30 -41 -80 -69 -158 -69c-113 0 -185 58 -185 148
c0 156 213 170 309 175c-2 58 -34 79 -85 79c-71 0 -76 -43 -76 -43h-125c9 89 82 151 204 151c119 0 203 -59 203 -204v-133zM176 147c0 -76 173 -70 181 63v10c-91 -10 -181 -21 -181 -73z" />
    <glyph glyph-name="adieresis" unicode="&#xe4;" horiz-adv-x="569" 
d="M180 551c-40 0 -73 33 -73 73c0 41 33 72 73 72c39 0 72 -31 72 -72c0 -40 -33 -73 -72 -73zM374 551c-39 0 -72 33 -72 73c0 41 33 72 72 72c40 0 73 -31 73 -72c0 -40 -33 -73 -73 -73zM480 168c0 -58 21 -72 59 -72v-96h-30c-58 0 -99 21 -116 64
c-30 -41 -80 -69 -158 -69c-113 0 -185 58 -185 148c0 156 213 170 309 175c-2 58 -34 79 -85 79c-71 0 -76 -43 -76 -43h-125c9 89 82 151 204 151c119 0 203 -59 203 -204v-133zM176 147c0 -76 173 -70 181 63v10c-91 -10 -181 -21 -181 -73z" />
    <glyph glyph-name="aring" unicode="&#xe5;" horiz-adv-x="569" 
d="M275 530c-55 0 -100 45 -100 100s45 100 100 100s102 -45 102 -100s-47 -100 -102 -100zM276 657c-15 0 -26 -13 -26 -27s11 -27 26 -27c14 0 26 13 26 27s-12 27 -26 27zM480 168c0 -58 21 -72 59 -72v-96h-30c-58 0 -99 21 -116 64c-30 -41 -80 -69 -158 -69
c-113 0 -185 58 -185 148c0 156 213 170 309 175c-2 58 -34 79 -85 79c-71 0 -76 -43 -76 -43h-125c9 89 82 151 204 151c119 0 203 -59 203 -204v-133zM176 147c0 -76 173 -70 181 63v10c-91 -10 -181 -21 -181 -73z" />
    <glyph glyph-name="ae" unicode="&#xe6;" horiz-adv-x="900" 
d="M607 505c128 0 258 -89 242 -293h-365c15 -76 77 -104 131 -104c68 0 97 42 97 42h126c-38 -100 -129 -155 -227 -155c-78 0 -149 34 -197 92c-28 -53 -87 -92 -179 -92c-113 0 -185 58 -185 148c0 156 213 170 309 175c-2 58 -34 79 -85 79c-71 0 -76 -43 -76 -43h-125
c9 89 82 151 204 151c68 0 125 -19 161 -63c45 41 105 63 169 63zM611 396c-55 0 -99 -31 -119 -83h225c-15 59 -56 83 -106 83zM176 147c0 -76 173 -70 181 63v10c-91 -10 -181 -21 -181 -73z" />
    <glyph glyph-name="ccedilla" unicode="&#xe7;" horiz-adv-x="587" 
d="M305 116c45 0 80 23 102 60h137c-27 -99 -103 -159 -189 -176l-24 -41c44 10 91 -20 91 -73c0 -48 -39 -91 -108 -91c-83 0 -112 61 -112 61l60 33s16 -28 48 -28c21 0 31 12 31 23s-9 25 -31 25c-19 0 -31 -11 -31 -11l-45 47l36 52c-124 16 -220 117 -220 252
c0 149 118 256 258 256c114 0 211 -71 239 -188h-136c-21 41 -58 67 -106 67c-70 0 -126 -56 -126 -134s56 -134 126 -134z" />
    <glyph glyph-name="egrave" unicode="&#xe8;" horiz-adv-x="592" 
d="M364 555h-88l-119 135h144zM299 505c128 0 258 -89 242 -293h-365c15 -76 77 -104 131 -104c68 0 97 42 97 42h126c-38 -100 -129 -155 -227 -155c-135 0 -253 103 -253 259c0 155 117 251 249 251zM303 396c-55 0 -99 -31 -119 -83h225c-15 59 -56 83 -106 83z" />
    <glyph glyph-name="eacute" unicode="&#xe9;" horiz-adv-x="592" 
d="M454 690l-119 -135h-88l63 135h144zM299 505c128 0 258 -89 242 -293h-365c15 -76 77 -104 131 -104c68 0 97 42 97 42h126c-38 -100 -129 -155 -227 -155c-135 0 -253 103 -253 259c0 155 117 251 249 251zM303 396c-55 0 -99 -31 -119 -83h225c-15 59 -56 83 -106 83z
" />
    <glyph glyph-name="ecircumflex" unicode="&#xea;" horiz-adv-x="592" 
d="M288 624l-48 -68h-117l119 154h109l119 -154h-117l-48 68h-17zM299 505c128 0 258 -89 242 -293h-365c15 -76 77 -104 131 -104c68 0 97 42 97 42h126c-38 -100 -129 -155 -227 -155c-135 0 -253 103 -253 259c0 155 117 251 249 251zM303 396c-55 0 -99 -31 -119 -83
h225c-15 59 -56 83 -106 83z" />
    <glyph glyph-name="edieresis" unicode="&#xeb;" horiz-adv-x="592" 
d="M199 551c-40 0 -73 33 -73 73c0 41 33 72 73 72c39 0 72 -31 72 -72c0 -40 -33 -73 -72 -73zM393 551c-39 0 -72 33 -72 73c0 41 33 72 72 72c40 0 73 -31 73 -72c0 -40 -33 -73 -73 -73zM299 505c128 0 258 -89 242 -293h-365c15 -76 77 -104 131 -104c68 0 97 42 97 42
h126c-38 -100 -129 -155 -227 -155c-135 0 -253 103 -253 259c0 155 117 251 249 251zM303 396c-55 0 -99 -31 -119 -83h225c-15 59 -56 83 -106 83z" />
    <glyph glyph-name="igrave" unicode="&#xec;" horiz-adv-x="248" 
d="M146 690l63 -135h-88l-119 135h144zM198 500v-500h-128v500h128z" />
    <glyph glyph-name="iacute" unicode="&#xed;" horiz-adv-x="248" 
d="M113 690h144l-119 -135h-88zM198 500v-500h-128v500h128z" />
    <glyph glyph-name="icircumflex" unicode="&#xee;" horiz-adv-x="248" 
d="M133 624h-17l-48 -68h-117l119 154h109l119 -154h-117zM70 0v500h128v-500h-128z" />
    <glyph glyph-name="idieresis" unicode="&#xef;" horiz-adv-x="248" 
d="M28 551c-40 0 -73 33 -73 73c0 41 33 72 73 72c39 0 72 -31 72 -72c0 -40 -33 -73 -72 -73zM222 551c-39 0 -72 33 -72 73c0 41 33 72 72 72c40 0 73 -31 73 -72c0 -40 -33 -73 -73 -73zM198 500v-500h-128v500h128z" />
    <glyph glyph-name="eth" unicode="&#xf0;" horiz-adv-x="600" 
d="M434 611c73 -66 116 -164 116 -310c0 -230 -111 -306 -245 -306c-125 0 -245 107 -245 255s120 255 245 255c70 0 108 -50 108 -50c-17 43 -49 78 -90 104l-130 -61l-33 71l71 33c-25 9 -51 16 -77 21l49 97c58 -13 111 -32 157 -57l115 54l33 -71zM308 111
c76 0 116 61 116 139s-40 139 -116 139s-121 -61 -121 -139s45 -139 121 -139z" />
    <glyph glyph-name="ntilde" unicode="&#xf1;" horiz-adv-x="610" 
d="M246 584c-36 3 -54 -41 -54 -41l-69 44s43 112 139 95c49 -9 80 -46 111 -48c35 -3 56 41 56 41l69 -46s-42 -111 -140 -93c-50 9 -80 46 -112 48zM358 505c129 0 192 -96 192 -234v-271h-133v241c0 17 12 143 -84 148c-47 3 -131 -23 -131 -154v-235h-132v500h102
l17 -61h17c21 25 68 66 152 66z" />
    <glyph glyph-name="ograve" unicode="&#xf2;" 
d="M314 690l63 -135h-88l-119 135h144zM304 -5c-136 0 -254 97 -254 254c0 160 124 256 258 256c135 0 253 -97 253 -254c0 -159 -122 -256 -257 -256zM308 111c76 0 122 61 122 139s-46 139 -122 139s-127 -61 -127 -139s51 -139 127 -139z" />
    <glyph glyph-name="oacute" unicode="&#xf3;" 
d="M300 690h144l-119 -135h-88zM304 -5c-136 0 -254 97 -254 254c0 160 124 256 258 256c135 0 253 -97 253 -254c0 -159 -122 -256 -257 -256zM308 111c76 0 122 61 122 139s-46 139 -122 139s-127 -61 -127 -139s51 -139 127 -139z" />
    <glyph glyph-name="ocircumflex" unicode="&#xf4;" 
d="M297 624l-48 -68h-117l119 154h109l119 -154h-117l-48 68h-17zM308 505c135 0 253 -97 253 -254c0 -159 -122 -256 -257 -256c-136 0 -254 97 -254 254c0 160 124 256 258 256zM308 111c76 0 122 61 122 139s-46 139 -122 139s-127 -61 -127 -139s51 -139 127 -139z" />
    <glyph glyph-name="otilde" unicode="&#xf5;" 
d="M493 629c0 0 -42 -111 -140 -93c-50 9 -80 46 -112 48c-36 3 -54 -41 -54 -41l-69 44s43 112 139 95c49 -9 80 -46 111 -48c35 -3 56 41 56 41zM304 -5c-136 0 -254 97 -254 254c0 160 124 256 258 256c135 0 253 -97 253 -254c0 -159 -122 -256 -257 -256zM308 111
c76 0 122 61 122 139s-46 139 -122 139s-127 -61 -127 -139s51 -139 127 -139z" />
    <glyph glyph-name="odieresis" unicode="&#xf6;" 
d="M209 551c-40 0 -73 33 -73 73c0 41 33 72 73 72c39 0 72 -31 72 -72c0 -40 -33 -73 -72 -73zM403 551c-39 0 -72 33 -72 73c0 41 33 72 72 72c40 0 73 -31 73 -72c0 -40 -33 -73 -73 -73zM304 -5c-136 0 -254 97 -254 254c0 160 124 256 258 256c135 0 253 -97 253 -254
c0 -159 -122 -256 -257 -256zM308 111c76 0 122 61 122 139s-46 139 -122 139s-127 -61 -127 -139s51 -139 127 -139z" />
    <glyph glyph-name="divide" unicode="&#xf7;" horiz-adv-x="575" 
d="M288 407c-44 0 -80 36 -80 80c0 45 36 80 80 80s80 -35 80 -80c0 -44 -36 -80 -80 -80zM50 354h475v-114h-475v114zM288 27c-44 0 -80 36 -80 80c0 45 36 80 80 80s80 -35 80 -80c0 -44 -36 -80 -80 -80z" />
    <glyph glyph-name="oslash" unicode="&#xf8;" 
d="M488 434c45 -43 73 -106 73 -183c0 -159 -122 -256 -257 -256c-38 0 -75 8 -108 22l-30 -42l-71 49l29 41c-45 44 -74 107 -74 184c0 160 124 256 258 256c38 0 74 -8 107 -22l30 43l72 -50zM181 250c0 -28 7 -54 19 -76l146 209c-12 4 -24 6 -38 6
c-76 0 -127 -61 -127 -139zM308 111c76 0 122 61 122 139c0 29 -6 55 -18 77l-146 -209c13 -5 27 -7 42 -7z" />
    <glyph glyph-name="ugrave" unicode="&#xf9;" horiz-adv-x="618" 
d="M387 555h-88l-119 135h144zM413 500h135v-500h-100l-18 56h-13c-20 -25 -64 -61 -146 -61c-133 0 -201 94 -201 234v271h136v-241c0 -62 5 -148 91 -148c44 0 116 23 116 154v235z" />
    <glyph glyph-name="uacute" unicode="&#xfa;" horiz-adv-x="618" 
d="M450 690l-119 -135h-88l63 135h144zM413 500h135v-500h-100l-18 56h-13c-20 -25 -64 -61 -146 -61c-133 0 -201 94 -201 234v271h136v-241c0 -62 5 -148 91 -148c44 0 116 23 116 154v235z" />
    <glyph glyph-name="ucircumflex" unicode="&#xfb;" horiz-adv-x="618" 
d="M301 624l-48 -68h-117l119 154h109l119 -154h-117l-48 68h-17zM413 500h135v-500h-100l-18 56h-13c-20 -25 -64 -61 -146 -61c-133 0 -201 94 -201 234v271h136v-241c0 -62 5 -148 91 -148c44 0 116 23 116 154v235z" />
    <glyph glyph-name="udieresis" unicode="&#xfc;" horiz-adv-x="618" 
d="M212 551c-40 0 -73 33 -73 73c0 41 33 72 73 72c39 0 72 -31 72 -72c0 -40 -33 -73 -72 -73zM406 551c-39 0 -72 33 -72 73c0 41 33 72 72 72c40 0 73 -31 73 -72c0 -40 -33 -73 -73 -73zM413 500h135v-500h-100l-18 56h-13c-20 -25 -64 -61 -146 -61
c-133 0 -201 94 -201 234v271h136v-241c0 -62 5 -148 91 -148c44 0 116 23 116 154v235z" />
    <glyph glyph-name="yacute" unicode="&#xfd;" horiz-adv-x="621" 
d="M457 690l-119 -135h-88l63 135h144zM447 500h134l-174 -519c-28 -83 -61 -186 -212 -186c-90 0 -137 36 -152 55l63 89c5 -5 36 -31 78 -31s70 17 81 51l14 41h-67l-172 500h139l126 -364h20z" />
    <glyph glyph-name="thorn" unicode="&#xfe;" horiz-adv-x="607" 
d="M324 505c127 0 233 -104 233 -255s-106 -255 -233 -255c-52 0 -97 18 -129 54v-249h-125v700v210h125v-244h17c29 25 66 39 112 39zM305 118c61 0 122 44 122 132s-61 132 -122 132c-65 0 -110 -49 -110 -132s45 -132 110 -132z" />
    <glyph glyph-name="ydieresis" unicode="&#xff;" horiz-adv-x="621" 
d="M215 551c-40 0 -73 33 -73 73c0 41 33 72 73 72c39 0 72 -31 72 -72c0 -40 -33 -73 -72 -73zM409 551c-39 0 -72 33 -72 73c0 41 33 72 72 72c40 0 73 -31 73 -72c0 -40 -33 -73 -73 -73zM447 500h134l-174 -519c-28 -83 -61 -186 -212 -186c-90 0 -137 36 -152 55l63 89
c5 -5 36 -31 78 -31s70 17 81 51l14 41h-67l-172 500h139l126 -364h20z" />
    <glyph glyph-name="Amacron" unicode="&#x100;" horiz-adv-x="668" 
d="M509 868v-95h-350v95h350zM422 700l236 -700h-144l-49 153h-262l-49 -153h-144l236 700h176zM243 277h182l-79 243h-24z" />
    <glyph glyph-name="amacron" unicode="&#x101;" horiz-adv-x="569" 
d="M447 660v-90h-350v90h350zM480 168c0 -58 21 -72 59 -72v-96h-30c-58 0 -99 21 -116 64c-30 -41 -80 -69 -158 -69c-113 0 -185 58 -185 148c0 156 213 170 309 175c-2 58 -34 79 -85 79c-71 0 -76 -43 -76 -43h-125c9 89 82 151 204 151c119 0 203 -59 203 -204v-133z
M176 147c0 -76 173 -70 181 63v10c-91 -10 -181 -21 -181 -73z" />
    <glyph glyph-name="Abreve" unicode="&#x102;" horiz-adv-x="668" 
d="M335 747c-84 0 -153 59 -153 133h102c0 -22 17 -46 51 -46c33 0 48 24 48 46h102c0 -74 -66 -133 -150 -133zM422 700l236 -700h-144l-49 153h-262l-49 -153h-144l236 700h176zM243 277h182l-79 243h-24z" />
    <glyph glyph-name="abreve" unicode="&#x103;" horiz-adv-x="569" 
d="M279 573c-80 0 -145 57 -145 127h97c0 -21 16 -44 48 -44s46 23 46 44h97c0 -70 -63 -127 -143 -127zM480 168c0 -58 21 -72 59 -72v-96h-30c-58 0 -99 21 -116 64c-30 -41 -80 -69 -158 -69c-113 0 -185 58 -185 148c0 156 213 170 309 175c-2 58 -34 79 -85 79
c-71 0 -76 -43 -76 -43h-125c9 89 82 151 204 151c119 0 203 -59 203 -204v-133zM176 147c0 -76 173 -70 181 63v10c-91 -10 -181 -21 -181 -73z" />
    <glyph glyph-name="Aogonek" unicode="&#x104;" horiz-adv-x="668" 
d="M669 -103l4 -84s-25 -18 -71 -18c-67 0 -121 38 -121 110c0 41 18 73 36 95h-3l-49 153h-262l-49 -153h-144l236 700h176l236 -700h-47c-15 -11 -35 -32 -35 -65c0 -56 61 -52 93 -38zM243 277h182l-79 243h-24z" />
    <glyph glyph-name="aogonek" unicode="&#x105;" horiz-adv-x="569" 
d="M577 -109l3 -80s-23 -17 -67 -17c-64 0 -115 36 -115 105c0 55 32 92 52 110c-27 10 -46 28 -57 55c-30 -41 -80 -69 -158 -69c-113 0 -185 58 -185 148c0 156 213 170 309 175c-2 58 -34 79 -85 79c-71 0 -76 -43 -76 -43h-125c9 89 82 151 204 151
c119 0 203 -59 203 -204v-133c0 -58 21 -72 59 -72v-96s-51 -21 -51 -72c0 -54 58 -50 89 -37zM176 147c0 -76 173 -70 181 63v10c-91 -10 -181 -21 -181 -73z" />
    <glyph glyph-name="Cacute" unicode="&#x106;" horiz-adv-x="693" 
d="M376 890h172l-142 -135h-106zM502 210h151c-40 -134 -152 -215 -287 -215c-183 0 -316 150 -316 355s132 355 315 355c134 0 248 -81 288 -215h-151c-26 56 -73 83 -135 83c-114 0 -179 -93 -179 -223s66 -223 181 -223c62 0 107 27 133 83z" />
    <glyph glyph-name="cacute" unicode="&#x107;" horiz-adv-x="587" 
d="M309 690h144l-119 -135h-88zM544 176c-32 -119 -135 -181 -241 -181c-139 0 -253 107 -253 254c0 149 118 256 258 256c114 0 211 -71 239 -188h-136c-21 41 -58 67 -106 67c-70 0 -126 -56 -126 -134s56 -134 126 -134c45 0 80 23 102 60h137z" />
    <glyph glyph-name="Ccircumflex" unicode="&#x108;" horiz-adv-x="693" 
d="M354 823l-52 -68h-129l131 154h120l131 -154h-129l-52 68h-20zM369 127c62 0 107 27 133 83h151c-40 -134 -152 -215 -287 -215c-183 0 -316 150 -316 355s132 355 315 355c134 0 248 -81 288 -215h-151c-26 56 -73 83 -135 83c-114 0 -179 -93 -179 -223
s66 -223 181 -223z" />
    <glyph glyph-name="ccircumflex" unicode="&#x109;" horiz-adv-x="587" 
d="M290 624l-48 -68h-117l119 154h109l119 -154h-117l-48 68h-17zM305 116c45 0 80 23 102 60h137c-32 -119 -135 -181 -241 -181c-139 0 -253 107 -253 254c0 149 118 256 258 256c114 0 211 -71 239 -188h-136c-21 41 -58 67 -106 67c-70 0 -126 -56 -126 -134
s56 -134 126 -134z" />
    <glyph glyph-name="Cdotaccent" unicode="&#x10a;" horiz-adv-x="693" 
d="M365 745c-47 0 -86 39 -86 84c0 48 39 85 86 85c46 0 84 -37 84 -85c0 -45 -38 -84 -84 -84zM502 210h151c-40 -134 -152 -215 -287 -215c-183 0 -316 150 -316 355s132 355 315 355c134 0 248 -81 288 -215h-151c-26 56 -73 83 -135 83c-114 0 -179 -93 -179 -223
s66 -223 181 -223c62 0 107 27 133 83z" />
    <glyph glyph-name="cdotaccent" unicode="&#x10b;" horiz-adv-x="587" 
d="M300 556c-47 0 -86 39 -86 84c0 48 39 85 86 85c46 0 84 -37 84 -85c0 -45 -38 -84 -84 -84zM544 176c-32 -119 -135 -181 -241 -181c-139 0 -253 107 -253 254c0 149 118 256 258 256c114 0 211 -71 239 -188h-136c-21 41 -58 67 -106 67c-70 0 -126 -56 -126 -134
s56 -134 126 -134c45 0 80 23 102 60h137z" />
    <glyph glyph-name="Ccaron" unicode="&#x10c;" horiz-adv-x="693" 
d="M418 755h-120l-131 154h129l52 -68h20l52 68h129zM369 127c62 0 107 27 133 83h151c-40 -134 -152 -215 -287 -215c-183 0 -316 150 -316 355s132 355 315 355c134 0 248 -81 288 -215h-151c-26 56 -73 83 -135 83c-114 0 -179 -93 -179 -223s66 -223 181 -223z" />
    <glyph glyph-name="ccaron" unicode="&#x10d;" horiz-adv-x="587" 
d="M353 556h-109l-119 154h117l48 -68h17l48 68h117zM305 116c45 0 80 23 102 60h137c-32 -119 -135 -181 -241 -181c-139 0 -253 107 -253 254c0 149 118 256 258 256c114 0 211 -71 239 -188h-136c-21 41 -58 67 -106 67c-70 0 -126 -56 -126 -134s56 -134 126 -134z" />
    <glyph glyph-name="Dcaron" unicode="&#x10e;" horiz-adv-x="692" 
d="M385 755h-120l-131 154h129l52 -68h20l52 68h129zM292 700c184 0 350 -123 350 -350s-166 -350 -350 -350h-222v700h222zM292 132c122 0 213 82 213 221s-91 215 -213 215h-86v-436h86z" />
    <glyph glyph-name="dcaron" unicode="&#x10f;" horiz-adv-x="774" 
d="M412 451v259h125v-710h-98l-14 48h-15c-31 -34 -73 -53 -127 -53c-127 0 -233 104 -233 255s106 255 233 255c52 0 97 -18 129 -54zM614 710h110l-36 -185h-88zM302 118c65 0 110 49 110 132s-45 132 -110 132c-61 0 -122 -44 -122 -132s61 -132 122 -132z" />
    <glyph glyph-name="Dcroat" unicode="&#x110;" horiz-adv-x="762" 
d="M342 700c184 0 350 -123 350 -350s-166 -350 -350 -350h-222v311h-90v106h90v283h222zM342 132c122 0 213 82 213 221s-91 215 -213 215h-86v-151h164v-106h-164v-179h86z" />
    <glyph glyph-name="dcroat" unicode="&#x111;" horiz-adv-x="607" 
d="M624 640v-90h-87v-550h-98l-14 48h-15c-31 -34 -73 -53 -127 -53c-127 0 -233 104 -233 255s106 255 233 255c52 0 97 -18 129 -54v99h-173v90h173v70h125v-70h87zM302 118c65 0 110 49 110 132s-45 132 -110 132c-61 0 -122 -44 -122 -132s61 -132 122 -132z" />
    <glyph glyph-name="Emacron" unicode="&#x112;" 
d="M131 868h350v-95h-350v95zM201 125h340v-125h-471v700h461v-125h-330v-158h300v-125h-300v-167z" />
    <glyph glyph-name="emacron" unicode="&#x113;" horiz-adv-x="592" 
d="M471 660v-90h-350v90h350zM299 505c128 0 258 -89 242 -293h-365c15 -76 77 -104 131 -104c68 0 97 42 97 42h126c-38 -100 -129 -155 -227 -155c-135 0 -253 103 -253 259c0 155 117 251 249 251zM303 396c-55 0 -99 -31 -119 -83h225c-15 59 -56 83 -106 83z" />
    <glyph glyph-name="Ebreve" unicode="&#x114;" 
d="M457 880c0 -74 -66 -133 -150 -133s-153 59 -153 133h102c0 -22 17 -46 51 -46c33 0 48 24 48 46h102zM201 125h340v-125h-471v700h461v-125h-330v-158h300v-125h-300v-167z" />
    <glyph glyph-name="ebreve" unicode="&#x115;" horiz-adv-x="592" 
d="M298 573c-80 0 -145 57 -145 127h97c0 -21 16 -44 48 -44s46 23 46 44h97c0 -70 -63 -127 -143 -127zM299 505c128 0 258 -89 242 -293h-365c15 -76 77 -104 131 -104c68 0 97 42 97 42h126c-38 -100 -129 -155 -227 -155c-135 0 -253 103 -253 259
c0 155 117 251 249 251zM303 396c-55 0 -99 -31 -119 -83h225c-15 59 -56 83 -106 83z" />
    <glyph glyph-name="Edotaccent" unicode="&#x116;" 
d="M307 745c-47 0 -86 39 -86 84c0 48 39 85 86 85c46 0 84 -37 84 -85c0 -45 -38 -84 -84 -84zM201 125h340v-125h-471v700h461v-125h-330v-158h300v-125h-300v-167z" />
    <glyph glyph-name="edotaccent" unicode="&#x117;" horiz-adv-x="592" 
d="M297 556c-47 0 -86 39 -86 84c0 48 39 85 86 85c46 0 84 -37 84 -85c0 -45 -38 -84 -84 -84zM299 505c128 0 258 -89 242 -293h-365c15 -76 77 -104 131 -104c68 0 97 42 97 42h126c-38 -100 -129 -155 -227 -155c-135 0 -253 103 -253 259c0 155 117 251 249 251z
M303 396c-55 0 -99 -31 -119 -83h225c-15 59 -56 83 -106 83z" />
    <glyph glyph-name="Eogonek" unicode="&#x118;" 
d="M370 0c-15 -11 -35 -32 -35 -65c0 -56 61 -52 93 -38l4 -84s-25 -18 -71 -18c-67 0 -121 38 -121 110c0 41 18 73 36 95h-206v700h461v-125h-330v-158h300v-125h-300v-167h340v-125h-171z" />
    <glyph glyph-name="eogonek" unicode="&#x119;" horiz-adv-x="592" 
d="M299 505c128 0 258 -89 242 -293h-365c15 -76 77 -104 131 -104c68 0 97 42 97 42h126c-32 -83 -100 -136 -179 -151c-8 -3 -50 -25 -50 -71c0 -54 58 -50 89 -37l3 -80s-23 -17 -67 -17c-64 0 -115 36 -115 105c0 46 23 80 43 101c-113 21 -204 117 -204 254
c0 155 117 251 249 251zM303 396c-55 0 -99 -31 -119 -83h225c-15 59 -56 83 -106 83z" />
    <glyph glyph-name="Ecaron" unicode="&#x11a;" 
d="M365 755h-120l-131 154h129l52 -68h20l52 68h129zM201 125h340v-125h-471v700h461v-125h-330v-158h300v-125h-300v-167z" />
    <glyph glyph-name="ecaron" unicode="&#x11b;" horiz-adv-x="592" 
d="M351 556h-109l-119 154h117l48 -68h17l48 68h117zM299 505c128 0 258 -89 242 -293h-365c15 -76 77 -104 131 -104c68 0 97 42 97 42h126c-38 -100 -129 -155 -227 -155c-135 0 -253 103 -253 259c0 155 117 251 249 251zM303 396c-55 0 -99 -31 -119 -83h225
c-15 59 -56 83 -106 83z" />
    <glyph glyph-name="Gcircumflex" unicode="&#x11c;" horiz-adv-x="733" 
d="M363 823l-52 -68h-129l131 154h120l131 -154h-129l-52 68h-20zM393 382h280v-382h-93l-15 59h-13c-34 -36 -86 -64 -177 -64c-187 0 -325 150 -325 356c0 204 135 354 331 354c229 0 287 -205 287 -205h-150s-31 78 -137 78c-116 0 -196 -95 -196 -228s79 -227 203 -227
c78 0 131 33 155 80v61h-150v118z" />
    <glyph glyph-name="gcircumflex" unicode="&#x11d;" horiz-adv-x="575" 
d="M280 624l-48 -68h-117l119 154h109l119 -154h-117l-48 68h-17zM349 119c110 0 165 -75 162 -159c-4 -113 -107 -165 -226 -165c-155 0 -244 89 -221 197l57 46c-32 20 -53 51 -53 88c0 41 26 70 62 89c-34 31 -51 73 -51 120c0 96 74 171 200 171c44 0 83 -9 114 -25
c54 25 85 65 85 65l62 -83s-34 -23 -80 -37c19 -26 29 -57 29 -90c0 -95 -87 -171 -213 -171c-26 0 -50 3 -71 9c-8 -5 -15 -13 -15 -25c0 -36 55 -30 89 -30h70zM284 400c-57 0 -85 -25 -85 -63s27 -66 85 -66c57 0 85 28 85 66c0 37 -28 63 -85 63zM287 -89
c65 0 101 21 101 53c0 27 -22 48 -78 48c-28 0 -67 0 -96 1l-34 -36c-6 -25 19 -66 107 -66z" />
    <glyph glyph-name="Gbreve" unicode="&#x11e;" horiz-adv-x="733" 
d="M377 741c-84 0 -153 59 -153 133h102c0 -22 17 -46 51 -46c33 0 48 24 48 46h102c0 -74 -66 -133 -150 -133zM393 382h280v-382h-93l-15 59h-13c-34 -36 -86 -64 -177 -64c-187 0 -325 150 -325 356c0 204 135 354 331 354c229 0 287 -205 287 -205h-150s-31 78 -137 78
c-116 0 -196 -95 -196 -228s79 -227 203 -227c78 0 131 33 155 80v61h-150v118z" />
    <glyph glyph-name="gbreve" unicode="&#x11f;" horiz-adv-x="575" 
d="M290 573c-80 0 -145 57 -145 127h97c0 -21 16 -44 48 -44s46 23 46 44h97c0 -70 -63 -127 -143 -127zM349 119c110 0 165 -75 162 -159c-4 -113 -107 -165 -226 -165c-155 0 -244 89 -221 197l57 46c-32 20 -53 51 -53 88c0 41 26 70 62 89c-34 31 -51 73 -51 120
c0 96 74 171 200 171c44 0 83 -9 114 -25c54 25 85 65 85 65l62 -83s-34 -23 -80 -37c19 -26 29 -57 29 -90c0 -95 -87 -171 -213 -171c-26 0 -50 3 -71 9c-8 -5 -15 -13 -15 -25c0 -36 55 -30 89 -30h70zM284 400c-57 0 -85 -25 -85 -63s27 -66 85 -66c57 0 85 28 85 66
c0 37 -28 63 -85 63zM287 -89c65 0 101 21 101 53c0 27 -22 48 -78 48c-28 0 -67 0 -96 1l-34 -36c-6 -25 19 -66 107 -66z" />
    <glyph glyph-name="Gdotaccent" unicode="&#x120;" horiz-adv-x="733" 
d="M374 745c-47 0 -86 39 -86 84c0 48 39 85 86 85c46 0 84 -37 84 -85c0 -45 -38 -84 -84 -84zM393 382h280v-382h-93l-15 59h-13c-34 -36 -86 -64 -177 -64c-187 0 -325 150 -325 356c0 204 135 354 331 354c229 0 287 -205 287 -205h-150s-31 78 -137 78
c-116 0 -196 -95 -196 -228s79 -227 203 -227c78 0 131 33 155 80v61h-150v118z" />
    <glyph glyph-name="gdotaccent" unicode="&#x121;" horiz-adv-x="575" 
d="M289 556c-47 0 -86 39 -86 84c0 48 39 85 86 85c46 0 84 -37 84 -85c0 -45 -38 -84 -84 -84zM349 119c110 0 165 -75 162 -159c-4 -113 -107 -165 -226 -165c-155 0 -244 89 -221 197l57 46c-32 20 -53 51 -53 88c0 41 26 70 62 89c-34 31 -51 73 -51 120
c0 96 74 171 200 171c44 0 83 -9 114 -25c54 25 85 65 85 65l62 -83s-34 -23 -80 -37c19 -26 29 -57 29 -90c0 -95 -87 -171 -213 -171c-26 0 -50 3 -71 9c-8 -5 -15 -13 -15 -25c0 -36 55 -30 89 -30h70zM284 400c-57 0 -85 -25 -85 -63s27 -66 85 -66c57 0 85 28 85 66
c0 37 -28 63 -85 63zM287 -89c65 0 101 21 101 53c0 27 -22 48 -78 48c-28 0 -67 0 -96 1l-34 -36c-6 -25 19 -66 107 -66z" />
    <glyph glyph-name="Gcommaaccent" unicode="&#x122;" horiz-adv-x="733" 
d="M393 382h280v-382h-93l-15 59h-13c-34 -36 -86 -64 -177 -64c-187 0 -325 150 -325 356c0 204 135 354 331 354c229 0 287 -205 287 -205h-150s-31 78 -137 78c-116 0 -196 -95 -196 -228s79 -227 203 -227c78 0 131 33 155 80v61h-150v118zM362 -44c47 0 73 -36 73 -93
c0 -116 -104 -161 -104 -161l-27 28c42 36 54 62 59 90c-32 2 -75 19 -75 68c0 42 34 68 74 68z" />
    <glyph glyph-name="gcommaaccent" unicode="&#x123;" horiz-adv-x="575" 
d="M315 548c-44 0 -69 34 -69 89c0 110 99 154 99 154l26 -27c-40 -35 -51 -59 -56 -87c30 -1 71 -18 71 -63c0 -41 -32 -66 -71 -66zM349 119c110 0 165 -75 162 -159c-4 -113 -107 -165 -226 -165c-155 0 -244 89 -221 197l57 46c-32 20 -53 51 -53 88c0 41 26 70 62 89
c-34 31 -51 73 -51 120c0 96 74 171 200 171c44 0 83 -9 114 -25c54 25 85 65 85 65l62 -83s-34 -23 -80 -37c19 -26 29 -57 29 -90c0 -95 -87 -171 -213 -171c-26 0 -50 3 -71 9c-8 -5 -15 -13 -15 -25c0 -36 55 -30 89 -30h70zM284 400c-57 0 -85 -25 -85 -63
s27 -66 85 -66c57 0 85 28 85 66c0 37 -28 63 -85 63zM287 -89c65 0 101 21 101 53c0 27 -22 48 -78 48c-28 0 -67 0 -96 1l-34 -36c-6 -25 19 -66 107 -66z" />
    <glyph glyph-name="Hcircumflex" unicode="&#x124;" horiz-adv-x="686" 
d="M332 823l-52 -68h-129l131 154h120l131 -154h-129l-52 68h-20zM481 700h135v-700h-135v291h-276v-291h-135v700h135v-282h276v282z" />
    <glyph glyph-name="Hbar" unicode="&#x126;" horiz-adv-x="686" 
d="M481 700h135v-700h-135v291h-276v-291h-135v700h135v-89l276 1v88zM205 418h276v82l-276 1v-83z" />
    <glyph glyph-name="hbar" unicode="&#x127;" horiz-adv-x="619" 
d="M358 505c129 0 191 -96 191 -234v-271h-134v241c0 49 8 148 -82 148c-44 0 -129 -23 -129 -154v-235h-134v550h-91v90h91v70h127v-70h167v-90h-167v-102h17c24 25 70 57 144 57z" />
    <glyph glyph-name="Itilde" unicode="&#x128;" horiz-adv-x="279" 
d="M345 830c0 0 -47 -122 -154 -102c-55 10 -88 50 -124 52c-39 4 -59 -45 -59 -45l-76 49s47 123 153 104c54 -10 88 -50 122 -53c39 -3 62 46 62 46zM209 700v-700h-139v700h139z" />
    <glyph glyph-name="itilde" unicode="&#x129;" horiz-adv-x="248" 
d="M312 629c0 0 -42 -111 -140 -93c-50 9 -80 46 -112 48c-36 3 -54 -41 -54 -41l-69 44s43 112 139 95c49 -9 80 -46 111 -48c35 -3 56 41 56 41zM198 500v-500h-128v500h128z" />
    <glyph glyph-name="Imacron" unicode="&#x12a;" horiz-adv-x="279" 
d="M-35 868h350v-95h-350v95zM209 700v-700h-139v700h139z" />
    <glyph glyph-name="imacron" unicode="&#x12b;" horiz-adv-x="248" 
d="M-51 660h350v-90h-350v90zM198 500v-500h-128v500h128z" />
    <glyph glyph-name="Ibreve" unicode="&#x12c;" horiz-adv-x="279" 
d="M291 880c0 -74 -66 -133 -150 -133s-153 59 -153 133h102c0 -22 17 -46 51 -46c33 0 48 24 48 46h102zM209 700v-700h-139v700h139z" />
    <glyph glyph-name="ibreve" unicode="&#x12d;" horiz-adv-x="248" 
d="M270 700c0 -70 -63 -127 -143 -127s-145 57 -145 127h97c0 -21 16 -44 48 -44s46 23 46 44h97zM198 500v-500h-128v500h128z" />
    <glyph glyph-name="Iogonek" unicode="&#x12e;" horiz-adv-x="279" 
d="M221 -103l4 -84s-25 -18 -71 -18c-67 0 -121 38 -121 110c0 42 19 75 37 97v698h139v-700h-46c-15 -11 -35 -32 -35 -65c0 -56 61 -52 93 -38z" />
    <glyph glyph-name="iogonek" unicode="&#x12f;" horiz-adv-x="290" 
d="M156 556c-47 0 -86 39 -86 84c0 48 39 85 86 85c46 0 84 -37 84 -85c0 -45 -38 -84 -84 -84zM92 21v479h128v-500h-54s-51 -21 -51 -72c0 -54 58 -50 89 -37l3 -80s-23 -17 -67 -17c-64 0 -115 36 -115 105c0 72 56 114 67 122z" />
    <glyph glyph-name="Idotaccent" unicode="&#x130;" horiz-adv-x="279" 
d="M140 745c-47 0 -86 39 -86 84c0 48 39 85 86 85c46 0 84 -37 84 -85c0 -45 -38 -84 -84 -84zM209 700v-700h-139v700h139z" />
    <glyph glyph-name="dotlessi" unicode="&#x131;" horiz-adv-x="248" 
d="M198 500v-500h-128v500h128z" />
    <glyph glyph-name="IJ" unicode="&#x132;" horiz-adv-x="836" 
d="M209 700v-700h-139v700h139zM454 210c0 -30 24 -86 88 -86c63 0 91 54 91 106v470h133v-460c0 -173 -115 -245 -228 -245c-120 0 -219 82 -219 215h135z" />
    <glyph glyph-name="ij" unicode="&#x133;" horiz-adv-x="566" 
d="M156 556c-47 0 -86 39 -86 84c0 48 39 85 86 85c46 0 84 -37 84 -85c0 -45 -38 -84 -84 -84zM434 556c-47 0 -86 39 -86 84c0 48 39 85 86 85c46 0 84 -37 84 -85c0 -45 -38 -84 -84 -84zM220 500v-500h-128v500h128zM246 -74c0 0 28 -19 58 -19c36 0 66 28 66 62v531
h126v-539c0 -101 -83 -166 -179 -166c-77 0 -119 42 -119 42z" />
    <glyph glyph-name="Jcircumflex" unicode="&#x134;" horiz-adv-x="567" 
d="M419 823l-52 -68h-129l131 154h120l131 -154h-129l-52 68h-20zM364 230v470h133v-460c0 -173 -115 -245 -228 -245c-120 0 -219 82 -219 215h135c0 -30 24 -86 88 -86c63 0 91 54 91 106z" />
    <glyph glyph-name="jcircumflex" unicode="&#x135;" horiz-adv-x="368" 
d="M310 710l119 -154h-117l-48 68h-17l-48 -68h-117l119 154h109zM172 -31v531h126v-539c0 -101 -83 -166 -179 -166c-77 0 -119 42 -119 42l48 89s28 -19 58 -19c36 0 66 28 66 62z" />
    <glyph glyph-name="Kcommaaccent" unicode="&#x136;" horiz-adv-x="650" 
d="M466 0l-204 295h-58v-295h-134v700h134v-275h56l177 275h153l-218 -340l248 -360h-154zM327 -44c47 0 73 -36 73 -93c0 -116 -104 -161 -104 -161l-27 28c42 36 54 62 59 90c-32 2 -75 19 -75 68c0 42 34 68 74 68z" />
    <glyph glyph-name="kcommaaccent" unicode="&#x137;" horiz-adv-x="570" 
d="M530 500l-198 -213l198 -287h-143l-138 197l-50 -54l-3 1v-144h-126v710h126v-380h20l161 170h153zM280 -42c44 0 69 -34 69 -89c0 -110 -99 -154 -99 -154l-26 27c40 35 51 59 56 87c-30 1 -71 18 -71 63c0 41 32 66 71 66z" />
    <glyph glyph-name="Lacute" unicode="&#x139;" horiz-adv-x="601" 
d="M304 890l-142 -135h-106l76 135h172zM210 131h341v-131h-481v700h140v-569z" />
    <glyph glyph-name="lacute" unicode="&#x13a;" horiz-adv-x="270" 
d="M264 900l-119 -135h-88l63 135h144zM70 0v710h130v-710h-130z" />
    <glyph glyph-name="Lcommaaccent" unicode="&#x13b;" horiz-adv-x="601" 
d="M210 131h341v-131h-481v700h140v-569zM300 -44c47 0 73 -36 73 -93c0 -116 -104 -161 -104 -161l-27 28c42 36 54 62 59 90c-32 2 -75 19 -75 68c0 42 34 68 74 68z" />
    <glyph glyph-name="lcommaaccent" unicode="&#x13c;" horiz-adv-x="270" 
d="M70 710h130v-710h-130v710zM126 -42c44 0 69 -34 69 -89c0 -110 -99 -154 -99 -154l-26 27c40 35 51 59 56 87c-30 1 -71 18 -71 63c0 41 32 66 71 66z" />
    <glyph glyph-name="Lcaron" unicode="&#x13d;" horiz-adv-x="601" 
d="M420 730l-66 -185h-84l28 185h122zM210 131h341v-131h-481v700h140v-569z" />
    <glyph glyph-name="lcaron" unicode="&#x13e;" horiz-adv-x="438" 
d="M70 0v710h130v-710h-130zM278 710h110l-36 -185h-88z" />
    <glyph glyph-name="Ldot" unicode="&#x13f;" horiz-adv-x="601" 
d="M210 131h341v-131h-481v700h140v-569zM376 281c-47 0 -86 39 -86 84c0 48 39 85 86 85c46 0 84 -37 84 -85c0 -45 -38 -84 -84 -84z" />
    <glyph glyph-name="ldot" unicode="&#x140;" horiz-adv-x="270" 
d="M70 0v710h130v-710h-130zM337 450c46 0 84 -37 84 -85c0 -45 -38 -84 -84 -84c-47 0 -86 39 -86 84c0 48 39 85 86 85z" />
    <glyph glyph-name="Lslash" unicode="&#x141;" horiz-adv-x="671" 
d="M280 131h341v-131h-481v260l-100 -59v127l100 59v313h140v-230l160 94v-127l-160 -94v-212z" />
    <glyph glyph-name="lslash" unicode="&#x142;" horiz-adv-x="336" 
d="M316 527v-118l-83 -50v-359h-130v282l-83 -50v118l83 50v310h130v-233z" />
    <glyph glyph-name="Nacute" unicode="&#x143;" horiz-adv-x="692" 
d="M342 890h172l-142 -135h-106zM491 700h131v-700h-131l-277 452h-13v-452h-131v700h132l277 -440h12v440z" />
    <glyph glyph-name="nacute" unicode="&#x144;" horiz-adv-x="610" 
d="M452 690l-119 -135h-88l63 135h144zM358 505c129 0 192 -96 192 -234v-271h-133v241c0 17 12 143 -84 148c-47 3 -131 -23 -131 -154v-235h-132v500h102l17 -61h17c21 25 68 66 152 66z" />
    <glyph glyph-name="Ncommaaccent" unicode="&#x145;" horiz-adv-x="692" 
d="M491 700h131v-700h-131l-277 452h-13v-452h-131v700h132l277 -440h12v440zM346 -44c47 0 73 -36 73 -93c0 -116 -104 -161 -104 -161l-27 28c42 36 54 62 59 90c-32 2 -75 19 -75 68c0 42 34 68 74 68z" />
    <glyph glyph-name="ncommaaccent" unicode="&#x146;" horiz-adv-x="610" 
d="M358 505c129 0 192 -96 192 -234v-271h-133v241c0 17 12 143 -84 148c-47 3 -131 -23 -131 -154v-235h-132v500h102l17 -61h17c21 25 68 66 152 66zM300 -42c44 0 69 -34 69 -89c0 -110 -99 -154 -99 -154l-26 27c40 35 51 59 56 87c-30 1 -71 18 -71 63
c0 41 32 66 71 66z" />
    <glyph glyph-name="Ncaron" unicode="&#x147;" horiz-adv-x="692" 
d="M406 755h-120l-131 154h129l52 -68h20l52 68h129zM491 700h131v-700h-131l-277 452h-13v-452h-131v700h132l277 -440h12v440z" />
    <glyph glyph-name="ncaron" unicode="&#x148;" horiz-adv-x="610" 
d="M366 556h-109l-119 154h117l48 -68h17l48 68h117zM358 505c129 0 192 -96 192 -234v-271h-133v241c0 17 12 143 -84 148c-47 3 -131 -23 -131 -154v-235h-132v500h102l17 -61h17c21 25 68 66 152 66z" />
    <glyph glyph-name="Eng" unicode="&#x14a;" horiz-adv-x="702" 
d="M622 12h10v-27c0 -137 -84 -188 -168 -188c-46 0 -89 15 -89 15v109s124 -47 124 64v15h-8l-277 452h-13v-452h-131v700h132l277 -440h12v440h131v-688z" />
    <glyph glyph-name="eng" unicode="&#x14b;" horiz-adv-x="610" 
d="M358 505c129 0 192 -96 192 -234v-271v-15c0 -137 -84 -188 -168 -188c-46 0 -89 15 -89 15v103s124 -47 124 70v27v229c0 17 12 143 -84 148c-47 3 -131 -23 -131 -154v-235h-132v500h102l17 -61h17c21 25 68 66 152 66z" />
    <glyph glyph-name="Omacron" unicode="&#x14c;" horiz-adv-x="764" 
d="M217 868h350v-95h-350v95zM383 -5c-184 0 -343 150 -343 355s159 355 342 355s342 -150 342 -355s-158 -355 -341 -355zM383 127c121 0 203 93 203 223s-83 223 -204 223c-120 0 -203 -93 -203 -223s83 -223 204 -223z" />
    <glyph glyph-name="omacron" unicode="&#x14d;" 
d="M131 660h350v-90h-350v90zM304 -5c-136 0 -254 97 -254 254c0 160 124 256 258 256c135 0 253 -97 253 -254c0 -159 -122 -256 -257 -256zM308 111c76 0 122 61 122 139s-46 139 -122 139s-127 -61 -127 -139s51 -139 127 -139z" />
    <glyph glyph-name="Obreve" unicode="&#x14e;" horiz-adv-x="764" 
d="M544 880c0 -74 -66 -133 -150 -133s-153 59 -153 133h102c0 -22 17 -46 51 -46c33 0 48 24 48 46h102zM383 -5c-184 0 -343 150 -343 355s159 355 342 355s342 -150 342 -355s-158 -355 -341 -355zM383 127c121 0 203 93 203 223s-83 223 -204 223
c-120 0 -203 -93 -203 -223s83 -223 204 -223z" />
    <glyph glyph-name="obreve" unicode="&#x14f;" 
d="M451 700c0 -70 -63 -127 -143 -127s-145 57 -145 127h97c0 -21 16 -44 48 -44s46 23 46 44h97zM304 -5c-136 0 -254 97 -254 254c0 160 124 256 258 256c135 0 253 -97 253 -254c0 -159 -122 -256 -257 -256zM308 111c76 0 122 61 122 139s-46 139 -122 139
s-127 -61 -127 -139s51 -139 127 -139z" />
    <glyph glyph-name="Ohungarumlaut" unicode="&#x150;" horiz-adv-x="764" 
d="M298 880h154l-124 -125h-105zM496 880h154l-124 -125h-105zM383 -5c-184 0 -343 150 -343 355s159 355 342 355s342 -150 342 -355s-158 -355 -341 -355zM383 127c121 0 203 93 203 223s-83 223 -204 223c-120 0 -203 -93 -203 -223s83 -223 204 -223z" />
    <glyph glyph-name="ohungarumlaut" unicode="&#x151;" 
d="M219 680h140l-113 -125h-95zM399 680h140l-113 -125h-95zM304 -5c-136 0 -254 97 -254 254c0 160 124 256 258 256c135 0 253 -97 253 -254c0 -159 -122 -256 -257 -256zM308 111c76 0 122 61 122 139s-46 139 -122 139s-127 -61 -127 -139s51 -139 127 -139z" />
    <glyph glyph-name="OE" unicode="&#x152;" horiz-adv-x="1137" 
d="M727 125h340v-125h-471v63c-55 -43 -125 -68 -203 -68c-184 0 -343 150 -343 355s159 355 342 355c78 0 149 -25 204 -68v63h461v-125h-330v-158h300v-125h-300v-167zM393 127c121 0 203 93 203 223s-83 223 -204 223c-120 0 -203 -93 -203 -223s83 -223 204 -223z" />
    <glyph glyph-name="oe" unicode="&#x153;" horiz-adv-x="972" 
d="M679 505c128 0 258 -89 242 -293h-365c15 -76 77 -104 131 -104c68 0 97 42 97 42h126c-38 -100 -129 -155 -227 -155c-73 0 -141 30 -188 83c-47 -53 -116 -83 -191 -83c-136 0 -254 97 -254 254c0 160 124 256 258 256c73 0 140 -28 185 -79c47 51 114 79 186 79z
M683 396c-55 0 -99 -31 -119 -83h225c-15 59 -56 83 -106 83zM308 111c76 0 122 61 122 139s-46 139 -122 139s-127 -61 -127 -139s51 -139 127 -139z" />
    <glyph glyph-name="Racute" unicode="&#x154;" horiz-adv-x="627" 
d="M457 890l-142 -135h-106l76 135h172zM577 0h-148l-149 257h-83v-257h-127v700h247c115 0 217 -77 217 -215c0 -96 -54 -169 -126 -204zM197 575v-194h110c57 0 95 44 95 102s-39 92 -95 92h-110z" />
    <glyph glyph-name="racute" unicode="&#x155;" horiz-adv-x="430" 
d="M357 690l-119 -135h-88l63 135h144zM359 505h31v-128c-10 2 -27 4 -44 4c-70 0 -143 -36 -143 -128v-253h-133v500h102l18 -55h16c22 22 71 60 153 60z" />
    <glyph glyph-name="Rcommaaccent" unicode="&#x156;" horiz-adv-x="627" 
d="M408 281l169 -281h-148l-149 257h-83v-257h-127v700h247c115 0 217 -77 217 -215c0 -96 -54 -169 -126 -204zM197 575v-194h110c57 0 95 44 95 102s-39 92 -95 92h-110zM303 -44c47 0 73 -36 73 -93c0 -116 -104 -161 -104 -161l-27 28c42 36 54 62 59 90
c-32 2 -75 19 -75 68c0 42 34 68 74 68z" />
    <glyph glyph-name="rcommaaccent" unicode="&#x157;" horiz-adv-x="430" 
d="M359 505h31v-128c-10 2 -27 4 -44 4c-70 0 -143 -36 -143 -128v-253h-133v500h102l18 -55h16c22 22 71 60 153 60zM128 -42c44 0 69 -34 69 -89c0 -110 -99 -154 -99 -154l-26 27c40 35 51 59 56 87c-30 1 -71 18 -71 63c0 41 32 66 71 66z" />
    <glyph glyph-name="Rcaron" unicode="&#x158;" horiz-adv-x="627" 
d="M350 755h-120l-131 154h129l52 -68h20l52 68h129zM577 0h-148l-149 257h-83v-257h-127v700h247c115 0 217 -77 217 -215c0 -96 -54 -169 -126 -204zM197 575v-194h110c57 0 95 44 95 102s-39 92 -95 92h-110z" />
    <glyph glyph-name="rcaron" unicode="&#x159;" horiz-adv-x="430" 
d="M286 556h-109l-119 154h117l48 -68h17l48 68h117zM206 445c22 22 71 60 153 60h31v-128c-10 2 -27 4 -44 4c-70 0 -143 -36 -143 -128v-253h-133v500h102l18 -55h16z" />
    <glyph glyph-name="Sacute" unicode="&#x15a;" horiz-adv-x="593" 
d="M304 890h172l-142 -135h-106zM543 195c0 -131 -107 -200 -234 -200c-153 0 -259 100 -259 231h130c12 -87 84 -107 128 -107c34 0 102 12 102 77c0 59 -57 83 -114 105c-94 37 -227 82 -227 215c0 118 103 190 228 190c145 0 226 -97 226 -186h-128c-7 39 -50 64 -100 64
c-48 0 -88 -24 -88 -68c0 -43 39 -60 107 -91c73 -33 229 -72 229 -230z" />
    <glyph glyph-name="sacute" unicode="&#x15b;" horiz-adv-x="508" 
d="M256 690h144l-119 -135h-88zM335 353c-4 17 -20 46 -71 46c-42 0 -60 -21 -60 -42c0 -34 45 -44 75 -50c89 -19 179 -46 179 -152c0 -103 -85 -160 -188 -160c-115 0 -204 70 -210 176h123c3 -30 23 -69 84 -69c51 0 63 27 63 48c0 37 -35 48 -69 56
c-59 13 -186 37 -186 151c0 98 94 148 191 148c112 0 186 -68 192 -152h-123z" />
    <glyph glyph-name="Scircumflex" unicode="&#x15c;" horiz-adv-x="593" 
d="M286 823l-52 -68h-129l131 154h120l131 -154h-129l-52 68h-20zM314 425c73 -33 229 -72 229 -230c0 -131 -107 -200 -234 -200c-153 0 -259 100 -259 231h130c12 -87 84 -107 128 -107c34 0 102 12 102 77c0 59 -57 83 -114 105c-94 37 -227 82 -227 215
c0 118 103 190 228 190c145 0 226 -97 226 -186h-128c-7 39 -50 64 -100 64c-48 0 -88 -24 -88 -68c0 -43 39 -60 107 -91z" />
    <glyph glyph-name="scircumflex" unicode="&#x15d;" horiz-adv-x="508" 
d="M251 624l-48 -68h-117l119 154h109l119 -154h-117l-48 68h-17zM279 307c89 -19 179 -46 179 -152c0 -103 -85 -160 -188 -160c-115 0 -204 70 -210 176h123c3 -30 23 -69 84 -69c51 0 63 27 63 48c0 37 -35 48 -69 56c-59 13 -186 37 -186 151c0 98 94 148 191 148
c112 0 186 -68 192 -152h-123c-4 17 -20 46 -71 46c-42 0 -60 -21 -60 -42c0 -34 45 -44 75 -50z" />
    <glyph glyph-name="Scedilla" unicode="&#x15e;" horiz-adv-x="593" 
d="M543 195c0 -117 -85 -184 -193 -198l-18 -30c46 10 95 -21 95 -77c0 -50 -40 -95 -113 -95c-87 0 -118 64 -118 64l63 34s17 -29 51 -29c22 0 32 13 32 24c0 12 -9 26 -32 26c-20 0 -33 -11 -33 -11l-47 49l32 46c-127 19 -212 111 -212 228h130c12 -87 84 -107 128 -107
c34 0 102 12 102 77c0 59 -57 83 -114 105c-94 37 -227 82 -227 215c0 118 103 190 228 190c145 0 226 -97 226 -186h-128c-7 39 -50 64 -100 64c-48 0 -88 -24 -88 -68c0 -43 39 -60 107 -91c73 -33 229 -72 229 -230z" />
    <glyph glyph-name="scedilla" unicode="&#x15f;" horiz-adv-x="508" 
d="M279 307c89 -19 179 -46 179 -152c0 -88 -62 -143 -145 -156l-23 -40c44 10 91 -20 91 -73c0 -48 -39 -91 -108 -91c-83 0 -112 61 -112 61l60 33s16 -28 48 -28c21 0 31 12 31 23s-9 25 -31 25c-19 0 -31 -11 -31 -11l-45 47l36 53c-94 15 -164 80 -169 173h123
c3 -30 23 -69 84 -69c51 0 63 27 63 48c0 37 -35 48 -69 56c-59 13 -186 37 -186 151c0 98 94 148 191 148c112 0 186 -68 192 -152h-123c-4 17 -20 46 -71 46c-42 0 -60 -21 -60 -42c0 -34 45 -44 75 -50z" />
    <glyph glyph-name="Scaron" unicode="&#x160;" horiz-adv-x="593" 
d="M357 755h-120l-131 154h129l52 -68h20l52 68h129zM314 425c73 -33 229 -72 229 -230c0 -131 -107 -200 -234 -200c-153 0 -259 100 -259 231h130c12 -87 84 -107 128 -107c34 0 102 12 102 77c0 59 -57 83 -114 105c-94 37 -227 82 -227 215c0 118 103 190 228 190
c145 0 226 -97 226 -186h-128c-7 39 -50 64 -100 64c-48 0 -88 -24 -88 -68c0 -43 39 -60 107 -91z" />
    <glyph glyph-name="scaron" unicode="&#x161;" horiz-adv-x="508" 
d="M314 556h-109l-119 154h117l48 -68h17l48 68h117zM279 307c89 -19 179 -46 179 -152c0 -103 -85 -160 -188 -160c-115 0 -204 70 -210 176h123c3 -30 23 -69 84 -69c51 0 63 27 63 48c0 37 -35 48 -69 56c-59 13 -186 37 -186 151c0 98 94 148 191 148
c112 0 186 -68 192 -152h-123c-4 17 -20 46 -71 46c-42 0 -60 -21 -60 -42c0 -34 45 -44 75 -50z" />
    <glyph glyph-name="uni0162" unicode="&#x162;" horiz-adv-x="552" 
d="M343 0h-49l-19 -33c46 10 95 -21 95 -77c0 -50 -40 -95 -113 -95c-87 0 -118 64 -118 64l63 34s17 -29 51 -29c22 0 32 13 32 24c0 12 -9 26 -32 26c-20 0 -33 -11 -33 -11l-47 49l36 53v571h-189v124h512v-124h-189v-576z" />
    <glyph glyph-name="uni0163" unicode="&#x163;" horiz-adv-x="498" 
d="M322 -41c44 10 91 -20 91 -73c0 -48 -39 -91 -108 -91c-83 0 -112 61 -112 61l60 33s16 -28 48 -28c21 0 31 12 31 23s-9 25 -31 25c-19 0 -31 -11 -31 -11l-45 47l41 60c-67 22 -116 78 -116 156v232h-100v98h50c34 0 57 23 57 59v100h121v-150h126v-107h-126v-224
c0 -34 28 -60 64 -60c30 0 58 17 58 17l48 -89s-37 -37 -105 -42z" />
    <glyph glyph-name="Tcaron" unicode="&#x164;" horiz-adv-x="552" 
d="M335 755h-120l-131 154h129l52 -68h20l52 68h129zM532 700v-124h-189v-576h-134v576h-189v124h512z" />
    <glyph glyph-name="tcaron" unicode="&#x165;" horiz-adv-x="537" 
d="M477 710l-56 -145h-84l34 145h106zM342 109c30 0 58 17 58 17l48 -89s-42 -42 -119 -42c-96 0 -179 65 -179 166v232h-100v98h50c34 0 57 23 57 59v100h121v-150h126v-107h-126v-224c0 -34 28 -60 64 -60z" />
    <glyph glyph-name="Tbar" unicode="&#x166;" horiz-adv-x="552" 
d="M532 576h-189v-96h120v-107h-120v-373h-134v373h-120v107h120v96h-189v124h512v-124z" />
    <glyph glyph-name="tbar" unicode="&#x167;" horiz-adv-x="498" 
d="M400 126l48 -89s-42 -42 -119 -42c-96 0 -179 65 -179 166v72h-100v97h100v63h-100v98h50c34 0 57 23 57 59v100h121v-150h126v-107h-126v-63h126v-97h-126v-64c0 -34 28 -60 64 -60c30 0 58 17 58 17z" />
    <glyph glyph-name="Utilde" unicode="&#x168;" horiz-adv-x="684" 
d="M548 830c0 0 -47 -122 -154 -102c-55 10 -88 50 -124 52c-39 4 -59 -45 -59 -45l-76 49s47 123 153 104c54 -10 88 -50 122 -53c39 -3 62 46 62 46zM624 700v-400c0 -215 -127 -305 -281 -305s-283 90 -283 305v400h139v-390c0 -114 48 -183 144 -183s142 69 142 183v390
h139z" />
    <glyph glyph-name="utilde" unicode="&#x169;" horiz-adv-x="618" 
d="M245 584c-36 3 -54 -41 -54 -41l-69 44s43 112 139 95c49 -9 80 -46 111 -48c35 -3 56 41 56 41l69 -46s-42 -111 -140 -93c-50 9 -80 46 -112 48zM413 500h135v-500h-100l-18 56h-13c-20 -25 -64 -61 -146 -61c-133 0 -201 94 -201 234v271h136v-241
c0 -62 5 -148 91 -148c44 0 116 23 116 154v235z" />
    <glyph glyph-name="Umacron" unicode="&#x16a;" horiz-adv-x="684" 
d="M167 868h350v-95h-350v95zM624 700v-400c0 -215 -127 -305 -281 -305s-283 90 -283 305v400h139v-390c0 -114 48 -183 144 -183s142 69 142 183v390h139z" />
    <glyph glyph-name="umacron" unicode="&#x16b;" horiz-adv-x="618" 
d="M484 660v-90h-350v90h350zM413 500h135v-500h-100l-18 56h-13c-20 -25 -64 -61 -146 -61c-133 0 -201 94 -201 234v271h136v-241c0 -62 5 -148 91 -148c44 0 116 23 116 154v235z" />
    <glyph glyph-name="Ubreve" unicode="&#x16c;" horiz-adv-x="684" 
d="M494 880c0 -74 -66 -133 -150 -133s-153 59 -153 133h102c0 -22 17 -46 51 -46c33 0 48 24 48 46h102zM624 700v-400c0 -215 -127 -305 -281 -305s-283 90 -283 305v400h139v-390c0 -114 48 -183 144 -183s142 69 142 183v390h139z" />
    <glyph glyph-name="ubreve" unicode="&#x16d;" horiz-adv-x="618" 
d="M311 573c-80 0 -145 57 -145 127h97c0 -21 16 -44 48 -44s46 23 46 44h97c0 -70 -63 -127 -143 -127zM413 500h135v-500h-100l-18 56h-13c-20 -25 -64 -61 -146 -61c-133 0 -201 94 -201 234v271h136v-241c0 -62 5 -148 91 -148c44 0 116 23 116 154v235z" />
    <glyph glyph-name="Uring" unicode="&#x16e;" horiz-adv-x="684" 
d="M340 680c-66 0 -120 54 -120 120s54 120 120 120s122 -54 122 -120s-56 -120 -122 -120zM341 768c17 0 31 15 31 32s-14 32 -31 32c-18 0 -31 -15 -31 -32s13 -32 31 -32zM624 700v-400c0 -215 -127 -305 -281 -305s-283 90 -283 305v400h139v-390
c0 -114 48 -183 144 -183s142 69 142 183v390h139z" />
    <glyph glyph-name="uring" unicode="&#x16f;" horiz-adv-x="618" 
d="M308 530c-55 0 -100 45 -100 100s45 100 100 100s102 -45 102 -100s-47 -100 -102 -100zM309 657c-15 0 -26 -13 -26 -27s11 -27 26 -27c14 0 26 13 26 27s-12 27 -26 27zM413 500h135v-500h-100l-18 56h-13c-20 -25 -64 -61 -146 -61c-133 0 -201 94 -201 234v271h136
v-241c0 -62 5 -148 91 -148c44 0 116 23 116 154v235z" />
    <glyph glyph-name="Uhungarumlaut" unicode="&#x170;" horiz-adv-x="684" 
d="M243 880h154l-124 -125h-105zM441 880h154l-124 -125h-105zM624 700v-400c0 -215 -127 -305 -281 -305s-283 90 -283 305v400h139v-390c0 -114 48 -183 144 -183s142 69 142 183v390h139z" />
    <glyph glyph-name="uhungarumlaut" unicode="&#x171;" horiz-adv-x="618" 
d="M352 680l-113 -125h-95l68 125h140zM419 555h-95l68 125h140zM413 500h135v-500h-100l-18 56h-13c-20 -25 -64 -61 -146 -61c-133 0 -201 94 -201 234v271h136v-241c0 -62 5 -148 91 -148c44 0 116 23 116 154v235z" />
    <glyph glyph-name="Uogonek" unicode="&#x172;" horiz-adv-x="684" 
d="M485 700h139v-400c0 -190 -99 -282 -228 -301c-16 -12 -34 -33 -34 -64c0 -56 61 -52 93 -38l4 -84s-25 -18 -71 -18c-67 0 -121 38 -121 110c0 40 16 71 34 92c-135 16 -241 108 -241 303v400h139v-390c0 -114 48 -183 144 -183s142 69 142 183v390z" />
    <glyph glyph-name="uogonek" unicode="&#x173;" horiz-adv-x="618" 
d="M584 -109l3 -80s-23 -17 -67 -17c-64 0 -115 36 -115 105c0 47 23 81 43 101l-18 56h-13c-20 -25 -64 -61 -146 -61c-133 0 -201 94 -201 234v271h136v-241c0 -62 5 -148 91 -148c44 0 116 23 116 154v235h135v-500h-2s-51 -21 -51 -72c0 -54 58 -50 89 -37z" />
    <glyph glyph-name="Wcircumflex" unicode="&#x174;" horiz-adv-x="963" 
d="M466 823l-52 -68h-129l131 154h120l131 -154h-129l-52 68h-20zM791 700h137l-148 -700h-209l-80 452h-21l-88 -452h-209l-138 700h137l102 -547h21l98 497h177l91 -497h21z" />
    <glyph glyph-name="wcircumflex" unicode="&#x175;" horiz-adv-x="850" 
d="M422 624l-48 -68h-117l119 154h109l119 -154h-117l-48 68h-17zM667 500h128l-119 -500h-176l-68 292h-14l-68 -292h-176l-119 500h128l77 -349h17l69 309h158l70 -309h16z" />
    <glyph glyph-name="Ycircumflex" unicode="&#x176;" horiz-adv-x="639" 
d="M306 823l-52 -68h-129l131 154h120l131 -154h-129l-52 68h-20zM450 700h159l-220 -349v-351h-139v351l-220 349h158l125 -214h12z" />
    <glyph glyph-name="ycircumflex" unicode="&#x177;" horiz-adv-x="621" 
d="M300 624l-48 -68h-117l119 154h109l119 -154h-117l-48 68h-17zM447 500h134l-174 -519c-28 -83 -61 -186 -212 -186c-90 0 -137 36 -152 55l63 89c5 -5 36 -31 78 -31s70 17 81 51l14 41h-67l-172 500h139l126 -364h20z" />
    <glyph glyph-name="Ydieresis" unicode="&#x178;" horiz-adv-x="639" 
d="M191 749c-45 0 -83 37 -83 82c0 47 38 83 83 83s82 -36 82 -83c0 -45 -37 -82 -82 -82zM431 749c-45 0 -83 37 -83 82c0 47 38 83 83 83s82 -36 82 -83c0 -45 -37 -82 -82 -82zM450 700h159l-220 -349v-351h-139v351l-220 349h158l125 -214h12z" />
    <glyph glyph-name="Zacute" unicode="&#x179;" 
d="M493 890l-142 -135h-106l76 135h172zM232 131h329v-131h-511v102l324 468h-304v130h481v-101z" />
    <glyph glyph-name="zacute" unicode="&#x17a;" horiz-adv-x="545" 
d="M419 690l-119 -135h-88l63 135h144zM234 112h251v-112h-425v66l241 322h-231v112h405v-66z" />
    <glyph glyph-name="Zdotaccent" unicode="&#x17b;" 
d="M307 745c-47 0 -86 39 -86 84c0 48 39 85 86 85c46 0 84 -37 84 -85c0 -45 -38 -84 -84 -84zM232 131h329v-131h-511v102l324 468h-304v130h481v-101z" />
    <glyph glyph-name="zdotaccent" unicode="&#x17c;" horiz-adv-x="545" 
d="M272 556c-47 0 -86 39 -86 84c0 48 39 85 86 85c46 0 84 -37 84 -85c0 -45 -38 -84 -84 -84zM234 112h251v-112h-425v66l241 322h-231v112h405v-66z" />
    <glyph glyph-name="Zcaron" unicode="&#x17d;" 
d="M365 755h-120l-131 154h129l52 -68h20l52 68h129zM232 131h329v-131h-511v102l324 468h-304v130h481v-101z" />
    <glyph glyph-name="zcaron" unicode="&#x17e;" horiz-adv-x="545" 
d="M325 556h-109l-119 154h117l48 -68h17l48 68h117zM234 112h251v-112h-425v66l241 322h-231v112h405v-66z" />
    <glyph glyph-name="florin" unicode="&#x192;" horiz-adv-x="556" 
d="M445 602c-32 0 -62 -15 -69 -58l-17 -105h95l-17 -101h-94l-70 -420c-15 -79 -77 -123 -165 -123c-53 0 -88 16 -88 16l23 105s22 -8 51 -8c23 0 60 5 68 48l64 382h-96l17 101h95l23 143c12 71 77 123 165 123c49 0 86 -16 86 -16l-20 -96s-26 9 -51 9z" />
    <glyph glyph-name="uni01CD" unicode="&#x1cd;" horiz-adv-x="668" 
d="M394 755h-120l-131 154h129l52 -68h20l52 68h129zM422 700l236 -700h-144l-49 153h-262l-49 -153h-144l236 700h176zM243 277h182l-79 243h-24z" />
    <glyph glyph-name="uni01CE" unicode="&#x1ce;" horiz-adv-x="569" 
d="M332 556h-109l-119 154h117l48 -68h17l48 68h117zM480 168c0 -58 21 -72 59 -72v-96h-30c-58 0 -99 21 -116 64c-30 -41 -80 -69 -158 -69c-113 0 -185 58 -185 148c0 156 213 170 309 175c-2 58 -34 79 -85 79c-71 0 -76 -43 -76 -43h-125c9 89 82 151 204 151
c119 0 203 -59 203 -204v-133zM176 147c0 -76 173 -70 181 63v10c-91 -10 -181 -21 -181 -73z" />
    <glyph glyph-name="uni01CF" unicode="&#x1cf;" horiz-adv-x="279" 
d="M199 755h-120l-131 154h129l52 -68h20l52 68h129zM70 0v700h139v-700h-139z" />
    <glyph glyph-name="uni01D0" unicode="&#x1d0;" horiz-adv-x="248" 
d="M180 556h-109l-119 154h117l48 -68h17l48 68h117zM70 0v500h128v-500h-128z" />
    <glyph glyph-name="uni01D1" unicode="&#x1d1;" horiz-adv-x="764" 
d="M451 755h-120l-131 154h129l52 -68h20l52 68h129zM382 705c183 0 342 -150 342 -355s-158 -355 -341 -355c-184 0 -343 150 -343 355s159 355 342 355zM383 127c121 0 203 93 203 223s-83 223 -204 223c-120 0 -203 -93 -203 -223s83 -223 204 -223z" />
    <glyph glyph-name="uni01D2" unicode="&#x1d2;" 
d="M360 556h-109l-119 154h117l48 -68h17l48 68h117zM308 505c135 0 253 -97 253 -254c0 -159 -122 -256 -257 -256c-136 0 -254 97 -254 254c0 160 124 256 258 256zM308 111c76 0 122 61 122 139s-46 139 -122 139s-127 -61 -127 -139s51 -139 127 -139z" />
    <glyph glyph-name="uni01D3" unicode="&#x1d3;" horiz-adv-x="684" 
d="M401 755h-120l-131 154h129l52 -68h20l52 68h129zM485 700h139v-400c0 -215 -127 -305 -281 -305s-283 90 -283 305v400h139v-390c0 -114 48 -183 144 -183s142 69 142 183v390z" />
    <glyph glyph-name="uni01D4" unicode="&#x1d4;" horiz-adv-x="618" 
d="M364 556h-109l-119 154h117l48 -68h17l48 68h117zM413 500h135v-500h-100l-18 56h-13c-20 -25 -64 -61 -146 -61c-133 0 -201 94 -201 234v271h136v-241c0 -62 5 -148 91 -148c44 0 116 23 116 154v235z" />
    <glyph glyph-name="uni01E2" unicode="&#x1e2;" horiz-adv-x="1040" 
d="M876 868v-95h-350v95h350zM610 125h340v-125h-471v153h-223l-97 -153h-149l443 700h151h336v-125h-330v-158h300v-125h-300v-167zM335 277h144v201h-16z" />
    <glyph glyph-name="uni01E3" unicode="&#x1e3;" horiz-adv-x="900" 
d="M625 660v-90h-350v90h350zM607 505c128 0 258 -89 242 -293h-365c15 -76 77 -104 131 -104c68 0 97 42 97 42h126c-38 -100 -129 -155 -227 -155c-78 0 -149 34 -197 92c-28 -53 -87 -92 -179 -92c-113 0 -185 58 -185 148c0 156 213 170 309 175c-2 58 -34 79 -85 79
c-71 0 -76 -43 -76 -43h-125c9 89 82 151 204 151c68 0 125 -19 161 -63c45 41 105 63 169 63zM611 396c-55 0 -99 -31 -119 -83h225c-15 59 -56 83 -106 83zM176 147c0 -76 173 -70 181 63v10c-91 -10 -181 -21 -181 -73z" />
    <glyph glyph-name="Gcaron" unicode="&#x1e6;" horiz-adv-x="733" 
d="M433 755h-120l-131 154h129l52 -68h20l52 68h129zM393 382h280v-382h-93l-15 59h-13c-34 -36 -86 -64 -177 -64c-187 0 -325 150 -325 356c0 204 135 354 331 354c229 0 287 -205 287 -205h-150s-31 78 -137 78c-116 0 -196 -95 -196 -228s79 -227 203 -227
c78 0 131 33 155 80v61h-150v118z" />
    <glyph glyph-name="gcaron" unicode="&#x1e7;" horiz-adv-x="575" 
d="M341 556h-109l-119 154h117l48 -68h17l48 68h117zM349 119c110 0 165 -75 162 -159c-4 -113 -107 -165 -226 -165c-155 0 -244 89 -221 197l57 46c-32 20 -53 51 -53 88c0 41 26 70 62 89c-34 31 -51 73 -51 120c0 96 74 171 200 171c44 0 83 -9 114 -25
c54 25 85 65 85 65l62 -83s-34 -23 -80 -37c19 -26 29 -57 29 -90c0 -95 -87 -171 -213 -171c-26 0 -50 3 -71 9c-8 -5 -15 -13 -15 -25c0 -36 55 -30 89 -30h70zM284 400c-57 0 -85 -25 -85 -63s27 -66 85 -66c57 0 85 28 85 66c0 37 -28 63 -85 63zM287 -89
c65 0 101 21 101 53c0 27 -22 48 -78 48c-28 0 -67 0 -96 1l-34 -36c-6 -25 19 -66 107 -66z" />
    <glyph glyph-name="uni01E8" unicode="&#x1e8;" horiz-adv-x="650" 
d="M381 755h-120l-131 154h129l52 -68h20l52 68h129zM372 360l248 -360h-154l-204 295h-58v-295h-134v700h134v-275h56l177 275h153z" />
    <glyph glyph-name="uni01EA" unicode="&#x1ea;" horiz-adv-x="764" 
d="M454 3c-16 -11 -39 -33 -39 -68c0 -56 61 -52 93 -38l4 -84s-25 -18 -71 -18c-67 0 -121 38 -121 110c0 39 16 70 33 91c-171 16 -313 160 -313 354c0 205 159 355 342 355s342 -150 342 -355c0 -178 -119 -314 -270 -347zM179 350c0 -130 83 -223 204 -223
s203 93 203 223s-83 223 -204 223c-120 0 -203 -93 -203 -223z" />
    <glyph glyph-name="uni01EB" unicode="&#x1eb;" 
d="M351 -1c-10 -5 -49 -27 -49 -71c0 -54 58 -50 89 -37l3 -80s-23 -17 -67 -17c-64 0 -115 36 -115 105c0 46 23 80 42 100c-113 21 -204 112 -204 250c0 160 124 256 258 256c135 0 253 -97 253 -254c0 -140 -95 -232 -210 -252zM181 250c0 -78 51 -139 127 -139
s122 61 122 139s-46 139 -122 139s-127 -61 -127 -139z" />
    <glyph glyph-name="uni01F4" unicode="&#x1f4;" horiz-adv-x="733" 
d="M564 890l-142 -135h-106l76 135h172zM393 382h280v-382h-93l-15 59h-13c-34 -36 -86 -64 -177 -64c-187 0 -325 150 -325 356c0 204 135 354 331 354c229 0 287 -205 287 -205h-150s-31 78 -137 78c-116 0 -196 -95 -196 -228s79 -227 203 -227c78 0 131 33 155 80v61
h-150v118z" />
    <glyph glyph-name="uni01F5" unicode="&#x1f5;" horiz-adv-x="575" 
d="M449 690l-119 -135h-88l63 135h144zM349 119c110 0 165 -75 162 -159c-4 -113 -107 -165 -226 -165c-155 0 -244 89 -221 197l57 46c-32 20 -53 51 -53 88c0 41 26 70 62 89c-34 31 -51 73 -51 120c0 96 74 171 200 171c44 0 83 -9 114 -25c54 25 85 65 85 65l62 -83
s-34 -23 -80 -37c19 -26 29 -57 29 -90c0 -95 -87 -171 -213 -171c-26 0 -50 3 -71 9c-8 -5 -15 -13 -15 -25c0 -36 55 -30 89 -30h70zM284 400c-57 0 -85 -25 -85 -63s27 -66 85 -66c57 0 85 28 85 66c0 37 -28 63 -85 63zM287 -89c65 0 101 21 101 53c0 27 -22 48 -78 48
c-28 0 -67 0 -96 1l-34 -36c-6 -25 19 -66 107 -66z" />
    <glyph glyph-name="uni01F8" unicode="&#x1f8;" horiz-adv-x="692" 
d="M363 890l76 -135h-106l-142 135h172zM491 700h131v-700h-131l-277 452h-13v-452h-131v700h132l277 -440h12v440z" />
    <glyph glyph-name="uni01F9" unicode="&#x1f9;" horiz-adv-x="610" 
d="M396 555h-88l-119 135h144zM358 505c129 0 192 -96 192 -234v-271h-133v241c0 17 12 143 -84 148c-47 3 -131 -23 -131 -154v-235h-132v500h102l17 -61h17c21 25 68 66 152 66z" />
    <glyph glyph-name="AEacute" unicode="&#x1fc;" horiz-adv-x="1040" 
d="M867 890l-142 -135h-106l76 135h172zM610 125h340v-125h-471v153h-223l-97 -153h-149l443 700h151h336v-125h-330v-158h300v-125h-300v-167zM335 277h144v201h-16z" />
    <glyph glyph-name="aeacute" unicode="&#x1fd;" horiz-adv-x="900" 
d="M600 690l-119 -135h-88l63 135h144zM607 505c128 0 258 -89 242 -293h-365c15 -76 77 -104 131 -104c68 0 97 42 97 42h126c-38 -100 -129 -155 -227 -155c-78 0 -149 34 -197 92c-28 -53 -87 -92 -179 -92c-113 0 -185 58 -185 148c0 156 213 170 309 175
c-2 58 -34 79 -85 79c-71 0 -76 -43 -76 -43h-125c9 89 82 151 204 151c68 0 125 -19 161 -63c45 41 105 63 169 63zM611 396c-55 0 -99 -31 -119 -83h225c-15 59 -56 83 -106 83zM176 147c0 -76 173 -70 181 63v10c-91 -10 -181 -21 -181 -73z" />
    <glyph glyph-name="Scommaaccent" unicode="&#x218;" horiz-adv-x="593" 
d="M543 195c0 -131 -107 -200 -234 -200c-153 0 -259 100 -259 231h130c12 -87 84 -107 128 -107c34 0 102 12 102 77c0 59 -57 83 -114 105c-94 37 -227 82 -227 215c0 118 103 190 228 190c145 0 226 -97 226 -186h-128c-7 39 -50 64 -100 64c-48 0 -88 -24 -88 -68
c0 -43 39 -60 107 -91c73 -33 229 -72 229 -230zM300 -44c47 0 73 -36 73 -93c0 -116 -104 -161 -104 -161l-27 28c42 36 54 62 59 90c-32 2 -75 19 -75 68c0 42 34 68 74 68z" />
    <glyph glyph-name="scommaaccent" unicode="&#x219;" horiz-adv-x="508" 
d="M335 353c-4 17 -20 46 -71 46c-42 0 -60 -21 -60 -42c0 -34 45 -44 75 -50c89 -19 179 -46 179 -152c0 -103 -85 -160 -188 -160c-115 0 -204 70 -210 176h123c3 -30 23 -69 84 -69c51 0 63 27 63 48c0 37 -35 48 -69 56c-59 13 -186 37 -186 151c0 98 94 148 191 148
c112 0 186 -68 192 -152h-123zM271 -37c44 0 69 -34 69 -89c0 -110 -99 -154 -99 -154l-26 27c40 35 51 59 56 87c-30 1 -71 18 -71 63c0 41 32 66 71 66z" />
    <glyph glyph-name="uni021A" unicode="&#x21a;" horiz-adv-x="552" 
d="M20 700h512v-124h-189v-576h-134v576h-189v124zM271 -44c47 0 73 -36 73 -93c0 -116 -104 -161 -104 -161l-27 28c42 36 54 62 59 90c-32 2 -75 19 -75 68c0 42 34 68 74 68z" />
    <glyph glyph-name="uni021B" unicode="&#x21b;" horiz-adv-x="498" 
d="M448 37c0 0 -42 -42 -119 -42c-96 0 -179 65 -179 166v232h-100v98h50c34 0 57 23 57 59v100h121v-150h126v-107h-126v-224c0 -34 28 -60 64 -60c30 0 58 17 58 17zM311 -42c44 0 69 -34 69 -89c0 -110 -99 -154 -99 -154l-26 27c40 35 51 59 56 87c-30 1 -71 18 -71 63
c0 41 32 66 71 66z" />
    <glyph glyph-name="uni021E" unicode="&#x21e;" horiz-adv-x="686" 
d="M402 755h-120l-131 154h129l52 -68h20l52 68h129zM481 700h135v-700h-135v291h-276v-291h-135v700h135v-282h276v282z" />
    <glyph glyph-name="uni0226" unicode="&#x226;" horiz-adv-x="668" 
d="M335 745c-47 0 -86 39 -86 84c0 48 39 85 86 85c46 0 84 -37 84 -85c0 -45 -38 -84 -84 -84zM422 700l236 -700h-144l-49 153h-262l-49 -153h-144l236 700h176zM243 277h182l-79 243h-24z" />
    <glyph glyph-name="uni0228" unicode="&#x228;" 
d="M541 0h-189l-19 -33c46 10 95 -21 95 -77c0 -50 -40 -95 -113 -95c-87 0 -118 64 -118 64l63 34s17 -29 51 -29c22 0 32 13 32 24c0 12 -9 26 -32 26c-20 0 -33 -11 -33 -11l-47 49l33 48h-194v700h461v-125h-330v-158h300v-125h-300v-167h340v-125z" />
    <glyph glyph-name="uni0229" unicode="&#x229;" horiz-adv-x="592" 
d="M299 505c128 0 258 -89 242 -293h-365c15 -76 77 -104 131 -104c68 0 97 42 97 42h126c-32 -85 -103 -138 -184 -151l-23 -40c44 10 91 -20 91 -73c0 -48 -39 -91 -108 -91c-83 0 -112 61 -112 61l60 33s16 -28 48 -28c21 0 31 12 31 23s-9 25 -31 25
c-19 0 -31 -11 -31 -11l-45 47l36 53c-117 19 -212 116 -212 256c0 155 117 251 249 251zM303 396c-55 0 -99 -31 -119 -83h225c-15 59 -56 83 -106 83z" />
    <glyph glyph-name="uni022E" unicode="&#x22e;" horiz-adv-x="764" 
d="M393 745c-47 0 -86 39 -86 84c0 48 39 85 86 85c46 0 84 -37 84 -85c0 -45 -38 -84 -84 -84zM383 -5c-184 0 -343 150 -343 355s159 355 342 355s342 -150 342 -355s-158 -355 -341 -355zM383 127c121 0 203 93 203 223s-83 223 -204 223c-120 0 -203 -93 -203 -223
s83 -223 204 -223z" />
    <glyph glyph-name="uni022F" unicode="&#x22f;" 
d="M307 556c-47 0 -86 39 -86 84c0 48 39 85 86 85c46 0 84 -37 84 -85c0 -45 -38 -84 -84 -84zM304 -5c-136 0 -254 97 -254 254c0 160 124 256 258 256c135 0 253 -97 253 -254c0 -159 -122 -256 -257 -256zM308 111c76 0 122 61 122 139s-46 139 -122 139
s-127 -61 -127 -139s51 -139 127 -139z" />
    <glyph glyph-name="uni0233" unicode="&#x233;" horiz-adv-x="621" 
d="M484 660v-90h-350v90h350zM447 500h134l-174 -519c-28 -83 -61 -186 -212 -186c-90 0 -137 36 -152 55l63 89c5 -5 36 -31 78 -31s70 17 81 51l14 41h-67l-172 500h139l126 -364h20z" />
    <glyph glyph-name="uni0237" unicode="&#x237;" horiz-adv-x="368" 
d="M48 -74c0 0 28 -19 58 -19c36 0 66 28 66 62v531h126v-539c0 -101 -83 -166 -179 -166c-77 0 -119 42 -119 42z" />
    <glyph glyph-name="circumflex" unicode="&#x2c6;" horiz-adv-x="487" 
d="M300 556l-48 68h-17l-48 -68h-117l119 154h109l119 -154h-117z" />
    <glyph glyph-name="caron" unicode="&#x2c7;" horiz-adv-x="487" 
d="M300 710h117l-119 -154h-109l-119 154h117l48 -68h17z" />
    <glyph glyph-name="breve" unicode="&#x2d8;" horiz-adv-x="428" 
d="M358 700c0 -70 -63 -127 -143 -127s-145 57 -145 127h97c0 -21 16 -44 48 -44s46 23 46 44h97z" />
    <glyph glyph-name="dotaccent" unicode="&#x2d9;" horiz-adv-x="310" 
d="M156 556c-47 0 -86 39 -86 84c0 48 39 85 86 85c46 0 84 -37 84 -85c0 -45 -38 -84 -84 -84z" />
    <glyph glyph-name="ring" unicode="&#x2da;" horiz-adv-x="342" 
d="M170 530c-55 0 -100 45 -100 100s45 100 100 100s102 -45 102 -100s-47 -100 -102 -100zM171 603c14 0 26 13 26 27s-12 27 -26 27c-15 0 -26 -13 -26 -27s11 -27 26 -27z" />
    <glyph glyph-name="ogonek" unicode="&#x2db;" horiz-adv-x="322" 
d="M139 22l72 -22s-51 -21 -51 -72c0 -54 58 -50 89 -37l3 -80s-23 -17 -67 -17c-64 0 -115 36 -115 105c0 80 69 123 69 123z" />
    <glyph glyph-name="tilde" unicode="&#x2dc;" horiz-adv-x="515" 
d="M445 629c0 0 -42 -111 -140 -93c-50 9 -80 46 -112 48c-36 3 -54 -41 -54 -41l-69 44s43 112 139 95c49 -9 80 -46 111 -48c35 -3 56 41 56 41z" />
    <glyph glyph-name="hungarumlaut" unicode="&#x2dd;" horiz-adv-x="528" 
d="M138 680h140l-113 -125h-95zM318 680h140l-113 -125h-95z" />
    <glyph glyph-name="uni0326" unicode="&#x326;" horiz-adv-x="0" 
d="M-152 -42c44 0 69 -34 69 -89c0 -110 -99 -154 -99 -154l-26 27c40 35 51 59 56 87c-30 1 -71 18 -71 63c0 41 32 66 71 66z" />
    <glyph glyph-name="uni1E02" unicode="&#x1e02;" horiz-adv-x="617" 
d="M291 745c-47 0 -86 39 -86 84c0 48 39 85 86 85c46 0 84 -37 84 -85c0 -45 -38 -84 -84 -84zM452 371c65 -19 115 -78 115 -169c0 -132 -103 -202 -235 -202h-262v700h241c103 0 221 -57 221 -182c0 -58 -26 -111 -80 -139v-8zM198 582v-159h96c89 0 107 41 107 79
c0 49 -32 80 -107 80h-96zM302 118c94 0 131 40 131 93c0 45 -27 95 -121 95h-114v-188h104z" />
    <glyph glyph-name="uni1E03" unicode="&#x1e03;" horiz-adv-x="607" 
d="M314 725c-47 0 -86 39 -86 84c0 48 39 85 86 85c46 0 84 -37 84 -85c0 -45 -38 -84 -84 -84zM324 505c127 0 233 -104 233 -255s-106 -255 -233 -255c-54 0 -96 19 -127 53h-15l-14 -48h-98v710h125v-259c32 36 77 54 129 54zM305 118c61 0 122 44 122 132
s-61 132 -122 132c-65 0 -110 -49 -110 -132s45 -132 110 -132z" />
    <glyph glyph-name="uni1E0A" unicode="&#x1e0a;" horiz-adv-x="692" 
d="M339 745c-47 0 -86 39 -86 84c0 48 39 85 86 85c46 0 84 -37 84 -85c0 -45 -38 -84 -84 -84zM292 700c184 0 350 -123 350 -350s-166 -350 -350 -350h-222v700h222zM292 132c122 0 213 82 213 221s-91 215 -213 215h-86v-436h86z" />
    <glyph glyph-name="uni1E0B" unicode="&#x1e0b;" horiz-adv-x="607" 
d="M295 735c-47 0 -86 39 -86 84c0 48 39 85 86 85c46 0 84 -37 84 -85c0 -45 -38 -84 -84 -84zM412 710h125v-710h-98l-14 48h-15c-31 -34 -73 -53 -127 -53c-127 0 -233 104 -233 255s106 255 233 255c52 0 97 -18 129 -54v259zM302 118c65 0 110 49 110 132
s-45 132 -110 132c-61 0 -122 -44 -122 -132s61 -132 122 -132z" />
    <glyph glyph-name="uni1E10" unicode="&#x1e10;" horiz-adv-x="692" 
d="M642 350c0 -195 -123 -314 -275 -343l-23 -40c46 10 95 -21 95 -77c0 -50 -40 -95 -113 -95c-87 0 -118 64 -118 64l63 34s17 -29 51 -29c22 0 32 13 32 24c0 12 -9 26 -32 26c-20 0 -33 -11 -33 -11l-47 49l33 48h-205v700h222c184 0 350 -123 350 -350zM206 568v-436
h86c122 0 213 82 213 221s-91 215 -213 215h-86z" />
    <glyph glyph-name="uni1E11" unicode="&#x1e11;" horiz-adv-x="607" 
d="M412 710h125v-710h-98l-14 48h-15c-18 -20 -39 -34 -65 -43h3l-27 -46c44 10 91 -20 91 -73c0 -48 -39 -91 -108 -91c-83 0 -112 61 -112 61l60 33s16 -28 48 -28c21 0 31 12 31 23s-9 25 -31 25c-19 0 -31 -11 -31 -11l-45 47l35 51c-116 12 -209 113 -209 254
c0 151 106 255 233 255c52 0 97 -18 129 -54v259zM302 118c65 0 110 49 110 132s-45 132 -110 132c-61 0 -122 -44 -122 -132s61 -132 122 -132z" />
    <glyph glyph-name="uni1E1E" unicode="&#x1e1e;" horiz-adv-x="551" 
d="M302 745c-47 0 -86 39 -86 84c0 48 39 85 86 85c46 0 84 -37 84 -85c0 -45 -38 -84 -84 -84zM531 573h-327v-156h267v-123h-267v-294h-134v417v283h461v-127z" />
    <glyph glyph-name="uni1E1F" unicode="&#x1e1f;" horiz-adv-x="462" 
d="M232 735c-47 0 -86 39 -86 84c0 48 39 85 86 85c46 0 84 -37 84 -85c0 -45 -38 -84 -84 -84zM374 574c0 0 -28 19 -58 19c-36 0 -66 -28 -66 -62v-31h144v-105h-144v-395h-126v395h-84v105h84v39c0 101 83 166 179 166c77 0 119 -42 119 -42z" />
    <glyph glyph-name="uni1E20" unicode="&#x1e20;" horiz-adv-x="733" 
d="M539 868v-95h-350v95h350zM393 382h280v-382h-93l-15 59h-13c-34 -36 -86 -64 -177 -64c-187 0 -325 150 -325 356c0 204 135 354 331 354c229 0 287 -205 287 -205h-150s-31 78 -137 78c-116 0 -196 -95 -196 -228s79 -227 203 -227c78 0 131 33 155 80v61h-150v118z
" />
    <glyph glyph-name="uni1E22" unicode="&#x1e22;" horiz-adv-x="686" 
d="M344 745c-47 0 -86 39 -86 84c0 48 39 85 86 85c46 0 84 -37 84 -85c0 -45 -38 -84 -84 -84zM481 700h135v-700h-135v291h-276v-291h-135v700h135v-282h276v282z" />
    <glyph glyph-name="uni1E23" unicode="&#x1e23;" horiz-adv-x="619" 
d="M311 735c-47 0 -86 39 -86 84c0 48 39 85 86 85c46 0 84 -37 84 -85c0 -45 -38 -84 -84 -84zM358 505c129 0 191 -96 191 -234v-271h-134v241c0 49 8 148 -82 148c-44 0 -129 -23 -129 -154v-235h-134v710h127v-262h17c24 25 70 57 144 57z" />
    <glyph glyph-name="uni1E26" unicode="&#x1e26;" horiz-adv-x="686" 
d="M219 749c-45 0 -83 37 -83 82c0 47 38 83 83 83s82 -36 82 -83c0 -45 -37 -82 -82 -82zM459 749c-45 0 -83 37 -83 82c0 47 38 83 83 83s82 -36 82 -83c0 -45 -37 -82 -82 -82zM481 700h135v-700h-135v291h-276v-291h-135v700h135v-282h276v282z" />
    <glyph glyph-name="uni1E27" unicode="&#x1e27;" horiz-adv-x="619" 
d="M213 760c-40 0 -73 33 -73 73c0 41 33 72 73 72c39 0 72 -31 72 -72c0 -40 -33 -73 -72 -73zM407 760c-39 0 -72 33 -72 73c0 41 33 72 72 72c40 0 73 -31 73 -72c0 -40 -33 -73 -73 -73zM358 505c129 0 191 -96 191 -234v-271h-134v241c0 49 8 148 -82 148
c-44 0 -129 -23 -129 -154v-235h-134v710h127v-262h17c24 25 70 57 144 57z" />
    <glyph glyph-name="uni1E28" unicode="&#x1e28;" horiz-adv-x="686" 
d="M481 700h135v-700h-135v291h-276v-291h-48l-19 -33c46 10 95 -21 95 -77c0 -50 -40 -95 -113 -95c-87 0 -118 64 -118 64l63 34s17 -29 51 -29c22 0 32 13 32 24c0 12 -9 26 -32 26c-20 0 -33 -11 -33 -11l-47 49l34 50v698h135v-282h276v282z" />
    <glyph glyph-name="uni1E29" unicode="&#x1e29;" horiz-adv-x="619" 
d="M358 505c129 0 191 -96 191 -234v-271h-134v241c0 49 8 148 -82 148c-44 0 -129 -23 -129 -154v-235h-51l-24 -41c44 10 91 -20 91 -73c0 -48 -39 -91 -108 -91c-83 0 -112 61 -112 61l60 33s16 -28 48 -28c21 0 31 12 31 23s-9 25 -31 25c-19 0 -31 -11 -31 -11l-45 47
l38 56v709h127v-262h17c24 25 70 57 144 57z" />
    <glyph glyph-name="uni1E40" unicode="&#x1e40;" horiz-adv-x="840" 
d="M421 745c-47 0 -86 39 -86 84c0 48 39 85 86 85c46 0 84 -37 84 -85c0 -45 -38 -84 -84 -84zM770 700v-700h-131v427h-8l-131 -377h-161l-130 377h-8v-427h-131v700h171l171 -496h16l171 496h171z" />
    <glyph glyph-name="uni1E41" unicode="&#x1e41;" horiz-adv-x="877" 
d="M455 556c-47 0 -86 39 -86 84c0 48 39 85 86 85c46 0 84 -37 84 -85c0 -45 -38 -84 -84 -84zM628 506c130 1 189 -96 189 -235v-271h-133v241c0 69 7 156 -85 148c-24 -2 -90 -13 -90 -154v-235h-132v241c0 69 7 156 -85 148c-24 -2 -90 -13 -90 -154v-235h-132v500h102
l15 -54h16c19 25 59 58 121 59c56 1 104 -25 137 -69h15c25 31 71 69 152 70z" />
    <glyph glyph-name="uni1E44" unicode="&#x1e44;" horiz-adv-x="692" 
d="M348 745c-47 0 -86 39 -86 84c0 48 39 85 86 85c46 0 84 -37 84 -85c0 -45 -38 -84 -84 -84zM491 700h131v-700h-131l-277 452h-13v-452h-131v700h132l277 -440h12v440z" />
    <glyph glyph-name="uni1E45" unicode="&#x1e45;" horiz-adv-x="610" 
d="M309 556c-47 0 -86 39 -86 84c0 48 39 85 86 85c46 0 84 -37 84 -85c0 -45 -38 -84 -84 -84zM358 505c129 0 192 -96 192 -234v-271h-133v241c0 17 12 143 -84 148c-47 3 -131 -23 -131 -154v-235h-132v500h102l17 -61h17c21 25 68 66 152 66z" />
    <glyph glyph-name="uni1E56" unicode="&#x1e56;" horiz-adv-x="594" 
d="M294 745c-47 0 -86 39 -86 84c0 48 39 85 86 85c46 0 84 -37 84 -85c0 -45 -38 -84 -84 -84zM337 700c115 0 217 -76 217 -215c0 -138 -102 -225 -217 -225h-140v-260h-127v700h267zM327 383c57 0 95 44 95 102c0 59 -39 92 -95 92h-130v-194h130z" />
    <glyph glyph-name="uni1E57" unicode="&#x1e57;" horiz-adv-x="607" 
d="M314 556c-47 0 -86 39 -86 84c0 48 39 85 86 85c46 0 84 -37 84 -85c0 -45 -38 -84 -84 -84zM324 505c127 0 233 -104 233 -255s-106 -255 -233 -255c-52 0 -97 18 -129 54v-249h-125v700h98l14 -48h15c31 34 73 53 127 53zM305 118c61 0 122 44 122 132
s-61 132 -122 132c-65 0 -110 -49 -110 -132s45 -132 110 -132z" />
    <glyph glyph-name="uni1E58" unicode="&#x1e58;" horiz-adv-x="627" 
d="M296 745c-47 0 -86 39 -86 84c0 48 39 85 86 85c46 0 84 -37 84 -85c0 -45 -38 -84 -84 -84zM577 0h-148l-149 257h-83v-257h-127v700h247c115 0 217 -77 217 -215c0 -96 -54 -169 -126 -204zM197 575v-194h110c57 0 95 44 95 102s-39 92 -95 92h-110z" />
    <glyph glyph-name="uni1E59" unicode="&#x1e59;" horiz-adv-x="430" 
d="M230 556c-47 0 -86 39 -86 84c0 48 39 85 86 85c46 0 84 -37 84 -85c0 -45 -38 -84 -84 -84zM359 505h31v-128c-10 2 -27 4 -44 4c-70 0 -143 -36 -143 -128v-253h-133v500h102l18 -55h16c22 22 71 60 153 60z" />
    <glyph glyph-name="uni1E60" unicode="&#x1e60;" horiz-adv-x="593" 
d="M298 745c-47 0 -86 39 -86 84c0 48 39 85 86 85c46 0 84 -37 84 -85c0 -45 -38 -84 -84 -84zM543 195c0 -131 -107 -200 -234 -200c-153 0 -259 100 -259 231h130c12 -87 84 -107 128 -107c34 0 102 12 102 77c0 59 -57 83 -114 105c-94 37 -227 82 -227 215
c0 118 103 190 228 190c145 0 226 -97 226 -186h-128c-7 39 -50 64 -100 64c-48 0 -88 -24 -88 -68c0 -43 39 -60 107 -91c73 -33 229 -72 229 -230z" />
    <glyph glyph-name="uni1E61" unicode="&#x1e61;" horiz-adv-x="508" 
d="M260 556c-47 0 -86 39 -86 84c0 48 39 85 86 85c46 0 84 -37 84 -85c0 -45 -38 -84 -84 -84zM335 353c-4 17 -20 46 -71 46c-42 0 -60 -21 -60 -42c0 -34 45 -44 75 -50c89 -19 179 -46 179 -152c0 -103 -85 -160 -188 -160c-115 0 -204 70 -210 176h123
c3 -30 23 -69 84 -69c51 0 63 27 63 48c0 37 -35 48 -69 56c-59 13 -186 37 -186 151c0 98 94 148 191 148c112 0 186 -68 192 -152h-123z" />
    <glyph glyph-name="uni1E7C" unicode="&#x1e7c;" horiz-adv-x="672" 
d="M542 830c0 0 -47 -122 -154 -102c-55 10 -88 50 -124 52c-39 4 -59 -45 -59 -45l-76 49s47 123 153 104c54 -10 88 -50 122 -53c39 -3 62 46 62 46zM500 700h142l-204 -700h-204l-204 700h143l153 -544h21z" />
    <glyph glyph-name="uni1E7D" unicode="&#x1e7d;" horiz-adv-x="618" 
d="M245 584c-36 3 -54 -41 -54 -41l-69 44s43 112 139 95c49 -9 80 -46 111 -48c35 -3 56 41 56 41l69 -46s-42 -111 -140 -93c-50 9 -80 46 -112 48zM435 500h133l-162 -500h-128h-66l-162 500h133l116 -368h20z" />
    <glyph glyph-name="Wgrave" unicode="&#x1e80;" horiz-adv-x="963" 
d="M501 890l76 -135h-106l-142 135h172zM791 700h137l-148 -700h-209l-80 452h-21l-88 -452h-209l-138 700h137l102 -547h21l98 497h177l91 -497h21z" />
    <glyph glyph-name="wgrave" unicode="&#x1e81;" horiz-adv-x="850" 
d="M441 690l63 -135h-88l-119 135h144zM667 500h128l-119 -500h-176l-68 292h-14l-68 -292h-176l-119 500h128l77 -349h17l69 309h158l70 -309h16z" />
    <glyph glyph-name="Wacute" unicode="&#x1e82;" horiz-adv-x="963" 
d="M476 890h172l-142 -135h-106zM791 700h137l-148 -700h-209l-80 452h-21l-88 -452h-209l-138 700h137l102 -547h21l98 497h177l91 -497h21z" />
    <glyph glyph-name="wacute" unicode="&#x1e83;" horiz-adv-x="850" 
d="M442 690h144l-119 -135h-88zM667 500h128l-119 -500h-176l-68 292h-14l-68 -292h-176l-119 500h128l77 -349h17l69 309h158l70 -309h16z" />
    <glyph glyph-name="Wdieresis" unicode="&#x1e84;" horiz-adv-x="963" 
d="M352 749c-45 0 -83 37 -83 82c0 47 38 83 83 83s82 -36 82 -83c0 -45 -37 -82 -82 -82zM592 749c-45 0 -83 37 -83 82c0 47 38 83 83 83s82 -36 82 -83c0 -45 -37 -82 -82 -82zM791 700h137l-148 -700h-209l-80 452h-21l-88 -452h-209l-138 700h137l102 -547h21l98 497
h177l91 -497h21z" />
    <glyph glyph-name="wdieresis" unicode="&#x1e85;" horiz-adv-x="850" 
d="M333 551c-40 0 -73 33 -73 73c0 41 33 72 73 72c39 0 72 -31 72 -72c0 -40 -33 -73 -72 -73zM527 551c-39 0 -72 33 -72 73c0 41 33 72 72 72c40 0 73 -31 73 -72c0 -40 -33 -73 -73 -73zM667 500h128l-119 -500h-176l-68 292h-14l-68 -292h-176l-119 500h128l77 -349h17
l69 309h158l70 -309h16z" />
    <glyph glyph-name="uni1E8C" unicode="&#x1e8c;" horiz-adv-x="725" 
d="M191 749c-45 0 -83 37 -83 82c0 47 38 83 83 83s82 -36 82 -83c0 -45 -37 -82 -82 -82zM431 749c-45 0 -83 37 -83 82c0 47 38 83 83 83s82 -36 82 -83c0 -45 -37 -82 -82 -82zM536 0l-164 273h-14l-165 -273h-163l224 361l-210 339h159l154 -253h14l154 253h156
l-210 -339l224 -361h-159z" />
    <glyph glyph-name="uni1E8D" unicode="&#x1e8d;" horiz-adv-x="617" 
d="M217 551c-40 0 -73 33 -73 73c0 41 33 72 73 72c39 0 72 -31 72 -72c0 -40 -33 -73 -72 -73zM411 551c-39 0 -72 33 -72 73c0 41 33 72 72 72c40 0 73 -31 73 -72c0 -40 -33 -73 -73 -73zM418 0l-102 169h-14l-103 -169h-144l165 257l-155 243h141l97 -150h12l96 150h141
l-155 -243l165 -257h-144z" />
    <glyph glyph-name="uni1E90" unicode="&#x1e90;" 
d="M295 823l-52 -68h-129l131 154h120l131 -154h-129l-52 68h-20zM232 131h329v-131h-511v102l324 468h-304v130h481v-101z" />
    <glyph glyph-name="uni1E97" unicode="&#x1e97;" horiz-adv-x="498" 
d="M120 695c-40 0 -73 33 -73 73c0 41 33 72 73 72c39 0 72 -31 72 -72c0 -40 -33 -73 -72 -73zM314 695c-39 0 -72 33 -72 73c0 41 33 72 72 72c40 0 73 -31 73 -72c0 -40 -33 -73 -73 -73zM400 126l48 -89s-42 -42 -119 -42c-96 0 -179 65 -179 166v232h-100v98h50
c34 0 57 23 57 59v100h121v-150h126v-107h-126v-224c0 -34 28 -60 64 -60c30 0 58 17 58 17z" />
    <glyph glyph-name="uni1E98" unicode="&#x1e98;" horiz-adv-x="850" 
d="M429 530c-55 0 -100 45 -100 100s45 100 100 100s102 -45 102 -100s-47 -100 -102 -100zM430 603c14 0 26 13 26 27s-12 27 -26 27c-15 0 -26 -13 -26 -27s11 -27 26 -27zM667 500h128l-119 -500h-176l-68 292h-14l-68 -292h-176l-119 500h128l77 -349h17l69 309h158
l70 -309h16z" />
    <glyph glyph-name="uni1E99" unicode="&#x1e99;" horiz-adv-x="621" 
d="M304 530c-55 0 -100 45 -100 100s45 100 100 100s102 -45 102 -100s-47 -100 -102 -100zM305 657c-15 0 -26 -13 -26 -27s11 -27 26 -27c14 0 26 13 26 27s-12 27 -26 27zM447 500h134l-174 -519c-28 -83 -61 -186 -212 -186c-90 0 -137 36 -152 55l63 89
c5 -5 36 -31 78 -31s70 17 81 51l14 41h-67l-172 500h139l126 -364h20z" />
    <glyph glyph-name="uni1E9E" unicode="&#x1e9e;" horiz-adv-x="1186" 
d="M543 195c0 -131 -107 -200 -234 -200c-153 0 -259 100 -259 231h130c12 -87 84 -107 128 -107c34 0 102 12 102 77c0 59 -57 83 -114 105c-94 37 -227 82 -227 215c0 118 103 190 228 190c145 0 226 -97 226 -186h-128c-7 39 -50 64 -100 64c-48 0 -88 -24 -88 -68
c0 -43 39 -60 107 -91c73 -33 229 -72 229 -230zM1136 195c0 -131 -107 -200 -234 -200c-153 0 -259 100 -259 231h130c12 -87 84 -107 128 -107c34 0 102 12 102 77c0 59 -57 83 -114 105c-94 37 -227 82 -227 215c0 118 103 190 228 190c145 0 226 -97 226 -186h-128
c-7 39 -50 64 -100 64c-48 0 -88 -24 -88 -68c0 -43 39 -60 107 -91c73 -33 229 -72 229 -230z" />
    <glyph glyph-name="uni1EBC" unicode="&#x1ebc;" 
d="M511 830c0 0 -47 -122 -154 -102c-55 10 -88 50 -124 52c-39 4 -59 -45 -59 -45l-76 49s47 123 153 104c54 -10 88 -50 122 -53c39 -3 62 46 62 46zM201 125h340v-125h-471v700h461v-125h-330v-158h300v-125h-300v-167z" />
    <glyph glyph-name="uni1EBD" unicode="&#x1ebd;" horiz-adv-x="592" 
d="M232 584c-36 3 -54 -41 -54 -41l-69 44s43 112 139 95c49 -9 80 -46 111 -48c35 -3 56 41 56 41l69 -46s-42 -111 -140 -93c-50 9 -80 46 -112 48zM299 505c128 0 258 -89 242 -293h-365c15 -76 77 -104 131 -104c68 0 97 42 97 42h126c-38 -100 -129 -155 -227 -155
c-135 0 -253 103 -253 259c0 155 117 251 249 251zM303 396c-55 0 -99 -31 -119 -83h225c-15 59 -56 83 -106 83z" />
    <glyph glyph-name="Ygrave" unicode="&#x1ef2;" horiz-adv-x="639" 
d="M399 755h-106l-142 135h172zM450 700h159l-220 -349v-351h-139v351l-220 349h158l125 -214h12z" />
    <glyph glyph-name="ygrave" unicode="&#x1ef3;" horiz-adv-x="621" 
d="M379 555h-88l-119 135h144zM447 500h134l-174 -519c-28 -83 -61 -186 -212 -186c-90 0 -137 36 -152 55l63 89c5 -5 36 -31 78 -31s70 17 81 51l14 41h-67l-172 500h139l126 -364h20z" />
    <glyph glyph-name="uni1EF8" unicode="&#x1ef8;" horiz-adv-x="639" 
d="M244 780c-39 4 -59 -45 -59 -45l-76 49s47 123 153 104c54 -10 88 -50 122 -53c39 -3 62 46 62 46l76 -51s-47 -122 -154 -102c-55 10 -88 50 -124 52zM450 700h159l-220 -349v-351h-139v351l-220 349h158l125 -214h12z" />
    <glyph glyph-name="uni1EF9" unicode="&#x1ef9;" horiz-adv-x="621" 
d="M241 584c-36 3 -54 -41 -54 -41l-69 44s43 112 139 95c49 -9 80 -46 111 -48c35 -3 56 41 56 41l69 -46s-42 -111 -140 -93c-50 9 -80 46 -112 48zM447 500h134l-174 -519c-28 -83 -61 -186 -212 -186c-90 0 -137 36 -152 55l63 89c5 -5 36 -31 78 -31s70 17 81 51l14 41
h-67l-172 500h139l126 -364h20z" />
    <glyph glyph-name="uni200B" unicode="&#x200b;" horiz-adv-x="0" 
 />
    <glyph glyph-name="endash" unicode="&#x2013;" horiz-adv-x="535" 
d="M50 368h435v-114h-435v114z" />
    <glyph glyph-name="emdash" unicode="&#x2014;" horiz-adv-x="860" 
d="M810 368v-114h-760v114h760z" />
    <glyph glyph-name="quoteleft" unicode="&#x2018;" horiz-adv-x="250" 
d="M125 495c-48 0 -75 40 -75 103c0 128 106 178 106 178l28 -31c-43 -40 -55 -69 -60 -100c32 -2 76 -21 76 -74c0 -47 -34 -76 -75 -76z" />
    <glyph glyph-name="quoteright" unicode="&#x2019;" horiz-adv-x="250" 
d="M125 776c48 0 75 -40 75 -103c0 -128 -106 -178 -106 -178l-28 31c43 40 55 69 60 100c-32 2 -76 21 -76 74c0 47 34 76 75 76z" />
    <glyph glyph-name="quotesinglbase" unicode="&#x201a;" horiz-adv-x="250" 
d="M125 145c48 0 75 -40 75 -103c0 -128 -106 -178 -106 -178l-28 31c43 40 55 69 60 100c-32 2 -76 21 -76 74c0 47 34 76 75 76z" />
    <glyph glyph-name="quotedblleft" unicode="&#x201c;" horiz-adv-x="445" 
d="M125 495c-48 0 -75 40 -75 103c0 128 106 178 106 178l28 -31c-43 -40 -55 -69 -60 -100c32 -2 76 -21 76 -74c0 -47 -34 -76 -75 -76zM320 495c-48 0 -75 40 -75 103c0 128 106 178 106 178l28 -31c-43 -40 -55 -69 -60 -100c32 -2 76 -21 76 -74c0 -47 -34 -76 -75 -76
z" />
    <glyph glyph-name="quotedblright" unicode="&#x201d;" horiz-adv-x="445" 
d="M125 776c48 0 75 -40 75 -103c0 -128 -106 -178 -106 -178l-28 31c43 40 55 69 60 100c-32 2 -76 21 -76 74c0 47 34 76 75 76zM320 776c48 0 75 -40 75 -103c0 -128 -106 -178 -106 -178l-28 31c43 40 55 69 60 100c-32 2 -76 21 -76 74c0 47 34 76 75 76z" />
    <glyph glyph-name="quotedblbase" unicode="&#x201e;" horiz-adv-x="445" 
d="M125 145c48 0 75 -40 75 -103c0 -128 -106 -178 -106 -178l-28 31c43 40 55 69 60 100c-32 2 -76 21 -76 74c0 47 34 76 75 76zM320 145c48 0 75 -40 75 -103c0 -128 -106 -178 -106 -178l-28 31c43 40 55 69 60 100c-32 2 -76 21 -76 74c0 47 34 76 75 76z" />
    <glyph glyph-name="dagger" unicode="&#x2020;" horiz-adv-x="560" 
d="M500 500v-116h-160v-524h-120v524h-160v116h160v200h120v-200h160z" />
    <glyph glyph-name="daggerdbl" unicode="&#x2021;" horiz-adv-x="560" 
d="M500 384h-160v-208h160v-116h-160v-200h-120v200h-160v116h160v208h-160v116h160v200h120v-200h160v-116z" />
    <glyph glyph-name="bullet" unicode="&#x2022;" horiz-adv-x="290" 
d="M130 251c-44 0 -80 36 -80 80c0 45 36 80 80 80s80 -35 80 -80c0 -44 -36 -80 -80 -80z" />
    <glyph glyph-name="ellipsis" unicode="&#x2026;" horiz-adv-x="860" 
d="M130 -5c-44 0 -80 36 -80 80c0 45 36 80 80 80s80 -35 80 -80c0 -44 -36 -80 -80 -80zM430 -5c-44 0 -80 36 -80 80c0 45 36 80 80 80s80 -35 80 -80c0 -44 -36 -80 -80 -80zM730 -5c-44 0 -80 36 -80 80c0 45 36 80 80 80s80 -35 80 -80c0 -44 -36 -80 -80 -80z" />
    <glyph glyph-name="perthousand" unicode="&#x2030;" horiz-adv-x="1119" 
d="M200 345c-82 0 -150 68 -150 150s68 150 150 150c81 0 150 -68 150 -150s-69 -150 -150 -150zM659 640l-406 -640h-134l406 640h134zM200 450c26 0 45 19 45 45s-19 45 -45 45s-45 -19 -45 -45s19 -45 45 -45zM579 -5c-82 0 -150 68 -150 150s68 150 150 150
c81 0 150 -68 150 -150s-69 -150 -150 -150zM929 -5c-82 0 -150 68 -150 150s68 150 150 150c81 0 150 -68 150 -150s-69 -150 -150 -150zM579 100c26 0 45 19 45 45s-19 45 -45 45s-45 -19 -45 -45s19 -45 45 -45zM929 100c26 0 45 19 45 45s-19 45 -45 45s-45 -19 -45 -45
s19 -45 45 -45z" />
    <glyph glyph-name="guilsinglleft" unicode="&#x2039;" horiz-adv-x="401" 
d="M211 97l-161 202l161 202h140l-163 -202l163 -202h-140z" />
    <glyph glyph-name="guilsinglright" unicode="&#x203a;" horiz-adv-x="401" 
d="M190 97h-140l163 202l-163 202h140l161 -202z" />
    <glyph glyph-name="uni2042" unicode="&#x2042;" horiz-adv-x="800" 
d="M517 423l-80 53l6 -96h-86l6 96l-80 -53l-43 74l85 43l-85 43l43 74l80 -53l-6 96h86l-6 -96l80 53l43 -74l-85 -43l85 -43zM307 277l43 -74l-85 -43l85 -43l-43 -74l-80 53l6 -96h-86l6 96l-80 -53l-43 74l85 43l-85 43l43 74l80 -53l-6 96h86l-6 -96zM770 203l-85 -43
l85 -43l-43 -74l-80 53l6 -96h-86l6 96l-80 -53l-43 74l85 43l-85 43l43 74l80 -53l-6 96h86l-6 -96l80 53z" />
    <glyph glyph-name="fraction" unicode="&#x2044;" horiz-adv-x="293" 
d="M453 640h-115l-498 -640h115z" />
    <glyph glyph-name="uni2051" unicode="&#x2051;" horiz-adv-x="400" 
d="M360 583l-85 -43l85 -43l-43 -74l-80 53l6 -96h-86l6 96l-80 -53l-43 74l85 43l-85 43l43 74l80 -53l-6 96h86l-6 -96l80 53zM317 277l43 -74l-85 -43l85 -43l-43 -74l-80 53l6 -96h-86l6 96l-80 -53l-43 74l85 43l-85 43l43 74l80 -53l-6 96h86l-6 -96z" />
    <glyph glyph-name="uni2070" unicode="&#x2070;" horiz-adv-x="404" 
d="M203 337c-83 0 -153 66 -153 183s70 183 152 183s152 -66 152 -184c0 -116 -69 -182 -151 -182zM203 434c41 0 52 46 52 85s-11 85 -53 85s-52 -46 -52 -84c0 -39 10 -86 53 -86z" />
    <glyph glyph-name="uni2074" unicode="&#x2074;" horiz-adv-x="402" 
d="M357 500v-79h-60v-81h-85v81h-167v50l137 229h115v-200h60zM161 500h51v70h-9z" />
    <glyph glyph-name="uni2075" unicode="&#x2075;" horiz-adv-x="389" 
d="M213 588c73 0 126 -49 126 -122c0 -76 -59 -129 -143 -129c-89 0 -146 61 -146 125h96c5 -23 23 -42 50 -42c31 0 49 25 49 47c0 21 -15 46 -50 46c-23 0 -37 -11 -48 -27l-82 16l22 198h231v-80h-153l-7 -43c16 7 34 11 55 11z" />
    <glyph glyph-name="uni2076" unicode="&#x2076;" horiz-adv-x="366" 
d="M191 567c76 4 125 -48 125 -111c0 -69 -64 -119 -133 -119c-70 0 -133 52 -133 124c0 44 17 73 47 119s82 120 82 120h110zM183 420c27 0 43 17 43 37s-17 38 -43 38s-43 -18 -43 -38s17 -37 43 -37z" />
    <glyph glyph-name="uni2077" unicode="&#x2077;" horiz-adv-x="364" 
d="M50 700h269v-62c-97 -118 -118 -180 -121 -298h-99c5 125 36 194 92 272h-141v88z" />
    <glyph glyph-name="uni2078" unicode="&#x2078;" horiz-adv-x="374" 
d="M273 536c28 -10 51 -38 51 -82c0 -62 -52 -117 -138 -117s-136 55 -136 118c0 43 21 71 49 81v7c-21 11 -34 35 -34 66c0 61 61 94 122 94c63 0 121 -34 121 -94c0 -30 -13 -54 -35 -66v-7zM187 629c-27 0 -35 -19 -35 -32c0 -15 10 -31 34 -31s36 16 36 32
c0 13 -9 31 -35 31zM186 411c31 0 49 25 49 47c0 20 -16 46 -49 46s-47 -26 -47 -46c0 -22 16 -47 47 -47z" />
    <glyph glyph-name="uni2079" unicode="&#x2079;" horiz-adv-x="366" 
d="M175 473c-76 -4 -125 48 -125 111c0 69 64 119 133 119c70 0 133 -52 133 -124c0 -44 -17 -73 -47 -119s-82 -120 -82 -120h-110zM183 620c-27 0 -43 -17 -43 -37s17 -38 43 -38s43 18 43 38s-17 37 -43 37z" />
    <glyph glyph-name="uni2080" unicode="&#x2080;" horiz-adv-x="404" 
d="M203 -103c-83 0 -153 66 -153 183s70 183 152 183s152 -66 152 -184c0 -116 -69 -182 -151 -182zM203 -6c41 0 52 46 52 85s-11 85 -53 85s-52 -46 -52 -84c0 -39 10 -86 53 -86z" />
    <glyph glyph-name="uni2081" unicode="&#x2081;" horiz-adv-x="286" 
d="M139 -100v214h-94v81h57c25 0 41 16 41 42v23h92l1 -360h-97z" />
    <glyph glyph-name="uni2082" unicode="&#x2082;" horiz-adv-x="372" 
d="M245 40c-38 -24 -64 -34 -76 -51h150v-89h-269v36c0 56 34 107 87 136c62 34 90 50 90 72c0 15 -13 28 -40 28c-28 0 -45 -15 -45 -43h-91c0 57 38 134 142 134c79 0 129 -43 129 -112c0 -53 -30 -82 -77 -111z" />
    <glyph glyph-name="uni2083" unicode="&#x2083;" horiz-adv-x="378" 
d="M273 85c18 -4 55 -32 55 -79c0 -56 -52 -109 -135 -109c-85 0 -143 55 -143 128h92c1 -23 19 -43 52 -43c25 0 39 12 39 31s-15 34 -48 34h-24v74h23c31 0 42 12 42 29c0 21 -17 30 -35 30c-20 0 -35 -12 -38 -29h-91c0 58 48 112 133 112c76 0 120 -43 120 -100
c0 -47 -29 -66 -42 -72v-6z" />
    <glyph glyph-name="uni2084" unicode="&#x2084;" horiz-adv-x="402" 
d="M357 60v-79h-60v-81h-85v81h-167v50l137 229h115v-200h60zM161 60h51v70h-9z" />
    <glyph glyph-name="uni2085" unicode="&#x2085;" horiz-adv-x="389" 
d="M213 148c73 0 126 -49 126 -122c0 -76 -59 -129 -143 -129c-89 0 -146 61 -146 125h96c5 -23 23 -42 50 -42c31 0 49 25 49 47c0 21 -15 46 -50 46c-23 0 -37 -11 -48 -27l-82 16l22 198h231v-80h-153l-7 -43c16 7 34 11 55 11z" />
    <glyph glyph-name="uni2086" unicode="&#x2086;" horiz-adv-x="366" 
d="M191 127c76 4 125 -48 125 -111c0 -69 -64 -119 -133 -119c-70 0 -133 52 -133 124c0 44 17 73 47 119s82 120 82 120h110zM183 -20c27 0 43 17 43 37s-17 38 -43 38s-43 -18 -43 -38s17 -37 43 -37z" />
    <glyph glyph-name="uni2087" unicode="&#x2087;" horiz-adv-x="364" 
d="M50 260h269v-62c-97 -118 -118 -180 -121 -298h-99c5 125 36 194 92 272h-141v88z" />
    <glyph glyph-name="uni2088" unicode="&#x2088;" horiz-adv-x="374" 
d="M273 96c28 -10 51 -38 51 -82c0 -62 -52 -117 -138 -117s-136 55 -136 118c0 43 21 71 49 81v7c-21 11 -34 35 -34 66c0 61 61 94 122 94c63 0 121 -34 121 -94c0 -30 -13 -54 -35 -66v-7zM187 189c-27 0 -35 -19 -35 -32c0 -15 10 -31 34 -31s36 16 36 32
c0 13 -9 31 -35 31zM186 -29c31 0 49 25 49 47c0 20 -16 46 -49 46s-47 -26 -47 -46c0 -22 16 -47 47 -47z" />
    <glyph glyph-name="uni2089" unicode="&#x2089;" horiz-adv-x="366" 
d="M175 33c-76 -4 -125 48 -125 111c0 69 64 119 133 119c70 0 133 -52 133 -124c0 -44 -17 -73 -47 -119s-82 -120 -82 -120h-110zM183 180c-27 0 -43 -17 -43 -37s17 -38 43 -38s43 18 43 38s-17 37 -43 37z" />
    <glyph glyph-name="Euro" unicode="&#x20ac;" horiz-adv-x="650" 
d="M428 118c66 0 115 34 129 49l53 -110c-46 -40 -131 -62 -194 -62c-123 0 -242 84 -286 213h-80v101h62v11v18h-62v101h83c46 125 162 206 283 206c63 0 148 -22 194 -62l-53 -110c-14 16 -69 49 -134 49c-59 0 -115 -28 -147 -83h264l-44 -101h-248c-1 -6 -1 -12 -1 -18
v-11h238l-45 -101h-167c33 -61 94 -90 155 -90z" />
    <glyph glyph-name="uni2113" unicode="&#x2113;" horiz-adv-x="458" 
d="M235 229c0 -69 21 -118 92 -118c54 0 94 28 94 28v-112s-52 -32 -119 -32c-108 0 -185 85 -185 206v17c-51 -7 -87 -4 -87 -4v101s42 5 87 13v112c0 132 59 205 157 205c113 0 159 -68 159 -148c0 -97 -68 -197 -198 -249v-19zM278 529c-35 0 -43 -34 -43 -89v-72
c58 33 82 78 82 115c0 28 -14 46 -39 46z" />
    <glyph glyph-name="trademark" unicode="&#x2122;" horiz-adv-x="745" 
d="M296 700v-78h-88v-272h-90v272h-88v78h266zM715 700v-350h-87v196l-59 -171h-78l-60 174v-199h-86v350h115l69 -205h2l69 205h115z" />
    <glyph glyph-name="arrowup" unicode="&#x2191;" horiz-adv-x="709" 
d="M659 445l-83 -83l-161 162v-557h-120v558l-162 -163l-83 83l285 285h39z" />
    <glyph glyph-name="arrowdown" unicode="&#x2193;" horiz-adv-x="709" 
d="M576 328l83 -83l-285 -285h-39l-285 285l83 83l161 -162v557h120v-558z" />
    <glyph glyph-name="arrowboth" unicode="&#x2194;" horiz-adv-x="1034" 
d="M709 609l285 -285v-39l-285 -285l-83 83l163 162h-544l163 -162l-83 -83l-285 285v39l285 285l83 -83l-162 -161h542l-162 161z" />
    <glyph glyph-name="arrowupdn" unicode="&#x2195;" horiz-adv-x="709" 
d="M415 70l161 162l83 -83l-285 -285h-39l-285 285l83 83l162 -163v543l-162 -163l-83 83l285 285h39l285 -285l-83 -83l-161 162v-541z" />
    <glyph glyph-name="uni2196" unicode="&#x2196;" horiz-adv-x="671" 
d="M631 82l-85 -85l-370 372v-230h-116v403l28 27h403v-116h-231z" />
    <glyph glyph-name="uni2197" unicode="&#x2197;" horiz-adv-x="671" 
d="M583 569l28 -27v-403h-116v230l-370 -372l-85 85l371 371h-231v116h403z" />
    <glyph glyph-name="uni2198" unicode="&#x2198;" horiz-adv-x="672" 
d="M496 506h116v-403l-27 -28h-403v116h230l-372 370l85 85l371 -371v231z" />
    <glyph glyph-name="uni2199" unicode="&#x2199;" horiz-adv-x="672" 
d="M632 561l-372 -370h230v-116h-403l-27 28v403h116v-231l371 371z" />
    <glyph glyph-name="partialdiff" unicode="&#x2202;" horiz-adv-x="603" 
d="M553 344c0 -266 -109 -349 -243 -349c-150 0 -260 104 -260 245c0 146 119 255 251 255c95 0 131 -57 131 -57c-8 74 -47 176 -142 186c-66 7 -102 -35 -102 -35l-104 42s53 117 208 112c183 -5 261 -174 261 -399zM298 110c75 0 127 66 127 138c0 73 -53 132 -124 132
c-73 0 -125 -63 -125 -137s52 -133 122 -133z" />
    <glyph glyph-name="emptyset" unicode="&#x2205;" horiz-adv-x="660" 
d="M578 465c33 -49 52 -107 52 -170c0 -166 -134 -300 -300 -300c-63 0 -121 19 -169 52l-46 -47l-79 80l46 46c-33 48 -52 106 -52 169c0 166 134 300 300 300c62 0 120 -19 168 -51l47 47l79 -80zM141 295c0 -32 8 -62 21 -88l255 256c-26 13 -56 21 -87 21
c-105 0 -189 -84 -189 -189zM330 106c104 0 189 84 189 189c0 32 -8 62 -22 89l-255 -257c26 -13 56 -21 88 -21z" />
    <glyph glyph-name="product" unicode="&#x220f;" horiz-adv-x="690" 
d="M70 700h550v-787h-120v669h-310v-669h-120v787z" />
    <glyph glyph-name="summation" unicode="&#x2211;" horiz-adv-x="601" 
d="M40 616v84h521v-114h-341l267 -279l-267 -280h341v-114h-521v84l287 310z" />
    <glyph glyph-name="minus" unicode="&#x2212;" horiz-adv-x="460" 
d="M50 368h360v-114h-360v114z" />
    <glyph glyph-name="radical" unicode="&#x221a;" horiz-adv-x="702" 
d="M692 800v-114h-134l-250 -686h-133l-145 340h132l71 -168h7l228 628h224z" />
    <glyph glyph-name="infinity" unicode="&#x221e;" horiz-adv-x="771" 
d="M563 507c97 0 178 -65 178 -171s-80 -170 -179 -170c-54 0 -119 20 -173 87h-10c-54 -60 -109 -87 -172 -87c-96 0 -177 64 -177 170s81 171 178 171c55 0 120 -21 174 -88h10c56 67 116 88 171 88zM206 281c29 0 65 20 99 54c-32 31 -67 56 -98 56
c-27 0 -59 -18 -59 -56c0 -37 32 -54 58 -54zM565 281c26 0 59 17 59 54c0 38 -33 56 -60 56c-31 0 -66 -26 -99 -56c35 -33 70 -54 100 -54z" />
    <glyph glyph-name="integral" unicode="&#x222b;" horiz-adv-x="674" 
d="M492 705c89 0 132 -66 132 -66l-76 -66s-18 24 -50 24c-20 0 -47 -10 -54 -53l-103 -626c-13 -75 -84 -123 -159 -123c-89 0 -132 66 -132 66l76 66s18 -24 50 -24c20 0 47 10 54 53l103 626c13 75 84 123 159 123z" />
    <glyph glyph-name="approxequal" unicode="&#x2248;" horiz-adv-x="620" 
d="M570 472c0 0 -47 -151 -196 -125c-67 12 -104 50 -151 51c-54 1 -83 -49 -83 -49l-90 40s49 147 196 125c70 -10 103 -50 151 -51c54 -1 83 49 83 49zM570 272c0 0 -47 -152 -196 -125c-67 12 -104 51 -151 51c-54 0 -83 -49 -83 -49l-90 40s49 147 196 125
c70 -10 103 -50 151 -51c54 -1 83 49 83 49z" />
    <glyph glyph-name="notequal" unicode="&#x2260;" horiz-adv-x="595" 
d="M545 329h-157l-55 -79h212v-115h-293l-84 -120l-71 49l50 71h-97v115h177l55 79h-232v116h313l84 121l72 -50l-50 -71h76v-116z" />
    <glyph glyph-name="lessequal" unicode="&#x2264;" horiz-adv-x="515" 
d="M465 605v-138l-224 -80v-15l224 -80v-138l-415 166v118zM465 111v-111h-415v111h415z" />
    <glyph glyph-name="greaterequal" unicode="&#x2265;" horiz-adv-x="515" 
d="M50 605l415 -167v-118l-415 -166v138l224 80v15l-224 80v138zM50 111h415v-111h-415v111z" />
    <glyph glyph-name="lozenge" unicode="&#x25ca;" horiz-adv-x="640" 
d="M320 580l290 -290l-290 -290l-290 290zM320 415l-125 -125l125 -125l125 125z" />
    <glyph glyph-name="uni2731" unicode="&#x2731;" horiz-adv-x="542" 
d="M482 356l-109 -58l109 -59l-55 -95l-105 65l4 -124h-109l4 125l-106 -66l-55 94l109 60l-109 58l54 95l106 -65l-3 123h109l-3 -122l104 64z" />
    <glyph glyph-name="uni2780" unicode="&#x2780;" horiz-adv-x="810" 
d="M405 -5c-196 0 -355 159 -355 355s159 355 355 355c195 0 355 -159 355 -355s-160 -355 -355 -355zM405 89c139 0 256 110 256 261s-117 261 -256 261c-140 0 -256 -110 -256 -261s116 -261 256 -261zM374 157v233h-94v81h57c25 0 41 16 41 42v29h92l1 -385h-97z" />
    <glyph glyph-name="uni2781" unicode="&#x2781;" horiz-adv-x="810" 
d="M405 -5c-196 0 -355 159 -355 355s159 355 355 355c195 0 355 -159 355 -355s-160 -355 -355 -355zM405 89c139 0 256 110 256 261s-117 261 -256 261c-140 0 -256 -110 -256 -261s116 -261 256 -261zM467 316c-37 -23 -73 -37 -76 -58h155v-89h-279v36
c0 86 42 120 87 146c50 29 100 45 100 82c0 21 -17 33 -41 33c-35 0 -54 -25 -54 -53h-91c0 67 43 144 147 144c79 0 134 -45 134 -118c0 -59 -36 -95 -82 -123z" />
    <glyph glyph-name="uni2782" unicode="&#x2782;" horiz-adv-x="810" 
d="M405 -5c-196 0 -355 159 -355 355s159 355 355 355c195 0 355 -159 355 -355s-160 -355 -355 -355zM405 89c139 0 256 110 256 261s-117 261 -256 261c-140 0 -256 -110 -256 -261s116 -261 256 -261zM492 354c18 -4 56 -26 56 -80c0 -66 -57 -119 -140 -119
c-85 0 -148 55 -148 128h92c1 -23 25 -43 55 -43c25 0 46 13 46 39c0 25 -20 37 -58 37h-27v74h24c39 0 54 17 54 37s-16 36 -40 36s-40 -17 -43 -34h-91c0 58 53 117 138 117c76 0 125 -47 125 -107c0 -46 -29 -73 -43 -79v-6z" />
    <glyph glyph-name="uni2783" unicode="&#x2783;" horiz-adv-x="810" 
d="M405 -5c-196 0 -355 159 -355 355s159 355 355 355c195 0 355 -159 355 -355s-160 -355 -355 -355zM405 89c139 0 256 110 256 261s-117 261 -256 261c-140 0 -256 -110 -256 -261s116 -261 256 -261zM557 318v-79h-65v-81h-85v81h-172v50l142 254h115v-225h65zM349 318
h58v95h-9z" />
    <glyph glyph-name="uni2784" unicode="&#x2784;" horiz-adv-x="810" 
d="M405 -5c-196 0 -355 159 -355 355s159 355 355 355c195 0 355 -159 355 -355s-160 -355 -355 -355zM405 89c139 0 256 110 256 261s-117 261 -256 261c-140 0 -256 -110 -256 -261s116 -261 256 -261zM424 418c72 0 130 -57 130 -134c0 -81 -64 -135 -148 -135
c-89 0 -151 61 -151 125h96c5 -23 26 -42 56 -42c31 0 53 21 53 52c0 26 -15 54 -55 54c-23 0 -38 -9 -53 -27l-82 16l23 210h240v-80h-157l-8 -51c16 7 34 12 56 12z" />
    <glyph glyph-name="uni2785" unicode="&#x2785;" horiz-adv-x="810" 
d="M405 -5c-196 0 -355 159 -355 355s159 355 355 355c195 0 355 -159 355 -355s-160 -355 -355 -355zM405 89c139 0 256 110 256 261s-117 261 -256 261c-140 0 -256 -110 -256 -261s116 -261 256 -261zM425 415c59 0 116 -50 116 -128c0 -87 -71 -129 -141 -129
c-71 0 -141 43 -141 134c0 38 12 75 47 129c30 46 90 125 90 125h112l-104 -134c6 2 13 3 21 3zM400 241c30 0 50 19 50 47s-21 48 -50 48s-50 -20 -50 -48s21 -47 50 -47z" />
    <glyph glyph-name="uni2786" unicode="&#x2786;" horiz-adv-x="810" 
d="M405 -5c-196 0 -355 159 -355 355s159 355 355 355c195 0 355 -159 355 -355s-160 -355 -355 -355zM405 89c139 0 256 110 256 261s-117 261 -256 261c-140 0 -256 -110 -256 -261s116 -261 256 -261zM277 529h279v-62c-105 -128 -123 -195 -126 -323h-99
c5 135 29 207 92 297h-146v88z" />
    <glyph glyph-name="uni2787" unicode="&#x2787;" horiz-adv-x="810" 
d="M405 -5c-196 0 -355 159 -355 355s159 355 355 355c195 0 355 -159 355 -355s-160 -355 -355 -355zM405 89c139 0 256 110 256 261s-117 261 -256 261c-140 0 -256 -110 -256 -261s116 -261 256 -261zM494 365c37 -13 55 -53 55 -90c0 -64 -54 -120 -145 -120
s-143 56 -143 120c0 37 17 77 54 90v7c-32 17 -39 50 -39 72c0 69 67 102 129 102s128 -33 128 -102c0 -26 -9 -56 -39 -72v-7zM405 472c-24 0 -37 -16 -37 -36c0 -22 15 -35 36 -35s38 13 38 36c0 20 -14 35 -37 35zM404 229c36 0 53 25 53 52c0 26 -15 52 -53 52
s-51 -26 -51 -52c0 -27 15 -52 51 -52z" />
    <glyph glyph-name="uni2788" unicode="&#x2788;" horiz-adv-x="810" 
d="M405 -5c-196 0 -355 159 -355 355s159 355 355 355c195 0 355 -159 355 -355s-160 -355 -355 -355zM405 89c139 0 256 110 256 261s-117 261 -256 261c-140 0 -256 -110 -256 -261s116 -261 256 -261zM412 540c71 0 141 -43 141 -134c0 -38 -12 -75 -47 -129
c-30 -46 -90 -125 -90 -125h-109l106 138c-6 -2 -13 -3 -21 -3c-59 0 -121 45 -121 125c0 86 71 128 141 128zM412 362c29 0 50 20 50 48s-21 47 -50 47c-30 0 -50 -19 -50 -47s21 -48 50 -48z" />
    <glyph glyph-name="uni2789" unicode="&#x2789;" horiz-adv-x="810" 
d="M405 -5c-196 0 -355 159 -355 355s159 355 355 355c195 0 355 -159 355 -355s-160 -355 -355 -355zM405 89c139 0 256 110 256 261s-117 261 -256 261c-140 0 -256 -110 -256 -261s116 -261 256 -261zM494 196c-73 0 -120 61 -120 154s47 153 120 153s120 -60 120 -153
s-46 -154 -120 -154zM267 199v173h-70v73h41c20 0 32 12 32 32v23h83l1 -301h-87zM495 281c28 0 35 28 35 66c0 39 -7 70 -35 70s-36 -29 -36 -69c0 -39 8 -67 36 -67z" />
    <glyph glyph-name="uni278A" unicode="&#x278a;" horiz-adv-x="810" 
d="M405 -5c195 0 355 159 355 355s-160 355 -355 355c-196 0 -355 -159 -355 -355s159 -355 355 -355zM384 155v233h-94v81h57c25 0 41 16 41 42v29h92l1 -385h-97z" />
    <glyph glyph-name="uni278B" unicode="&#x278b;" horiz-adv-x="810" 
d="M405 -5c195 0 355 159 355 355s-160 355 -355 355c-196 0 -355 -159 -355 -355s159 -355 355 -355zM468 315c-37 -23 -73 -37 -76 -58h155v-89h-279v36c0 86 42 120 87 146c50 29 100 45 100 82c0 21 -17 33 -41 33c-35 0 -54 -25 -54 -53h-91c0 67 43 144 147 144
c79 0 134 -45 134 -118c0 -59 -36 -95 -82 -123z" />
    <glyph glyph-name="uni278C" unicode="&#x278c;" horiz-adv-x="810" 
d="M405 -5c195 0 355 159 355 355s-160 355 -355 355c-196 0 -355 -159 -355 -355s159 -355 355 -355zM502 353c18 -4 56 -26 56 -80c0 -66 -57 -119 -140 -119c-85 0 -148 55 -148 128h92c1 -23 25 -43 55 -43c25 0 46 13 46 39c0 25 -20 37 -58 37h-27v74h24
c39 0 54 17 54 37s-16 36 -40 36s-40 -17 -43 -34h-91c0 58 53 117 138 117c76 0 125 -47 125 -107c0 -46 -29 -73 -43 -79v-6z" />
    <glyph glyph-name="uni278D" unicode="&#x278d;" horiz-adv-x="810" 
d="M405 -5c195 0 355 159 355 355s-160 355 -355 355c-196 0 -355 -159 -355 -355s159 -355 355 -355zM558 316v-79h-65v-81h-85v81h-172v50l142 254h115v-225h65zM350 316h58v95h-9z" />
    <glyph glyph-name="uni278E" unicode="&#x278e;" horiz-adv-x="810" 
d="M405 -5c195 0 355 159 355 355s-160 355 -355 355c-196 0 -355 -159 -355 -355s159 -355 355 -355zM430 419c72 0 130 -57 130 -134c0 -81 -64 -135 -148 -135c-89 0 -151 61 -151 125h96c5 -23 26 -42 56 -42c31 0 53 21 53 52c0 26 -15 54 -55 54c-23 0 -38 -9 -53 -27
l-82 16l23 210h240v-80h-157l-8 -51c16 7 34 12 56 12z" />
    <glyph glyph-name="uni278F" unicode="&#x278f;" horiz-adv-x="810" 
d="M405 -5c195 0 355 159 355 355s-160 355 -355 355c-196 0 -355 -159 -355 -355s159 -355 355 -355zM427 416c59 0 116 -50 116 -128c0 -87 -71 -129 -141 -129c-71 0 -141 43 -141 134c0 38 12 75 47 129c30 46 90 125 90 125h112l-104 -134c6 2 13 3 21 3zM402 242
c30 0 50 19 50 47s-21 48 -50 48s-50 -20 -50 -48s21 -47 50 -47z" />
    <glyph glyph-name="uni2790" unicode="&#x2790;" horiz-adv-x="810" 
d="M405 -5c195 0 355 159 355 355s-160 355 -355 355c-196 0 -355 -159 -355 -355s159 -355 355 -355zM282 526h279v-62c-105 -128 -123 -195 -126 -323h-99c5 135 29 207 92 297h-146v88z" />
    <glyph glyph-name="uni2791" unicode="&#x2791;" horiz-adv-x="810" 
d="M405 -5c195 0 355 159 355 355s-160 355 -355 355c-196 0 -355 -159 -355 -355s159 -355 355 -355zM497 364c37 -13 55 -53 55 -90c0 -64 -54 -120 -145 -120s-143 56 -143 120c0 37 17 77 54 90v7c-32 17 -39 50 -39 72c0 69 67 102 129 102s128 -33 128 -102
c0 -26 -9 -56 -39 -72v-7zM408 471c-24 0 -37 -16 -37 -36c0 -22 15 -35 36 -35s38 13 38 36c0 20 -14 35 -37 35zM407 228c36 0 53 25 53 52c0 26 -15 52 -53 52s-51 -26 -51 -52c0 -27 15 -52 51 -52z" />
    <glyph glyph-name="uni2792" unicode="&#x2792;" horiz-adv-x="810" 
d="M405 -5c195 0 355 159 355 355s-160 355 -355 355c-196 0 -355 -159 -355 -355s159 -355 355 -355zM419 543c71 0 141 -43 141 -134c0 -38 -12 -75 -47 -129c-30 -46 -90 -125 -90 -125h-109l106 138c-6 -2 -13 -3 -21 -3c-59 0 -121 45 -121 125c0 86 71 128 141 128z
M419 365c29 0 50 20 50 48s-21 47 -50 47c-30 0 -50 -19 -50 -47s21 -48 50 -48z" />
    <glyph glyph-name="uni2793" unicode="&#x2793;" horiz-adv-x="810" 
d="M405 -5c-196 0 -355 159 -355 355s159 355 355 355c195 0 355 -159 355 -355s-160 -355 -355 -355zM501 196c74 0 120 61 120 154s-47 153 -120 153s-120 -60 -120 -153s47 -154 120 -154zM264 199h87l-1 301h-83v-23c0 -20 -12 -32 -32 -32h-41v-73h70v-173zM502 281
c-28 0 -36 28 -36 67c0 40 8 69 36 69s35 -31 35 -70c0 -38 -7 -66 -35 -66z" />
    <glyph glyph-name="a.fina" horiz-adv-x="628" 
d="M546 117l72 -38s-23 -84 -115 -84c-51 0 -91 26 -112 74c-29 -47 -80 -74 -156 -74c-113 0 -185 59 -185 153c0 161 209 170 309 172c-2 56 -35 79 -85 79c-71 0 -78 -45 -78 -45h-123c9 90 85 151 201 151c114 0 203 -59 203 -204v-133c0 -43 9 -73 37 -73
c25 0 32 22 32 22zM176 153c0 -82 173 -76 181 57v15c-91 -5 -181 -13 -181 -72z" />
    <glyph glyph-name="aacute.fina" horiz-adv-x="628" 
d="M430 690l-119 -135h-88l63 135h144zM546 117l72 -38s-23 -84 -115 -84c-51 0 -91 26 -112 74c-29 -47 -80 -74 -156 -74c-113 0 -185 59 -185 153c0 161 209 170 309 172c-2 56 -35 79 -85 79c-71 0 -78 -45 -78 -45h-123c9 90 85 151 201 151c114 0 203 -59 203 -204
v-133c0 -43 9 -73 37 -73c25 0 32 22 32 22zM176 153c0 -82 173 -76 181 57v15c-91 -5 -181 -13 -181 -72z" />
    <glyph glyph-name="abreve.fina" horiz-adv-x="628" 
d="M270 573c-80 0 -145 57 -145 127h97c0 -21 16 -44 48 -44s46 23 46 44h97c0 -70 -63 -127 -143 -127zM546 117l72 -38s-23 -84 -115 -84c-51 0 -91 26 -112 74c-29 -47 -80 -74 -156 -74c-113 0 -185 59 -185 153c0 161 209 170 309 172c-2 56 -35 79 -85 79
c-71 0 -78 -45 -78 -45h-123c9 90 85 151 201 151c114 0 203 -59 203 -204v-133c0 -43 9 -73 37 -73c25 0 32 22 32 22zM176 153c0 -82 173 -76 181 57v15c-91 -5 -181 -13 -181 -72z" />
    <glyph glyph-name="uni01CE.fina" horiz-adv-x="628" 
d="M329 556h-109l-119 154h117l48 -68h17l48 68h117zM546 117l72 -38s-23 -84 -115 -84c-51 0 -91 26 -112 74c-29 -47 -80 -74 -156 -74c-113 0 -185 59 -185 153c0 161 209 170 309 172c-2 56 -35 79 -85 79c-71 0 -78 -45 -78 -45h-123c9 90 85 151 201 151
c114 0 203 -59 203 -204v-133c0 -43 9 -73 37 -73c25 0 32 22 32 22zM176 153c0 -82 173 -76 181 57v15c-91 -5 -181 -13 -181 -72z" />
    <glyph glyph-name="acircumflex.fina" horiz-adv-x="628" 
d="M263 624l-48 -68h-117l119 154h109l119 -154h-117l-48 68h-17zM546 117l72 -38s-23 -84 -115 -84c-51 0 -91 26 -112 74c-29 -47 -80 -74 -156 -74c-113 0 -185 59 -185 153c0 161 209 170 309 172c-2 56 -35 79 -85 79c-71 0 -78 -45 -78 -45h-123c9 90 85 151 201 151
c114 0 203 -59 203 -204v-133c0 -43 9 -73 37 -73c25 0 32 22 32 22zM176 153c0 -82 173 -76 181 57v15c-91 -5 -181 -13 -181 -72z" />
    <glyph glyph-name="adieresis.fina" horiz-adv-x="628" 
d="M174 551c-40 0 -73 33 -73 73c0 41 33 72 73 72c39 0 72 -31 72 -72c0 -40 -33 -73 -72 -73zM368 551c-39 0 -72 33 -72 73c0 41 33 72 72 72c40 0 73 -31 73 -72c0 -40 -33 -73 -73 -73zM546 117l72 -38s-23 -84 -115 -84c-51 0 -91 26 -112 74
c-29 -47 -80 -74 -156 -74c-113 0 -185 59 -185 153c0 161 209 170 309 172c-2 56 -35 79 -85 79c-71 0 -78 -45 -78 -45h-123c9 90 85 151 201 151c114 0 203 -59 203 -204v-133c0 -43 9 -73 37 -73c25 0 32 22 32 22zM176 153c0 -82 173 -76 181 57v15
c-91 -5 -181 -13 -181 -72z" />
    <glyph glyph-name="agrave.fina" horiz-adv-x="628" 
d="M345 555h-88l-119 135h144zM546 117l72 -38s-23 -84 -115 -84c-51 0 -91 26 -112 74c-29 -47 -80 -74 -156 -74c-113 0 -185 59 -185 153c0 161 209 170 309 172c-2 56 -35 79 -85 79c-71 0 -78 -45 -78 -45h-123c9 90 85 151 201 151c114 0 203 -59 203 -204v-133
c0 -43 9 -73 37 -73c25 0 32 22 32 22zM176 153c0 -82 173 -76 181 57v15c-91 -5 -181 -13 -181 -72z" />
    <glyph glyph-name="amacron.fina" horiz-adv-x="628" 
d="M443 660v-90h-350v90h350zM546 117l72 -38s-23 -84 -115 -84c-51 0 -91 26 -112 74c-29 -47 -80 -74 -156 -74c-113 0 -185 59 -185 153c0 161 209 170 309 172c-2 56 -35 79 -85 79c-71 0 -78 -45 -78 -45h-123c9 90 85 151 201 151c114 0 203 -59 203 -204v-133
c0 -43 9 -73 37 -73c25 0 32 22 32 22zM176 153c0 -82 173 -76 181 57v15c-91 -5 -181 -13 -181 -72z" />
    <glyph glyph-name="aogonek.fina" horiz-adv-x="628" 
d="M529 -3c-14 -7 -46 -28 -46 -69c0 -54 58 -50 89 -37l3 -80s-23 -17 -67 -17c-64 0 -115 36 -115 105c0 54 32 91 52 110c-23 12 -42 32 -54 60c-29 -47 -80 -74 -156 -74c-113 0 -185 59 -185 153c0 161 209 170 309 172c-2 56 -35 79 -85 79c-71 0 -78 -45 -78 -45
h-123c9 90 85 151 201 151c114 0 203 -59 203 -204v-133c0 -43 9 -73 37 -73c25 0 32 22 32 22l72 -38s-19 -68 -89 -82zM176 153c0 -82 173 -76 181 57v15c-91 -5 -181 -13 -181 -72z" />
    <glyph glyph-name="aring.fina" horiz-adv-x="628" 
d="M277 530c-55 0 -100 45 -100 100s45 100 100 100s102 -45 102 -100s-47 -100 -102 -100zM278 657c-15 0 -26 -13 -26 -27s11 -27 26 -27c14 0 26 13 26 27s-12 27 -26 27zM546 117l72 -38s-23 -84 -115 -84c-51 0 -91 26 -112 74c-29 -47 -80 -74 -156 -74
c-113 0 -185 59 -185 153c0 161 209 170 309 172c-2 56 -35 79 -85 79c-71 0 -78 -45 -78 -45h-123c9 90 85 151 201 151c114 0 203 -59 203 -204v-133c0 -43 9 -73 37 -73c25 0 32 22 32 22zM176 153c0 -82 173 -76 181 57v15c-91 -5 -181 -13 -181 -72z" />
    <glyph glyph-name="atilde.fina" horiz-adv-x="628" 
d="M211 584c-36 3 -54 -41 -54 -41l-69 44s43 112 139 95c49 -9 80 -46 111 -48c35 -3 56 41 56 41l69 -46s-42 -111 -140 -93c-50 9 -80 46 -112 48zM546 117l72 -38s-23 -84 -115 -84c-51 0 -91 26 -112 74c-29 -47 -80 -74 -156 -74c-113 0 -185 59 -185 153
c0 161 209 170 309 172c-2 56 -35 79 -85 79c-71 0 -78 -45 -78 -45h-123c9 90 85 151 201 151c114 0 203 -59 203 -204v-133c0 -43 9 -73 37 -73c25 0 32 22 32 22zM176 153c0 -82 173 -76 181 57v15c-91 -5 -181 -13 -181 -72z" />
    <glyph glyph-name="i.loclTRK" horiz-adv-x="290" 
d="M155 556c-47 0 -86 39 -86 84c0 48 39 85 86 85c46 0 84 -37 84 -85c0 -45 -38 -84 -84 -84zM219 500v-500h-128v500h128z" />
    <glyph glyph-name="zero.lf" horiz-adv-x="584" 
d="M293 -5c-159 0 -243 121 -243 326s84 325 242 325s242 -120 242 -326c0 -205 -83 -325 -241 -325zM292 128c87 0 101 109 101 191c0 85 -15 194 -101 194c-85 0 -100 -109 -100 -193c0 -85 15 -192 100 -192z" />
    <glyph glyph-name="one.lf" horiz-adv-x="395" 
d="M187 0v433h-132v106h73c37 0 65 28 65 66v35h126l1 -640h-133z" />
    <glyph glyph-name="two.lf" horiz-adv-x="570" 
d="M332 251c-93 -47 -113 -83 -113 -125h276v-126h-425v51c0 157 79 234 159 282c74 45 132 52 136 114c3 52 -34 75 -75 75c-50 0 -86 -35 -86 -87h-133c0 87 63 211 219 211c116 0 210 -68 210 -188s-94 -170 -168 -207z" />
    <glyph glyph-name="three.lf" horiz-adv-x="549" 
d="M395 340c57 -21 89 -84 89 -148c0 -107 -91 -197 -216 -197c-134 0 -223 105 -223 204h129c4 -39 34 -79 92 -79c47 0 86 26 86 79c0 42 -25 88 -99 88h-43v105h39c71 0 85 46 85 73c0 43 -35 65 -71 65c-24 0 -63 -10 -69 -60h-126c0 107 95 176 200 176
c103 0 192 -68 192 -169c0 -53 -24 -106 -65 -129v-8z" />
    <glyph glyph-name="four.lf" horiz-adv-x="600" 
d="M550 249v-119h-104v-130h-129v130h-282v81l233 430h128h50v-392h104zM188 249h129v224h-10z" />
    <glyph glyph-name="five.lf" horiz-adv-x="563" 
d="M278 430c134 0 220 -94 220 -221c0 -138 -101 -214 -223 -214c-148 0 -220 113 -220 200h130s6 -75 89 -75c70 0 92 52 92 96c0 59 -39 96 -95 96s-82 -36 -82 -36l-121 33l30 332h370v-126h-260l-9 -99c22 9 49 14 79 14z" />
    <glyph glyph-name="six.lf" horiz-adv-x="540" 
d="M266 407c121 0 214 -79 214 -203c0 -132 -104 -209 -215 -209c-110 0 -215 75 -215 210c0 42 10 75 19 104c21 67 142 255 188 332h145zM265 118c41 0 86 24 86 86c0 65 -51 85 -86 85s-86 -20 -86 -85c0 -62 46 -86 86 -86z" />
    <glyph glyph-name="seven.lf" horiz-adv-x="485" 
d="M40 641h405v-95c-113 -118 -193 -309 -193 -546h-133c0 299 98 455 144 513h-223v128z" />
    <glyph glyph-name="eight.lf" horiz-adv-x="582" 
d="M413 346c55 -20 104 -82 104 -155c0 -101 -93 -196 -227 -196c-135 0 -225 95 -225 196c0 77 53 137 104 155v9c-39 21 -70 70 -70 125c0 94 87 166 194 166c103 0 190 -68 190 -161c0 -55 -31 -108 -70 -129v-10zM291 528c-40 0 -69 -24 -69 -60c0 -40 36 -59 69 -59
s68 19 68 59c0 36 -28 60 -68 60zM292 116c60 0 89 45 89 80c0 38 -32 81 -90 81c-59 0 -90 -45 -90 -81c0 -35 30 -80 91 -80z" />
    <glyph glyph-name="nine.lf" horiz-adv-x="520" 
d="M264 234c-121 0 -214 79 -214 203c0 132 104 209 214 209c111 0 216 -78 216 -205c0 -50 -16 -91 -29 -119c-32 -69 -131 -243 -178 -322h-145zM265 523c-41 0 -86 -24 -86 -86c0 -65 51 -85 86 -85s86 20 86 85c0 62 -46 86 -86 86z" />
    <glyph glyph-name="zero.osf" horiz-adv-x="575" 
d="M288 -5c-139 0 -238 107 -238 280s99 280 237 280s238 -107 238 -281c0 -173 -99 -279 -237 -279zM288 120c75 0 109 65 109 153c0 89 -34 157 -110 157c-75 0 -107 -68 -107 -156s32 -154 108 -154z" />
    <glyph glyph-name="one.osf" horiz-adv-x="378" 
d="M177 0v337h-122v112h67c38 0 61 23 61 62v39h119l1 -550h-126z" />
    <glyph glyph-name="two.osf" horiz-adv-x="549" 
d="M356 212c-99 -50 -119 -61 -132 -95h251v-117h-405v51c0 133 88 192 187 241c56 27 95 46 95 90c0 35 -26 56 -71 56c-51 0 -86 -27 -86 -75h-124c0 82 58 192 215 192c117 0 193 -61 193 -168c0 -90 -54 -140 -123 -175z" />
    <glyph glyph-name="three.osf" horiz-adv-x="517" 
d="M375 284c27 -11 77 -49 77 -125c0 -103 -91 -164 -196 -164c-127 0 -211 89 -211 197h118c6 -49 38 -82 91 -82c46 0 76 25 76 65c0 39 -28 67 -102 67h-23v94h19c70 0 92 19 92 52c0 27 -15 51 -67 51c-40 0 -68 -14 -71 -47h-116c0 85 75 163 193 163
c97 0 177 -53 177 -149c0 -63 -35 -97 -57 -112v-10z" />
    <glyph glyph-name="four.osf" horiz-adv-x="548" 
d="M498 227v-111h-83v-116h-123v116h-257v71l237 363h112h31v-323h83zM206 227h86v127h-16z" />
    <glyph glyph-name="five.osf" horiz-adv-x="553" 
d="M294 375c132 0 194 -87 194 -185c0 -109 -77 -195 -208 -195c-140 0 -225 97 -225 180h127c3 -36 44 -65 96 -65c49 0 85 26 85 78c0 45 -27 77 -92 77c-30 0 -59 -7 -84 -39l-111 23l33 301h339v-117h-230l-13 -79c25 16 56 21 89 21z" />
    <glyph glyph-name="six.osf" horiz-adv-x="518" 
d="M286 364c70 0 172 -59 172 -183c0 -119 -94 -186 -203 -186c-112 0 -205 70 -205 189c0 61 25 112 71 182c47 72 129 184 129 184h148l-141 -192c5 3 14 6 29 6zM254 104c46 0 79 29 79 77c0 49 -33 78 -79 78s-79 -29 -79 -78c0 -48 33 -77 79 -77z" />
    <glyph glyph-name="seven.osf" horiz-adv-x="485" 
d="M40 550h405v-78c-164 -151 -193 -295 -203 -472h-127c10 239 75 377 139 434h-214v116z" />
    <glyph glyph-name="eight.osf" horiz-adv-x="538" 
d="M392 295c24 -13 81 -53 81 -133c0 -92 -75 -167 -205 -167s-203 75 -203 167c0 81 57 120 80 133v10c-19 11 -58 41 -58 103c0 96 93 147 182 147c87 0 182 -49 182 -146c0 -62 -40 -93 -59 -104v-10zM269 449c-35 0 -58 -19 -58 -49c0 -34 28 -51 57 -51s59 16 59 51
c0 29 -22 49 -58 49zM270 102c54 0 78 35 78 68c0 36 -29 68 -80 68c-52 0 -78 -32 -78 -67c0 -37 27 -69 80 -69z" />
    <glyph glyph-name="nine.osf" horiz-adv-x="498" 
d="M253 556c112 0 205 -70 205 -189c0 -61 -25 -112 -71 -182c-47 -72 -129 -184 -129 -184h-148l141 192c-5 -3 -14 -6 -29 -6c-70 0 -172 59 -172 183c0 119 94 186 203 186zM254 292c46 0 79 29 79 78c0 48 -33 77 -79 77s-79 -29 -79 -77c0 -49 33 -78 79 -78z" />
    <glyph glyph-name="zero.tf" horiz-adv-x="600" 
d="M300 646c158 0 242 -120 242 -326c0 -205 -83 -325 -241 -325c-159 0 -243 121 -243 326s84 325 242 325zM300 513c-85 0 -100 -109 -100 -193c0 -25 1 -52 5 -78l152 249c-15 14 -33 22 -57 22zM300 128c87 0 101 109 101 191c0 17 -1 36 -2 54l-142 -233
c12 -8 26 -12 43 -12z" />
    <glyph glyph-name="one.tf" horiz-adv-x="600" 
d="M393 117h136v-117h-269h-152v117h152v316h-132v106h73c37 0 65 28 65 66v35h126z" />
    <glyph glyph-name="two.tf" horiz-adv-x="601" 
d="M340 251c-93 -47 -113 -83 -113 -125h276v-126h-425v51c0 157 79 234 159 282c74 45 132 52 136 114c3 52 -34 75 -75 75c-50 0 -86 -35 -86 -87h-133c0 87 63 211 219 211c116 0 210 -68 210 -188s-94 -170 -168 -207z" />
    <glyph glyph-name="three.tf" horiz-adv-x="604" 
d="M423 340c57 -21 89 -84 89 -148c0 -107 -91 -197 -216 -197c-134 0 -223 105 -223 204h129c4 -39 34 -79 92 -79c47 0 86 26 86 79c0 42 -25 88 -99 88h-43v105h39c71 0 85 46 85 73c0 43 -35 65 -71 65c-24 0 -63 -10 -69 -60h-126c0 107 95 176 200 176
c103 0 192 -68 192 -169c0 -53 -24 -106 -65 -129v-8z" />
    <glyph glyph-name="four.tf" horiz-adv-x="600" 
d="M553 249v-119h-104v-130h-129v130h-282v81l233 430h128h50v-392h104zM191 249h129v224h-10z" />
    <glyph glyph-name="five.tf" horiz-adv-x="600" 
d="M306 430c134 0 220 -94 220 -221c0 -138 -101 -214 -223 -214c-148 0 -220 113 -220 200h130s6 -75 89 -75c70 0 92 52 92 96c0 59 -39 96 -95 96s-82 -36 -82 -36l-121 33l30 332h370v-126h-260l-9 -99c22 9 49 14 79 14z" />
    <glyph glyph-name="six.tf" horiz-adv-x="600" 
d="M294 407c121 0 214 -79 214 -203c0 -132 -104 -209 -215 -209c-110 0 -215 75 -215 210c0 42 10 75 19 104c21 67 142 255 188 332h145zM293 118c41 0 86 24 86 86c0 65 -51 85 -86 85s-86 -20 -86 -85c0 -62 46 -86 86 -86z" />
    <glyph glyph-name="seven.tf" horiz-adv-x="600" 
d="M98 641h405v-95c-113 -118 -193 -309 -193 -546h-133c0 299 98 455 144 513h-223v128z" />
    <glyph glyph-name="eight.tf" horiz-adv-x="600" 
d="M422 346c55 -20 104 -82 104 -155c0 -101 -93 -196 -227 -196c-135 0 -225 95 -225 196c0 77 53 137 104 155v9c-39 21 -70 70 -70 125c0 94 87 166 194 166c103 0 190 -68 190 -161c0 -55 -31 -108 -70 -129v-10zM300 528c-40 0 -69 -24 -69 -60c0 -40 36 -59 69 -59
s68 19 68 59c0 36 -28 60 -68 60zM301 116c60 0 89 45 89 80c0 38 -32 81 -90 81c-59 0 -90 -45 -90 -81c0 -35 30 -80 91 -80z" />
    <glyph glyph-name="nine.tf" horiz-adv-x="600" 
d="M302 234c-121 0 -214 79 -214 203c0 132 104 209 214 209c111 0 216 -78 216 -205c0 -50 -16 -91 -29 -119c-32 -69 -131 -243 -178 -322h-145zM303 523c-41 0 -86 -24 -86 -86c0 -65 51 -85 86 -85s86 20 86 85c0 62 -46 86 -86 86z" />
    <glyph glyph-name="zero.tosf" horiz-adv-x="600" 
d="M300 555c138 0 238 -107 238 -281c0 -173 -99 -279 -237 -279c-139 0 -238 107 -238 280s99 280 237 280zM300 430c-75 0 -107 -68 -107 -156c0 -28 3 -54 10 -76l137 224c-12 5 -25 8 -40 8zM301 120c75 0 109 65 109 153c0 25 -3 48 -8 69l-133 -218c10 -2 20 -4 32 -4
z" />
    <glyph glyph-name="one.tosf" horiz-adv-x="600" 
d="M393 113h116v-113h-242h-132v113h132v224h-122v112h67c38 0 61 23 61 62v39h119z" />
    <glyph glyph-name="two.tosf" horiz-adv-x="600" 
d="M381 212c-99 -50 -119 -61 -132 -95h251v-117h-405v51c0 133 88 192 187 241c56 27 95 46 95 90c0 35 -26 56 -71 56c-51 0 -86 -27 -86 -75h-124c0 82 58 192 215 192c117 0 193 -61 193 -168c0 -90 -54 -140 -123 -175z" />
    <glyph glyph-name="three.tosf" horiz-adv-x="600" 
d="M425 284c27 -11 77 -49 77 -125c0 -103 -91 -164 -196 -164c-127 0 -211 89 -211 197h118c6 -49 38 -82 91 -82c46 0 76 25 76 65c0 39 -28 67 -102 67h-23v94h19c70 0 92 19 92 52c0 27 -15 51 -67 51c-40 0 -68 -14 -71 -47h-116c0 85 75 163 193 163
c97 0 177 -53 177 -149c0 -63 -35 -97 -57 -112v-10z" />
    <glyph glyph-name="four.tosf" horiz-adv-x="600" 
d="M524 227v-111h-83v-116h-123v116h-257v71l237 363h112h31v-323h83zM232 227h86v127h-16z" />
    <glyph glyph-name="five.tosf" horiz-adv-x="600" 
d="M323 375c132 0 194 -87 194 -185c0 -109 -77 -195 -208 -195c-140 0 -225 97 -225 180h127c3 -36 44 -65 96 -65c49 0 85 26 85 78c0 45 -27 77 -92 77c-30 0 -59 -7 -84 -39l-111 23l33 301h339v-117h-230l-13 -79c25 16 56 21 89 21z" />
    <glyph glyph-name="six.tosf" horiz-adv-x="600" 
d="M337 364c70 0 172 -59 172 -183c0 -119 -94 -186 -203 -186c-112 0 -205 70 -205 189c0 61 25 112 71 182c47 72 129 184 129 184h148l-141 -192c5 3 14 6 29 6zM305 104c46 0 79 29 79 77c0 49 -33 78 -79 78s-79 -29 -79 -78c0 -48 33 -77 79 -77z" />
    <glyph glyph-name="seven.tosf" horiz-adv-x="600" 
d="M108 550h405v-78c-164 -151 -193 -295 -203 -472h-127c10 239 75 377 139 434h-214v116z" />
    <glyph glyph-name="eight.tosf" horiz-adv-x="600" 
d="M423 295c24 -13 81 -53 81 -133c0 -92 -75 -167 -205 -167s-203 75 -203 167c0 81 57 120 80 133v10c-19 11 -58 41 -58 103c0 96 93 147 182 147c87 0 182 -49 182 -146c0 -62 -40 -93 -59 -104v-10zM300 449c-35 0 -58 -19 -58 -49c0 -34 28 -51 57 -51s59 16 59 51
c0 29 -22 49 -58 49zM301 102c54 0 78 35 78 68c0 36 -29 68 -80 68c-52 0 -78 -32 -78 -67c0 -37 27 -69 80 -69z" />
    <glyph glyph-name="nine.tosf" horiz-adv-x="600" 
d="M300 556c112 0 205 -70 205 -189c0 -61 -25 -112 -71 -182c-47 -72 -129 -184 -129 -184h-148l141 192c-5 -3 -14 -6 -29 -6c-70 0 -172 59 -172 183c0 119 94 186 203 186zM301 292c46 0 79 29 79 78c0 48 -33 77 -79 77s-79 -29 -79 -77c0 -49 33 -78 79 -78z" />
    <glyph glyph-name="zero.dnom" horiz-adv-x="414" 
d="M208 -3c-93 0 -158 76 -158 195s65 196 157 196s157 -77 157 -197c0 -118 -64 -194 -156 -194zM208 94c43 0 57 46 57 97s-14 98 -58 98c-43 0 -57 -47 -57 -97c0 -51 14 -98 58 -98z" />
    <glyph glyph-name="one.dnom" horiz-adv-x="291" 
d="M144 0v233h-94v81h57c25 0 41 16 41 42v29h92l1 -385h-97z" />
    <glyph glyph-name="two.dnom" horiz-adv-x="388" 
d="M250 147c-37 -23 -73 -37 -76 -58h155v-89h-279v36c0 86 42 120 87 146c50 29 100 45 100 82c0 21 -17 33 -41 33c-35 0 -54 -25 -54 -53h-91c0 67 43 144 147 144c79 0 134 -45 134 -118c0 -59 -36 -95 -82 -123z" />
    <glyph glyph-name="three.dnom" horiz-adv-x="388" 
d="M282 196c18 -4 56 -26 56 -80c0 -66 -57 -119 -140 -119c-85 0 -148 55 -148 128h92c1 -23 25 -43 55 -43c25 0 46 13 46 39c0 25 -20 37 -58 37h-27v74h24c39 0 54 17 54 37s-16 36 -40 36s-40 -17 -43 -34h-91c0 58 53 117 138 117c76 0 125 -47 125 -107
c0 -46 -29 -73 -43 -79v-6z" />
    <glyph glyph-name="four.dnom" horiz-adv-x="422" 
d="M372 160v-79h-65v-81h-85v81h-172v50l142 254h115v-225h65zM164 160h58v95h-9z" />
    <glyph glyph-name="five.dnom" horiz-adv-x="399" 
d="M219 269c72 0 130 -57 130 -134c0 -81 -64 -135 -148 -135c-89 0 -151 61 -151 125h96c5 -23 26 -42 56 -42c31 0 53 21 53 52c0 26 -15 54 -55 54c-23 0 -38 -9 -53 -27l-82 16l23 210h240v-80h-157l-8 -51c16 7 34 12 56 12z" />
    <glyph glyph-name="six.dnom" horiz-adv-x="382" 
d="M216 254c59 0 116 -50 116 -128c0 -87 -71 -129 -141 -129c-71 0 -141 43 -141 134c0 38 12 75 47 129c30 46 90 125 90 125h112l-104 -134c6 2 13 3 21 3zM191 80c30 0 50 19 50 47s-21 48 -50 48s-50 -20 -50 -48s21 -47 50 -47z" />
    <glyph glyph-name="seven.dnom" horiz-adv-x="369" 
d="M50 385h279v-62c-105 -128 -123 -195 -126 -323h-99c5 135 29 207 92 297h-146v88z" />
    <glyph glyph-name="eight.dnom" horiz-adv-x="388" 
d="M283 207c37 -13 55 -53 55 -90c0 -64 -54 -120 -145 -120s-143 56 -143 120c0 37 17 77 54 90v7c-32 17 -39 50 -39 72c0 69 67 102 129 102s128 -33 128 -102c0 -26 -9 -56 -39 -72v-7zM194 314c-24 0 -37 -16 -37 -36c0 -22 15 -35 36 -35s38 13 38 36
c0 20 -14 35 -37 35zM193 71c36 0 53 25 53 52c0 26 -15 52 -53 52s-51 -26 -51 -52c0 -27 15 -52 51 -52z" />
    <glyph glyph-name="nine.dnom" horiz-adv-x="382" 
d="M191 388c71 0 141 -43 141 -134c0 -38 -12 -75 -47 -129c-30 -46 -90 -125 -90 -125h-109l106 138c-6 -2 -13 -3 -21 -3c-59 0 -121 45 -121 125c0 86 71 128 141 128zM191 210c29 0 50 20 50 48s-21 47 -50 47c-30 0 -50 -19 -50 -47s21 -48 50 -48z" />
    <glyph glyph-name="zero.numr" horiz-adv-x="414" 
d="M208 252c-93 0 -158 76 -158 195s65 196 157 196s157 -77 157 -197c0 -118 -64 -194 -156 -194zM208 349c43 0 57 46 57 97s-14 98 -58 98c-43 0 -57 -47 -57 -97c0 -51 14 -98 58 -98z" />
    <glyph glyph-name="one.numr" horiz-adv-x="291" 
d="M144 255v233h-94v81h57c25 0 41 16 41 42v29h92l1 -385h-97z" />
    <glyph glyph-name="two.numr" horiz-adv-x="388" 
d="M250 402c-37 -23 -73 -37 -76 -58h155v-89h-279v36c0 86 42 120 87 146c50 29 100 45 100 82c0 21 -17 33 -41 33c-35 0 -54 -25 -54 -53h-91c0 67 43 144 147 144c79 0 134 -45 134 -118c0 -59 -36 -95 -82 -123z" />
    <glyph glyph-name="three.numr" horiz-adv-x="388" 
d="M282 451c18 -4 56 -26 56 -80c0 -66 -57 -119 -140 -119c-85 0 -148 55 -148 128h92c1 -23 25 -43 55 -43c25 0 46 13 46 39c0 25 -20 37 -58 37h-27v74h24c39 0 54 17 54 37s-16 36 -40 36s-40 -17 -43 -34h-91c0 58 53 117 138 117c76 0 125 -47 125 -107
c0 -46 -29 -73 -43 -79v-6z" />
    <glyph glyph-name="four.numr" horiz-adv-x="422" 
d="M372 415v-79h-65v-81h-85v81h-172v50l142 254h115v-225h65zM164 415h58v95h-9z" />
    <glyph glyph-name="five.numr" horiz-adv-x="399" 
d="M219 521c72 0 130 -57 130 -134c0 -81 -64 -135 -148 -135c-89 0 -151 61 -151 125h96c5 -23 26 -42 56 -42c31 0 53 21 53 52c0 26 -15 54 -55 54c-23 0 -38 -9 -53 -27l-82 16l23 210h240v-80h-157l-8 -51c16 7 34 12 56 12z" />
    <glyph glyph-name="six.numr" horiz-adv-x="382" 
d="M216 509c59 0 116 -50 116 -128c0 -87 -71 -129 -141 -129c-71 0 -141 43 -141 134c0 38 12 75 47 129c30 46 90 125 90 125h112l-104 -134c6 2 13 3 21 3zM191 335c30 0 50 19 50 47s-21 48 -50 48s-50 -20 -50 -48s21 -47 50 -47z" />
    <glyph glyph-name="seven.numr" horiz-adv-x="369" 
d="M50 640h279v-62c-105 -128 -123 -195 -126 -323h-99c5 135 29 207 92 297h-146v88z" />
    <glyph glyph-name="eight.numr" horiz-adv-x="388" 
d="M283 462c37 -13 55 -53 55 -90c0 -64 -54 -120 -145 -120s-143 56 -143 120c0 37 17 77 54 90v7c-32 17 -39 50 -39 72c0 69 67 102 129 102s128 -33 128 -102c0 -26 -9 -56 -39 -72v-7zM194 569c-24 0 -37 -16 -37 -36c0 -22 15 -35 36 -35s38 13 38 36
c0 20 -14 35 -37 35zM193 326c36 0 53 25 53 52c0 26 -15 52 -53 52s-51 -26 -51 -52c0 -27 15 -52 51 -52z" />
    <glyph glyph-name="nine.numr" horiz-adv-x="382" 
d="M191 643c71 0 141 -43 141 -134c0 -38 -12 -75 -47 -129c-30 -46 -90 -125 -90 -125h-109l106 138c-6 -2 -13 -3 -21 -3c-59 0 -121 45 -121 125c0 86 71 128 141 128zM191 465c29 0 50 20 50 48s-21 47 -50 47c-30 0 -50 -19 -50 -47s21 -48 50 -48z" />
    <glyph glyph-name=".null" horiz-adv-x="0" 
 />
    </font>
</defs>
</svg>
