<?xml version="1.0" encoding="UTF-8"?>
<svg width="169px" height="32px" viewBox="0 0 169 32" version="1.1" xmlns="http://www.w3.org/2000/svg" xmlns:xlink="http://www.w3.org/1999/xlink">
    <!-- Generator: Sketch 52.1 (67048) - http://www.bohemiancoding.com/sketch -->
    <title>Group 16</title>
    <desc>Created with Sketch.</desc>
    <defs>
        <polygon id="path-1" points="0 0.131886957 16.88688 0.131886957 16.88688 26 0 26"></polygon>
        <polygon id="path-3" points="0 32 169 32 169 0 0 0"></polygon>
    </defs>
    <g id="Symbols" stroke="none" stroke-width="1" fill="none" fill-rule="evenodd">
        <g id="Header" transform="translate(-135.000000, -34.000000)">
            <g id="Group-16" transform="translate(135.000000, 34.000000)">
                <g id="Group-3" transform="translate(0.000000, 6.000000)">
                    <mask id="mask-2" fill="white">
                        <use xlink:href="#path-1"></use>
                    </mask>
                    <g id="Clip-2"></g>
                    <path d="M4.87968,7.33032174 C4.87968,8.63923478 5.83128,9.6041913 7.87248,9.6041913 C9.88008,9.6041913 10.86528,8.63923478 10.86528,7.33032174 C10.86528,6.05662609 9.88008,5.16093043 7.87248,5.16093043 C5.86608,5.16093043 4.87968,6.0214087 4.87968,7.33032174 M11.53488,20.1788 C11.53488,19.2490609 10.75968,18.5259304 8.78928,18.5259304 C7.80288,18.5259304 6.42888,18.5259304 5.40768,18.490713 L4.21008,19.7303652 C4.00008,20.5920174 4.87968,22.0042348 7.97808,22.0042348 C10.26648,22.0042348 11.53488,21.2799304 11.53488,20.1788 M15.86568,20.3161478 C15.72528,24.2076696 12.09888,26.0002348 7.90728,26.0002348 C2.45088,26.0002348 -0.68352,22.9339739 0.12648,19.2150174 L2.13408,17.6290609 C1.00608,16.9411478 0.26688,15.872887 0.26688,14.5980174 C0.26688,13.1858 1.18248,12.1868 2.45088,11.5329304 C1.25328,10.4646696 0.65448,9.0184087 0.65448,7.39958261 C0.65448,4.09266957 3.25968,1.51006087 7.69728,1.51006087 C9.24648,1.51006087 10.61928,1.8188 11.71008,2.37053913 C13.61208,1.51006087 14.70408,0.131886957 14.70408,0.131886957 L16.88688,2.99036522 C16.88688,2.99036522 15.69048,3.78275652 14.07048,4.26523478 C14.73888,5.16093043 15.09168,6.22801739 15.09168,7.36553913 C15.09168,10.6372348 12.02808,13.2550609 7.59168,13.2550609 C6.67608,13.2550609 5.83128,13.1505826 5.09208,12.9451478 C4.80888,13.1165391 4.56288,13.3935826 4.56288,13.8056261 C4.56288,15.0464522 6.49968,14.8398435 7.69728,14.8398435 L10.16088,14.8398435 C14.03568,14.8398435 15.97128,17.4224522 15.86568,20.3161478" id="Fill-1" fill="#FEFEFE" mask="url(#mask-2)"></path>
                </g>
                <path d="M22.6279359,14.777065 L30.396467,14.777065 C29.8775451,12.6948677 28.4631594,11.8468324 26.7357732,11.8468324 C24.8377665,11.8468324 23.318655,12.9414595 22.6279359,14.777065 M34.9538013,18.3412189 L22.3514129,18.3412189 C22.8691581,21.0236568 25.0095637,22.0124298 26.8734464,22.0124298 C29.2221268,22.0124298 30.223493,20.5292702 30.223493,20.5292702 L34.5737293,20.5292702 C33.2617159,24.0597434 30.119944,26 26.7357732,26 C22.0748899,26 18,22.3660786 18,16.8592622 C18,11.3885325 22.0407658,8 26.5981001,8 C31.0177612,8 35.5056706,11.1419407 34.9538013,18.3412189" id="Fill-4" fill="#FEFEFE"></path>
                <path d="M55,15.8775731 L55,25 L50.2904508,25 L50.2904508,16.8872241 C50.2904508,16.3147061 50.714093,12.0730242 47.3153,11.9055139 C45.6496983,11.8034015 42.6745474,12.6788149 42.6745474,17.0891543 L42.6745474,25 L38,25 L38,8.16751029 L41.6124246,8.16751029 L42.2146965,10.2212324 L42.8169684,10.2212324 C43.5604544,9.38023891 45.2248491,8 48.2,8 C52.7683351,8 55,11.2320308 55,15.8775731" id="Fill-6" fill="#FEFEFE"></path>
                <path d="M71.3853541,17.0006015 C71.3853541,14.2470093 69.7647059,12.0936978 67.0876351,12.0936978 C64.4105642,12.0936978 62.6134454,14.2470093 62.6134454,17.0006015 C62.6134454,19.7529907 64.4105642,21.9063022 67.0876351,21.9063022 C69.7647059,21.9063022 71.3853541,19.7529907 71.3853541,17.0006015 M58,17.0354875 C58,11.387556 62.3673469,8 67.0876351,8 C71.8439376,8 76,11.423645 76,16.9645125 C76,22.577558 71.7034814,26 66.9471789,26 C62.1572629,26 58,22.577558 58,17.0354875" id="Fill-8" fill="#FEFEFE"></path>
                <path d="M105,15.8961406 L105,25 L100.371504,25 L100.371504,16.9037366 C100.371504,14.5851207 100.614672,11.6630921 97.4131575,11.9321661 C96.5768968,11.9985758 94.2804416,12.3684094 94.2804416,17.1052559 L94.2804416,25 L89.6863452,25 L89.6863452,16.9037366 C89.6863452,14.5851207 89.9295132,11.6630921 86.7279985,11.9321661 C85.8929239,11.9985758 83.5940964,12.3684094 83.5940964,17.1052559 L83.5940964,25 L79,25 L79,8.20177066 L82.5502532,8.20177066 L83.073361,10.0165886 L83.629682,10.0165886 C84.2903873,9.17616185 85.6829691,8.06780618 87.8406405,8.03460131 C89.7907295,8.00025144 91.4608787,8.87388303 92.6102924,10.3520723 L93.1310279,10.3520723 C94.001688,9.31127132 95.6030385,8.03460131 98.4214152,8.00025144 C102.947899,7.96704657 105,11.2257038 105,15.8961406" id="Fill-10" fill="#FEFEFE"></path>
                <mask id="mask-4" fill="white">
                    <use xlink:href="#path-3"></use>
                </mask>
                <g id="Clip-13"></g>
                <path d="M107.777065,25 L112.295108,25 L112.295108,7.75866121 L107.777065,7.75866121 L107.777065,25 Z M107,2.93212053 C107,1.27626569 108.377306,0 110.036087,0 C111.658781,0 113,1.27626569 113,2.93212053 C113,4.48338269 111.658781,5.8278099 110.036087,5.8278099 C108.377306,5.8278099 107,4.48338269 107,2.93212053 Z" id="Fill-12" fill="#FEFEFE" mask="url(#mask-4)"></path>
                <path d="M162.673427,18.4114935 L162.673427,18.0578684 C159.508955,18.4114935 156.380026,18.7987972 156.380026,20.6354828 C156.380026,23.3165386 162.39501,23.1048446 162.673427,18.4114935 M169,22.4348814 L169,25.8231874 L167.957419,25.8231874 C165.940971,25.8231874 164.515715,25.0822586 163.924524,23.5643167 C162.881943,25.011293 161.143912,26 158.432016,26 C154.50338,26 152,23.9516204 152,20.7762112 C152,15.2709656 159.404697,14.7766121 162.743327,14.5997995 C162.673427,12.5526228 161.560945,11.811694 159.787372,11.811694 C157.319534,11.811694 157.145376,13.3296358 157.145376,13.3296358 L152.799707,13.3296358 C153.113666,10.1879051 155.65022,8 159.89163,8 C164.029967,8 166.94801,10.0820581 166.94801,15.2 L166.94801,19.8933512 C166.94801,21.9417307 167.679002,22.4348814 169,22.4348814" id="Fill-14" fill="#FEFEFE" mask="url(#mask-4)"></path>
                <path d="M126.987346,18.7113986 C126.987346,19.1738124 127.305354,19.7384565 127.69532,19.9702577 L136.594908,25.2279856 C136.986035,25.4585981 137.305204,25.2707797 137.305204,24.8083659 L137.305204,14.2881553 C137.305204,13.8269302 136.986035,13.2610974 136.594908,13.0304849 L127.69532,7.76800216 C127.305354,7.53738964 126.987346,7.72639681 126.987346,8.18643314 L126.987346,18.7113986 Z M119.709135,24.6930596 C119.320329,24.4624471 119,23.8966143 119,23.4353893 L119,9.16594201 C119,8.70471696 119.320329,8.13769544 119.709135,7.90708291 L131.09824,1.17295939 C131.489367,0.942346868 132.127705,0.942346868 132.517671,1.17295939 L144.582254,8.30768302 C144.97222,8.53710682 145.291389,9.10293962 145.291389,9.5653534 L145.291389,22.5806965 C145.291389,23.0431102 145.610558,23.608943 146.000524,23.8383668 L149.707525,26.0303746 C150.097492,26.2621758 150.097492,26.6390014 149.707525,26.869614 L143.139611,30.7531764 C142.748484,30.983789 142.110146,30.983789 141.72018,30.7531764 L139.070498,29.1864377 C138.679371,28.9546365 138.041033,28.9546365 137.651067,29.1864377 L133.193149,31.8265945 C132.803182,32.0572071 132.164845,32.0583958 131.774878,31.8265945 L119.709135,24.6930596 Z" id="Fill-15" fill="#FFCA1F" mask="url(#mask-4)"></path>
            </g>
        </g>
    </g>
</svg>