<?xml version="1.0" encoding="UTF-8"?>
<svg width="140px" height="27px" viewBox="0 0 140 27" version="1.1" xmlns="http://www.w3.org/2000/svg" xmlns:xlink="http://www.w3.org/1999/xlink">
    <!-- Generator: Sketch 52.1 (67048) - http://www.bohemiancoding.com/sketch -->
    <title>Group 16</title>
    <desc>Created with Sketch.</desc>
    <defs>
        <polygon id="path-1" points="0 0.109255467 13.9891314 0.109255467 13.9891314 21.5384615 0 21.5384615"></polygon>
        <polygon id="path-3" points="0 26.5088757 140 26.5088757 140 0 0 0"></polygon>
    </defs>
    <g id="Symbols" stroke="none" stroke-width="1" fill="none" fill-rule="evenodd">
        <g id="Footer" transform="translate(-135.000000, -36.000000)">
            <g id="Group-16" transform="translate(135.000000, 36.000000)">
                <g id="Group-3" transform="translate(0.000000, 4.970414)">
                    <mask id="mask-2" fill="white">
                        <use xlink:href="#path-1"></use>
                    </mask>
                    <g id="Clip-2"></g>
                    <path d="M4.04233846,6.07245588 C4.04233846,7.15676254 4.83064615,7.95613481 6.52158107,7.95613481 C8.18468166,7.95613481 9.00082367,7.15676254 9.00082367,6.07245588 C9.00082367,5.01732339 8.18468166,4.27532699 6.52158107,4.27532699 C4.85947456,4.27532699 4.04233846,4.98814922 4.04233846,6.07245588 M9.55552189,16.7161657 C9.55552189,15.9459676 8.91334438,15.3469246 7.28106036,15.3469246 C6.46392426,15.3469246 5.32569941,15.3469246 4.47973491,15.3177505 L3.48764024,16.3446812 C3.31367574,17.0584759 4.04233846,18.2283602 6.60906036,18.2283602 C8.50477633,18.2283602 9.55552189,17.6283447 9.55552189,16.7161657 M13.1431669,16.8299449 C13.0268592,20.0536908 10.0227408,21.538656 6.55040947,21.538656 C2.03031479,21.538656 -0.566229586,18.9985583 0.104776331,15.9177659 L1.76787692,14.6039557 C0.833439053,14.034087 0.221084024,13.1491371 0.221084024,12.0930322 C0.221084024,10.9231479 0.979569231,10.095574 2.03031479,9.55390687 C1.03822012,8.66895704 0.542172781,7.47087111 0.542172781,6.12983175 C0.542172781,3.39037715 2.70032663,1.250938 6.37644497,1.250938 C7.65980592,1.250938 8.79703669,1.50669822 9.70065799,1.96376023 C11.2762793,1.250938 12.1808947,0.109255467 12.1808947,0.109255467 L13.9891314,2.47722562 C13.9891314,2.47722562 12.9980308,3.13364446 11.6560189,3.53333059 C12.2097231,4.27532699 12.5019834,5.15930435 12.5019834,6.10163005 C12.5019834,8.81191047 9.96408994,10.9805238 6.28896568,10.9805238 C5.53048047,10.9805238 4.83064615,10.8939738 4.21829112,10.7237911 C3.98368757,10.8657721 3.77990059,11.0952755 3.77990059,11.4366133 C3.77990059,12.4645166 5.3843503,12.2933615 6.37644497,12.2933615 L8.41729704,12.2933615 C11.6271905,12.2933615 13.2306462,14.4328006 13.1431669,16.8299449" id="Fill-1" fill="#3A4050" mask="url(#mask-2)"></path>
                </g>
                <path d="M18.7450357,12.2413556 L25.1805052,12.2413556 C24.7506291,10.5164584 23.5789486,9.813944 22.1479778,9.813944 C20.5756645,9.813944 19.317229,10.7207357 18.7450357,12.2413556 M28.9558117,15.1939092 L18.5159634,15.1939092 C18.9448647,17.416047 20.7179818,18.235149 22.2620266,18.235149 C24.207679,18.235149 25.0372132,17.0064961 25.0372132,17.0064961 L28.6409591,17.0064961 C27.5540842,19.9311484 24.9514329,21.5384615 22.1479778,21.5384615 C18.2868911,21.5384615 14.9112426,18.5281124 14.9112426,13.9662527 C14.9112426,9.43428726 18.2586226,6.62721893 22.0339291,6.62721893 C25.6951868,6.62721893 29.4129815,9.23001001 28.9558117,15.1939092" id="Fill-4" fill="#3A4050"></path>
                <path d="M45.5621302,13.1530191 L45.5621302,20.7100592 L41.6607285,20.7100592 L41.6607285,13.9894164 C41.6607285,13.5151411 42.0116747,10.0013218 39.1961065,9.86255592 C37.8163181,9.77796574 35.3516961,10.5031603 35.3516961,14.1566959 L35.3516961,20.7100592 L31.4792899,20.7100592 L31.4792899,6.76598486 L34.471831,6.76598486 L34.9707545,8.46729309 L35.469678,8.46729309 C36.0855835,7.77061212 37.4643721,6.62721893 39.9289941,6.62721893 C43.7134137,6.62721893 45.5621302,9.30464088 45.5621302,13.1530191" id="Fill-6" fill="#3A4050"></path>
                <path d="M59.1357963,14.0833385 C59.1357963,11.8022562 57.7932475,10.0184479 55.5755557,10.0184479 C53.3578639,10.0184479 51.8691263,11.8022562 51.8691263,14.0833385 C51.8691263,16.3634243 53.3578639,18.1472326 55.5755557,18.1472326 C57.7932475,18.1472326 59.1357963,16.3634243 59.1357963,14.0833385 M48.0473373,14.1122382 C48.0473373,9.43347832 51.6652578,6.62721893 55.5755557,6.62721893 C59.5156879,6.62721893 62.9585799,9.46337455 62.9585799,14.0534423 C62.9585799,18.7033025 59.3993337,21.5384615 55.4592014,21.5384615 C51.4912237,21.5384615 48.0473373,18.7033025 48.0473373,14.1122382" id="Fill-8" fill="#3A4050"></path>
                <path d="M86.9822485,13.1684005 L86.9822485,20.7100592 L83.1479916,20.7100592 L83.1479916,14.0030954 C83.1479916,12.0823485 83.3494326,9.66173312 80.6972903,9.88463462 C80.0045299,9.93964861 78.102141,10.2460196 78.102141,14.1700344 L78.102141,20.7100592 L74.2963806,20.7100592 L74.2963806,14.0030954 C74.2963806,12.0823485 74.4978216,9.66173312 71.8456793,9.88463462 C71.1539015,9.93964861 69.2495474,10.2460196 69.2495474,14.1700344 L69.2495474,20.7100592 L65.443787,20.7100592 L65.443787,6.79436622 L68.3848251,6.79436622 L68.8181689,8.29776567 L69.2790265,8.29776567 C69.8263564,7.60155419 70.9799744,6.68338973 72.7673945,6.65588274 C74.3828528,6.62742723 75.7664084,7.3511457 76.7185855,8.57568116 L77.1499639,8.57568116 C77.8712209,7.7134792 79.1977833,6.65588274 81.5325333,6.62742723 C85.2822833,6.59992024 86.9822485,9.29939963 86.9822485,13.1684005" id="Fill-10" fill="#3A4050"></path>
                <mask id="mask-4" fill="white">
                    <use xlink:href="#path-3"></use>
                </mask>
                <g id="Clip-13"></g>
                <path d="M89.2827757,20.7100592 L93.0255335,20.7100592 L93.0255335,6.42729331 L89.2827757,6.42729331 L89.2827757,20.7100592 Z M88.6390533,2.42897559 C88.6390533,1.05726152 89.7800164,0 91.1541546,0 C92.4983985,0 93.6094675,1.05726152 93.6094675,2.42897559 C93.6094675,3.71404483 92.4983985,4.82777151 91.1541546,4.82777151 C89.7800164,4.82777151 88.6390533,3.71404483 88.6390533,2.42897559 Z" id="Fill-12" fill="#3A4050" mask="url(#mask-4)"></path>
                <path d="M134.759052,15.2521248 L134.759052,14.9591809 C132.137596,15.2521248 129.545584,15.5729681 129.545584,17.0944828 C129.545584,19.3154758 134.528411,19.140108 134.759052,15.2521248 M140,18.5851088 L140,21.3919896 L139.136323,21.3919896 C137.465894,21.3919896 136.285208,20.7782024 135.795464,19.5207358 C134.931787,20.7194143 133.491998,21.5384615 131.245457,21.5384615 C127.990966,21.5384615 125.91716,19.8415791 125.91716,17.2110625 C125.91716,12.650504 132.051228,12.2409804 134.816957,12.0945085 C134.759052,10.3986224 133.837469,9.78483523 132.368237,9.78483523 C130.323875,9.78483523 130.179601,11.0423019 130.179601,11.0423019 L126.579639,11.0423019 C126.839724,8.43968471 128.94101,6.62721893 132.454605,6.62721893 C135.882813,6.62721893 138.300127,8.35200082 138.300127,12.591716 L138.300127,16.4796992 C138.300127,18.1765816 138.905682,18.5851088 140,18.5851088" id="Fill-14" fill="#3A4050" mask="url(#mask-4)"></path>
                <path d="M105.196618,15.5005669 C105.196618,15.8836316 105.460056,16.3513841 105.783105,16.5434088 L113.155545,20.898923 C113.479556,21.089963 113.743956,20.9343737 113.743956,20.551309 L113.743956,11.8363417 C113.743956,11.4542617 113.479556,10.9855245 113.155545,10.7944845 L105.783105,6.43503138 C105.460056,6.24399141 105.196618,6.4005654 105.196618,6.78166059 L105.196618,15.5005669 Z M99.1673309,20.4557891 C98.8452433,20.2647491 98.5798817,19.7960119 98.5798817,19.4139319 L98.5798817,7.59308806 C98.5798817,7.21100813 98.8452433,6.74128616 99.1673309,6.5502462 L108.602093,0.971682339 C108.926103,0.780642376 109.454904,0.780642376 109.777953,0.971682339 L119.772281,6.88210428 C120.09533,7.0721595 120.359731,7.54089673 120.359731,7.9239614 L120.359731,18.7059024 C120.359731,19.0889671 120.624131,19.5577043 120.94718,19.7477595 L124.018068,21.5636239 C124.341117,21.7556486 124.341117,22.0678118 124.018068,22.2588518 L118.577192,25.4760042 C118.253182,25.6670441 117.724381,25.6670441 117.401332,25.4760042 L115.20633,24.1781141 C114.882319,23.9860894 114.353519,23.9860894 114.03047,24.1781141 L110.33752,26.3652263 C110.014471,26.5562662 109.48567,26.557251 109.162621,26.3652263 L99.1673309,20.4557891 Z" id="Fill-15" fill="#FFCA1F" mask="url(#mask-4)"></path>
            </g>
        </g>
    </g>
</svg>